STARTFONT 2.1
FONT -DIGITAL-VT220-Bold-I-Normal-80col-100-1000-150-75-c-1000-iso10646-1
SIZE 100 75 75
FONTBOUNDINGBOX 133 100 -16 -20
STARTPROPERTIES 21
FOUNDRY "DIGITAL"
FAMILY_NAME "vt220"
WEIGHT_NAME "Bold"
RELATIVE_SETWIDTH 50
SLANT "I"
SETWIDTH_NAME "Normal"
ADD_STYLE_NAME "80col"
PIXEL_SIZE 100
POINT_SIZE 1000
RESOLUTION_X 75
RESOLUTION_Y 75
SPACING "c"
CHARSET_REGISTRY "ISO10646"
CHARSET_ENCODING "1"
CAP_HEIGHT 70
X_HEIGHT 50
WEIGHT 10
QUAD_WIDTH 100
FONT_ASCENT 80
FONT_DESCENT 20
AVERAGE_WIDTH 1000
ENDPROPERTIES
CHARS 237
STARTCHAR U+00FD
ENCODING 253
SWIDTH 1000 0
DWIDTH 100 0
BBX 133 100 -16 -20
BITMAP
0000000000000000000000000000000000
0000000000000000000000000000000000
0000000000000000000000000000000000
0000000000000000000000000000000000
0000000000000000000000000000000000
0000000000000000000000000000000000
0000000000000000000000000000000000
0000000000000000000000000000000000
0000000000000000000000000000000000
0000000000000000000000000000000000
0000000000000000000000000000000000
0000000000000000000000000000000000
0000000000000000000000000000000000
0000000000000000000000000000000000
0000000000000000000000000000000000
0000000000000000000000000000000000
0000000000000000000000000000000000
0000000000000000000000000000000000
0000000000000000000000000000000000
0000000000000000000000000000000000
0000000000000000000000000000000000
0000000000000000000000000000000000
0000000000000000000000000000000000
0000000000000000000000000000000000
0000000000000000000000000000000000
0000000000000000000000000000000000
0000000000000000000000000000000000
0000000000000000000000000000000000
0000000000000000000000000000000000
0000000000000000000000000000000000
0000000000000000000000000000000000
0000000000000000000000000000000000
0000000000000000000000000000000000
0000000000000000000000000000000000
0000000000000000000000000000000000
0000000000000000000000000000000000
0000000000000000000000000000000000
0000000000000000000000000000000000
0000000000000000000000000000000000
0000000000000000000000000000000000
0000000000000000000000000000000000
0000000000000000000000000000000000
0000000000000000000000000000000000
0000000000000000000000000000000000
0000000000000000000000000000000000
0000000000000000000000000000000000
0000000000000000000000000000000000
0000000000000000000000000000000000
0000000000000000000000000000000000
0000000000000000000000000000000000
0000000000000000000000000000000000
0000000000000000000000000000000000
0000000000000000000000000000000000
0000000000000000000000000000000000
0000000000000000000000000000000000
0000000000000000000000000000000000
0000000000000000000000000000000000
0000000000000000000000000000000000
0000000000000000000000000000000000
0000000000000000000000000000000000
0000000000000000000000000000000000
0000000000000000000000000000000000
0000000000000000000000000000000000
0000000000000000000000000000000000
0000000000000000000000000000000000
0000000000000000000000000000000000
0000000000000000000000000000000000
0000000000000000000000000000000000
0000000000000000000000000000000000
0000000000000000000000000000000000
0000000000000000000000000000000000
0000000000000000000000000000000000
0000000000000000000000000000000000
0000000000000000000000000000000000
0000000000000000000000000000000000
0000000000000000000000000000000000
0000000000000000000000000000000000
0000000000000000000000000000000000
0000000000000000000000000000000000
0000000000000000000000000000000000
0000000000000000000000000000000000
0000000000000000000000000000000000
0000000000000000000000000000000000
0000000000000000000000000000000000
0000000000000000000000000000000000
0000000000000000000000000000000000
0000000000000000000000000000000000
0000000000000000000000000000000000
0000000000000000000000000000000000
0000000000000000000000000000000000
0000000000000000000000000000000000
0000000000000000000000000000000000
0000000000000000000000000000000000
0000000000000000000000000000000000
0000000000000000000000000000000000
0000000000000000000000000000000000
0000000000000000000000000000000000
0000000000000000000000000000000000
0000000000000000000000000000000000
0000000000000000000000000000000000
ENDCHAR
STARTCHAR U+25A1
ENCODING 9633
SWIDTH 1000 0
DWIDTH 100 0
BBX 133 100 -16 -20
BITMAP
0000000000000000000000000000000000
0000000000000000000000000000000000
0000000000000000000000000000000000
0000000000000000000000000000000000
0000000000000000000000000000000000
0000000000000000000000000000000000
0000000000000000000000000000000000
0000000000000000000000000000000000
0000000000000000000000000000000000
0000000000000000000000000000000000
00000007ffffffffffffffffff80000000
00000007ffffffffffffffffff80000000
0000000fffffffffffffffffff00000000
0000000fffffffffffffffffff00000000
0000000fffffffffffffffffff00000000
0000001ffffffffffffffffffe00000000
0000001ffffffffffffffffffe00000000
0000001ffffffffffffffffffe00000000
0000003ffffffffffffffffffc00000000
0000003ffffffffffffffffffc00000000
0000003fffc00000000003fffc00000000
0000007fff800000000007fff800000000
0000007fff800000000007fff800000000
0000007fff800000000007fff800000000
000000ffff00000000000ffff000000000
000000ffff00000000000ffff000000000
000000ffff00000000000ffff000000000
000001fffe00000000001fffe000000000
000001fffe00000000001fffe000000000
000001fffe00000000001fffe000000000
000003fffc00000000003fffc000000000
000003fffc00000000003fffc000000000
000003fffc00000000003fffc000000000
000007fff800000000007fff8000000000
000007fff800000000007fff8000000000
000007fff800000000007fff8000000000
00000ffff00000000000ffff0000000000
00000ffff00000000000ffff0000000000
00000ffff00000000000ffff0000000000
00001fffe00000000001fffe0000000000
00001fffe00000000001fffe0000000000
00001fffe00000000001fffe0000000000
00003fffc00000000003fffc0000000000
00003fffc00000000003fffc0000000000
00003fffc00000000003fffc0000000000
00007fff800000000007fff80000000000
00007fff800000000007fff80000000000
00007fff800000000007fff80000000000
0000ffff00000000000ffff00000000000
0000ffff00000000000ffff00000000000
0000ffff00000000000ffff00000000000
0001fffe00000000001fffe00000000000
0001fffe00000000001fffe00000000000
0001fffe00000000001fffe00000000000
0003fffc00000000003fffc00000000000
0003fffc00000000003fffc00000000000
0003fffc00000000003fffc00000000000
0007fff800000000007fff800000000000
0007fff800000000007fff800000000000
0007fff800000000007fff800000000000
000ffff00000000000ffff000000000000
000ffff00000000000ffff000000000000
000ffff00000000000ffff000000000000
001fffe00000000001fffe000000000000
001fffe00000000001fffe000000000000
001fffe00000000001fffe000000000000
003fffc00000000003fffc000000000000
003fffc00000000003fffc000000000000
003fffc00000000003fffc000000000000
007fff800000000007fff8000000000000
007ffffffffffffffffff8000000000000
007ffffffffffffffffff8000000000000
00fffffffffffffffffff0000000000000
00fffffffffffffffffff0000000000000
00fffffffffffffffffff0000000000000
01ffffffffffffffffffe0000000000000
01ffffffffffffffffffe0000000000000
01ffffffffffffffffffe0000000000000
03ffffffffffffffffffc0000000000000
03ffffffffffffffffffc0000000000000
0000000000000000000000000000000000
0000000000000000000000000000000000
0000000000000000000000000000000000
0000000000000000000000000000000000
0000000000000000000000000000000000
0000000000000000000000000000000000
0000000000000000000000000000000000
0000000000000000000000000000000000
0000000000000000000000000000000000
0000000000000000000000000000000000
0000000000000000000000000000000000
0000000000000000000000000000000000
0000000000000000000000000000000000
0000000000000000000000000000000000
0000000000000000000000000000000000
0000000000000000000000000000000000
0000000000000000000000000000000000
0000000000000000000000000000000000
0000000000000000000000000000000000
0000000000000000000000000000000000
ENDCHAR
STARTCHAR U+00FE
ENCODING 254
SWIDTH 1000 0
DWIDTH 100 0
BBX 133 100 -16 -20
BITMAP
0000000000000000000000000000000000
0000000000000000000000000000000000
0000000000000000000000000000000000
0000000000000000000000000000000000
0000000000000000000000000000000000
0000000000000000000000000000000000
0000000000000000000000000000000000
0000000000000000000000000000000000
0000000000000000000000000000000000
0000000000000000000000000000000000
00000007fff80000000000000000000000
00000007fff80000000000000000000000
0000000ffff00000000000000000000000
0000000ffff00000000000000000000000
0000000ffff00000000000000000000000
0000001fffe00000000000000000000000
0000001fffe00000000000000000000000
0000001fffe00000000000000000000000
0000003fffc00000000000000000000000
0000003fffc00000000000000000000000
0000003fffc00000000000000000000000
0000007fff800000000000000000000000
0000007fff800000000000000000000000
0000007fff800000000000000000000000
000000ffff000000000000000000000000
000000ffff000000000000000000000000
000000ffff000000000000000000000000
000001fffe000000000000000000000000
000001fffe000000000000000000000000
000001fffe000000000000000000000000
000003fffc3fffffffffff000000000000
000003fffc3fffffffffff000000000000
000003fffc3fffffffffff000000000000
000007fff87ffffffffffe000000000000
000007fff87ffffffffffe000000000000
000007fff87ffffffffffe000000000000
00000ffff0fffffffffffc000000000000
00000ffff0fffffffffffc000000000000
00000ffff0fffffffffffc000000000000
00001fffe1fffffffffff8000000000000
00001ffffff800000001fffe0000000000
00001ffffff800000001fffe0000000000
00003ffffff000000003fffc0000000000
00003ffffff000000003fffc0000000000
00003ffffff000000003fffc0000000000
00007fffffe000000007fff80000000000
00007fffffe000000007fff80000000000
00007fffffe000000007fff80000000000
0000ffffffc00000000ffff00000000000
0000ffffffc00000000ffff00000000000
0000ffffffc00000000ffff00000000000
0001ffffff800000001fffe00000000000
0001ffffff800000001fffe00000000000
0001ffffff800000001fffe00000000000
0003ffffff000000003fffc00000000000
0003ffffff000000003fffc00000000000
0003ffffff000000003fffc00000000000
0007fffffe000000007fff800000000000
0007fffffe000000007fff800000000000
0007fffffe000000007fff800000000000
000ffff0fffffffffffc00000000000000
000ffff0fffffffffffc00000000000000
000ffff0fffffffffffc00000000000000
001fffe1fffffffffff800000000000000
001fffe1fffffffffff800000000000000
001fffe1fffffffffff800000000000000
003fffc3fffffffffff000000000000000
003fffc3fffffffffff000000000000000
003fffc3fffffffffff000000000000000
007fff87ffffffffffe000000000000000
007fff8000000000000000000000000000
007fff8000000000000000000000000000
00ffff0000000000000000000000000000
00ffff0000000000000000000000000000
00ffff0000000000000000000000000000
01fffe0000000000000000000000000000
01fffe0000000000000000000000000000
01fffe0000000000000000000000000000
03fffc0000000000000000000000000000
03fffc0000000000000000000000000000
03fffc0000000000000000000000000000
07fff80000000000000000000000000000
07fff80000000000000000000000000000
07fff80000000000000000000000000000
0ffff00000000000000000000000000000
0ffff00000000000000000000000000000
0ffff00000000000000000000000000000
1fffe00000000000000000000000000000
1fffe00000000000000000000000000000
1fffe00000000000000000000000000000
3fffc00000000000000000000000000000
3fffc00000000000000000000000000000
3fffc00000000000000000000000000000
7fff800000000000000000000000000000
7fff800000000000000000000000000000
7fff800000000000000000000000000000
ffff000000000000000000000000000000
ffff000000000000000000000000000000
ffff000000000000000000000000000000
fffe000000000000000000000000000000
ENDCHAR
STARTCHAR U+00FF
ENCODING 255
SWIDTH 1000 0
DWIDTH 100 0
BBX 133 100 -16 -20
BITMAP
0000000000000000000000000000000000
0000000000000000000000000000000000
0000000000000000000000000000000000
0000000000000000000000000000000000
0000000000000000000000000000000000
0000000000000000000000000000000000
0000000000000000000000000000000000
0000000000000000000000000000000000
0000000000000000000000000000000000
0000000000000000000000000000000000
0000000001fffe000001fffe0000000000
0000000001fffe000001fffe0000000000
0000000003fffc000003fffc0000000000
0000000003fffc000003fffc0000000000
0000000003fffc000003fffc0000000000
0000000007fff8000007fff80000000000
0000000007fff8000007fff80000000000
0000000007fff8000007fff80000000000
000000000ffff000000ffff00000000000
000000000ffff000000ffff00000000000
0000000000000000000000000000000000
0000000000000000000000000000000000
0000000000000000000000000000000000
0000000000000000000000000000000000
0000000000000000000000000000000000
0000000000000000000000000000000000
0000000000000000000000000000000000
0000000000000000000000000000000000
0000000000000000000000000000000000
0000000000000000000000000000000000
000003fffc00000000ffff000000000000
000003fffc00000000ffff000000000000
000003fffc00000000ffff000000000000
000007fff800000001fffe000000000000
000007fff800000001fffe000000000000
000007fff800000001fffe000000000000
00000ffff000000003fffc000000000000
00000ffff000000003fffc000000000000
00000ffff000000003fffc000000000000
00001fffe000000007fff8000000000000
00001fffe000000007fff8000000000000
00001fffe000000007fff8000000000000
00003fffc00000000ffff0000000000000
00003fffc00000000ffff0000000000000
00003fffc00000000ffff0000000000000
00007fff800000001fffe0000000000000
00007fff800000001fffe0000000000000
00007fff800000001fffe0000000000000
0000ffff000000003fffc0000000000000
0000ffff000000003fffc0000000000000
0000ffff000000ffffffc0000000000000
0001fffe000001ffffff80000000000000
0001fffe000001ffffff80000000000000
0001fffe000001ffffff80000000000000
0003fffc000003ffffff00000000000000
0003fffc000003ffffff00000000000000
0003fffc000003ffffff00000000000000
0007fff8000007fffffe00000000000000
0007fff8000007fffffe00000000000000
0007fff8000007fffffe00000000000000
000003ffffffffc3fffc00000000000000
000003ffffffffc3fffc00000000000000
000003ffffffffc3fffc00000000000000
000007ffffffff87fff800000000000000
000007ffffffff87fff800000000000000
000007ffffffff87fff800000000000000
00000fffffffff0ffff000000000000000
00000fffffffff0ffff000000000000000
00000fffffffff0ffff000000000000000
00001ffffffffe1fffe000000000000000
000000000000001fffe000000000000000
000000000000001fffe000000000000000
000000000000003fffc000000000000000
000000000000003fffc000000000000000
000000000000003fffc000000000000000
000000000000007fff8000000000000000
000000000000007fff8000000000000000
000000000000007fff8000000000000000
00000000000000ffff0000000000000000
00000000000000ffff0000000000000000
03fffc00000000ffff0000000000000000
07fff800000001fffe0000000000000000
07fff800000001fffe0000000000000000
07fff800000001fffe0000000000000000
0ffff000000003fffc0000000000000000
0ffff000000003fffc0000000000000000
0ffff000000003fffc0000000000000000
1fffe000000007fff80000000000000000
1fffe000000007fff80000000000000000
1fffe000000007fff80000000000000000
000fffffffffffc0000000000000000000
000fffffffffffc0000000000000000000
000fffffffffffc0000000000000000000
001fffffffffff80000000000000000000
001fffffffffff80000000000000000000
001fffffffffff80000000000000000000
003fffffffffff00000000000000000000
003fffffffffff00000000000000000000
003fffffffffff00000000000000000000
007ffffffffffe00000000000000000000
ENDCHAR
STARTCHAR U+00FC
ENCODING 252
SWIDTH 1000 0
DWIDTH 100 0
BBX 133 100 -16 -20
BITMAP
0000000000000000000000000000000000
0000000000000000000000000000000000
0000000000000000000000000000000000
0000000000000000000000000000000000
0000000000000000000000000000000000
0000000000000000000000000000000000
0000000000000000000000000000000000
0000000000000000000000000000000000
0000000000000000000000000000000000
0000000000000000000000000000000000
0000000001fffe000001fffe0000000000
0000000001fffe000001fffe0000000000
0000000003fffc000003fffc0000000000
0000000003fffc000003fffc0000000000
0000000003fffc000003fffc0000000000
0000000007fff8000007fff80000000000
0000000007fff8000007fff80000000000
0000000007fff8000007fff80000000000
000000000ffff000000ffff00000000000
000000000ffff000000ffff00000000000
0000000000000000000000000000000000
0000000000000000000000000000000000
0000000000000000000000000000000000
0000000000000000000000000000000000
0000000000000000000000000000000000
0000000000000000000000000000000000
0000000000000000000000000000000000
0000000000000000000000000000000000
0000000000000000000000000000000000
0000000000000000000000000000000000
000003fffc00000000ffff000000000000
000003fffc00000000ffff000000000000
000003fffc00000000ffff000000000000
000007fff800000001fffe000000000000
000007fff800000001fffe000000000000
000007fff800000001fffe000000000000
00000ffff000000003fffc000000000000
00000ffff000000003fffc000000000000
00000ffff000000003fffc000000000000
00001fffe000000007fff8000000000000
00001fffe000000007fff8000000000000
00001fffe000000007fff8000000000000
00003fffc00000000ffff0000000000000
00003fffc00000000ffff0000000000000
00003fffc00000000ffff0000000000000
00007fff800000001fffe0000000000000
00007fff800000001fffe0000000000000
00007fff800000001fffe0000000000000
0000ffff000000003fffc0000000000000
0000ffff000000003fffc0000000000000
0000ffff000000003fffc0000000000000
0001fffe000000007fff80000000000000
0001fffe000000007fff80000000000000
0001fffe000000007fff80000000000000
0003fffc00000000ffff00000000000000
0003fffc00000000ffff00000000000000
0003fffc00000000ffff00000000000000
0007fff800000001fffe00000000000000
0007fff800000001fffe00000000000000
0007fff800000001fffe00000000000000
000ffff000000003fffc00000000000000
000ffff000000003fffc00000000000000
000ffff000000003fffc00000000000000
001fffe000000007fff800000000000000
001fffe000000007fff800000000000000
001fffe000000007fff800000000000000
003fffc00000000ffff000000000000000
003fffc00000000ffff000000000000000
003fffc00000000ffff000000000000000
007fff800000001fffe000000000000000
00001fffffffffff87fff8000000000000
00001fffffffffff87fff8000000000000
00003fffffffffff0ffff0000000000000
00003fffffffffff0ffff0000000000000
00003fffffffffff0ffff0000000000000
00007ffffffffffe1fffe0000000000000
00007ffffffffffe1fffe0000000000000
00007ffffffffffe1fffe0000000000000
0000fffffffffffc3fffc0000000000000
0000fffffffffffc3fffc0000000000000
0000000000000000000000000000000000
0000000000000000000000000000000000
0000000000000000000000000000000000
0000000000000000000000000000000000
0000000000000000000000000000000000
0000000000000000000000000000000000
0000000000000000000000000000000000
0000000000000000000000000000000000
0000000000000000000000000000000000
0000000000000000000000000000000000
0000000000000000000000000000000000
0000000000000000000000000000000000
0000000000000000000000000000000000
0000000000000000000000000000000000
0000000000000000000000000000000000
0000000000000000000000000000000000
0000000000000000000000000000000000
0000000000000000000000000000000000
0000000000000000000000000000000000
0000000000000000000000000000000000
ENDCHAR
STARTCHAR U+00FB
ENCODING 251
SWIDTH 1000 0
DWIDTH 100 0
BBX 133 100 -16 -20
BITMAP
0000000000000fffffffff000000000000
0000000000000fffffffff000000000000
0000000000000fffffffff000000000000
0000000000001ffffffffe000000000000
0000000000001ffffffffe000000000000
0000000000001ffffffffe000000000000
0000000000003ffffffffc000000000000
0000000000003ffffffffc000000000000
0000000000003ffffffffc000000000000
0000000000007ffffffff8000000000000
0000000001fffe000001fffe0000000000
0000000001fffe000001fffe0000000000
0000000003fffc000003fffc0000000000
0000000003fffc000003fffc0000000000
0000000003fffc000003fffc0000000000
0000000007fff8000007fff80000000000
0000000007fff8000007fff80000000000
0000000007fff8000007fff80000000000
000000000ffff000000ffff00000000000
000000000ffff000000ffff00000000000
0000000000000000000000000000000000
0000000000000000000000000000000000
0000000000000000000000000000000000
0000000000000000000000000000000000
0000000000000000000000000000000000
0000000000000000000000000000000000
0000000000000000000000000000000000
0000000000000000000000000000000000
0000000000000000000000000000000000
0000000000000000000000000000000000
000003fffc00000000ffff000000000000
000003fffc00000000ffff000000000000
000003fffc00000000ffff000000000000
000007fff800000001fffe000000000000
000007fff800000001fffe000000000000
000007fff800000001fffe000000000000
00000ffff000000003fffc000000000000
00000ffff000000003fffc000000000000
00000ffff000000003fffc000000000000
00001fffe000000007fff8000000000000
00001fffe000000007fff8000000000000
00001fffe000000007fff8000000000000
00003fffc00000000ffff0000000000000
00003fffc00000000ffff0000000000000
00003fffc00000000ffff0000000000000
00007fff800000001fffe0000000000000
00007fff800000001fffe0000000000000
00007fff800000001fffe0000000000000
0000ffff000000003fffc0000000000000
0000ffff000000003fffc0000000000000
0000ffff000000003fffc0000000000000
0001fffe000000007fff80000000000000
0001fffe000000007fff80000000000000
0001fffe000000007fff80000000000000
0003fffc00000000ffff00000000000000
0003fffc00000000ffff00000000000000
0003fffc00000000ffff00000000000000
0007fff800000001fffe00000000000000
0007fff800000001fffe00000000000000
0007fff800000001fffe00000000000000
000ffff000000003fffc00000000000000
000ffff000000003fffc00000000000000
000ffff000000003fffc00000000000000
001fffe000000007fff800000000000000
001fffe000000007fff800000000000000
001fffe000000007fff800000000000000
003fffc00000000ffff000000000000000
003fffc00000000ffff000000000000000
003fffc00000000ffff000000000000000
007fff800000001fffe000000000000000
00001fffffffffff87fff8000000000000
00001fffffffffff87fff8000000000000
00003fffffffffff0ffff0000000000000
00003fffffffffff0ffff0000000000000
00003fffffffffff0ffff0000000000000
00007ffffffffffe1fffe0000000000000
00007ffffffffffe1fffe0000000000000
00007ffffffffffe1fffe0000000000000
0000fffffffffffc3fffc0000000000000
0000fffffffffffc3fffc0000000000000
0000000000000000000000000000000000
0000000000000000000000000000000000
0000000000000000000000000000000000
0000000000000000000000000000000000
0000000000000000000000000000000000
0000000000000000000000000000000000
0000000000000000000000000000000000
0000000000000000000000000000000000
0000000000000000000000000000000000
0000000000000000000000000000000000
0000000000000000000000000000000000
0000000000000000000000000000000000
0000000000000000000000000000000000
0000000000000000000000000000000000
0000000000000000000000000000000000
0000000000000000000000000000000000
0000000000000000000000000000000000
0000000000000000000000000000000000
0000000000000000000000000000000000
0000000000000000000000000000000000
ENDCHAR
STARTCHAR U+00FA
ENCODING 250
SWIDTH 1000 0
DWIDTH 100 0
BBX 133 100 -16 -20
BITMAP
0000000000000000000000000000000000
0000000000000000000000000000000000
0000000000000000000000000000000000
0000000000000000000000000000000000
0000000000000000000000000000000000
0000000000000000000000000000000000
0000000000000000000000000000000000
0000000000000000000000000000000000
0000000000000000000000000000000000
0000000000000000000000000000000000
000000000000001ffffff8000000000000
000000000000001ffffff8000000000000
000000000000003ffffff0000000000000
000000000000003ffffff0000000000000
000000000000003ffffff0000000000000
000000000000007fffffe0000000000000
000000000000007fffffe0000000000000
000000000000007fffffe0000000000000
00000000000000ffffffc0000000000000
00000000000000ffffffc0000000000000
000000000ffffffc000000000000000000
000000001ffffff8000000000000000000
000000001ffffff8000000000000000000
000000001ffffff8000000000000000000
000000003ffffff0000000000000000000
000000003ffffff0000000000000000000
000000003ffffff0000000000000000000
000000007fffffe0000000000000000000
000000007fffffe0000000000000000000
000000007fffffe0000000000000000000
000003fffc00000000ffff000000000000
000003fffc00000000ffff000000000000
000003fffc00000000ffff000000000000
000007fff800000001fffe000000000000
000007fff800000001fffe000000000000
000007fff800000001fffe000000000000
00000ffff000000003fffc000000000000
00000ffff000000003fffc000000000000
00000ffff000000003fffc000000000000
00001fffe000000007fff8000000000000
00001fffe000000007fff8000000000000
00001fffe000000007fff8000000000000
00003fffc00000000ffff0000000000000
00003fffc00000000ffff0000000000000
00003fffc00000000ffff0000000000000
00007fff800000001fffe0000000000000
00007fff800000001fffe0000000000000
00007fff800000001fffe0000000000000
0000ffff000000003fffc0000000000000
0000ffff000000003fffc0000000000000
0000ffff000000003fffc0000000000000
0001fffe000000007fff80000000000000
0001fffe000000007fff80000000000000
0001fffe000000007fff80000000000000
0003fffc00000000ffff00000000000000
0003fffc00000000ffff00000000000000
0003fffc00000000ffff00000000000000
0007fff800000001fffe00000000000000
0007fff800000001fffe00000000000000
0007fff800000001fffe00000000000000
000ffff000000003fffc00000000000000
000ffff000000003fffc00000000000000
000ffff000000003fffc00000000000000
001fffe000000007fff800000000000000
001fffe000000007fff800000000000000
001fffe000000007fff800000000000000
003fffc00000000ffff000000000000000
003fffc00000000ffff000000000000000
003fffc00000000ffff000000000000000
007fff800000001fffe000000000000000
00001fffffffffff87fff8000000000000
00001fffffffffff87fff8000000000000
00003fffffffffff0ffff0000000000000
00003fffffffffff0ffff0000000000000
00003fffffffffff0ffff0000000000000
00007ffffffffffe1fffe0000000000000
00007ffffffffffe1fffe0000000000000
00007ffffffffffe1fffe0000000000000
0000fffffffffffc3fffc0000000000000
0000fffffffffffc3fffc0000000000000
0000000000000000000000000000000000
0000000000000000000000000000000000
0000000000000000000000000000000000
0000000000000000000000000000000000
0000000000000000000000000000000000
0000000000000000000000000000000000
0000000000000000000000000000000000
0000000000000000000000000000000000
0000000000000000000000000000000000
0000000000000000000000000000000000
0000000000000000000000000000000000
0000000000000000000000000000000000
0000000000000000000000000000000000
0000000000000000000000000000000000
0000000000000000000000000000000000
0000000000000000000000000000000000
0000000000000000000000000000000000
0000000000000000000000000000000000
0000000000000000000000000000000000
0000000000000000000000000000000000
ENDCHAR
STARTCHAR U+00F9
ENCODING 249
SWIDTH 1000 0
DWIDTH 100 0
BBX 133 100 -16 -20
BITMAP
0000000000000000000000000000000000
0000000000000000000000000000000000
0000000000000000000000000000000000
0000000000000000000000000000000000
0000000000000000000000000000000000
0000000000000000000000000000000000
0000000000000000000000000000000000
0000000000000000000000000000000000
0000000000000000000000000000000000
0000000000000000000000000000000000
0000000001ffffff800000000000000000
0000000001ffffff800000000000000000
0000000003ffffff000000000000000000
0000000003ffffff000000000000000000
0000000003ffffff000000000000000000
0000000007fffffe000000000000000000
0000000007fffffe000000000000000000
0000000007fffffe000000000000000000
000000000ffffffc000000000000000000
000000000ffffffc000000000000000000
00000000000000ffffffc0000000000000
00000000000001ffffff80000000000000
00000000000001ffffff80000000000000
00000000000001ffffff80000000000000
00000000000003ffffff00000000000000
00000000000003ffffff00000000000000
00000000000003ffffff00000000000000
00000000000007fffffe00000000000000
00000000000007fffffe00000000000000
00000000000007fffffe00000000000000
000003fffc00000000ffff000000000000
000003fffc00000000ffff000000000000
000003fffc00000000ffff000000000000
000007fff800000001fffe000000000000
000007fff800000001fffe000000000000
000007fff800000001fffe000000000000
00000ffff000000003fffc000000000000
00000ffff000000003fffc000000000000
00000ffff000000003fffc000000000000
00001fffe000000007fff8000000000000
00001fffe000000007fff8000000000000
00001fffe000000007fff8000000000000
00003fffc00000000ffff0000000000000
00003fffc00000000ffff0000000000000
00003fffc00000000ffff0000000000000
00007fff800000001fffe0000000000000
00007fff800000001fffe0000000000000
00007fff800000001fffe0000000000000
0000ffff000000003fffc0000000000000
0000ffff000000003fffc0000000000000
0000ffff000000003fffc0000000000000
0001fffe000000007fff80000000000000
0001fffe000000007fff80000000000000
0001fffe000000007fff80000000000000
0003fffc00000000ffff00000000000000
0003fffc00000000ffff00000000000000
0003fffc00000000ffff00000000000000
0007fff800000001fffe00000000000000
0007fff800000001fffe00000000000000
0007fff800000001fffe00000000000000
000ffff000000003fffc00000000000000
000ffff000000003fffc00000000000000
000ffff000000003fffc00000000000000
001fffe000000007fff800000000000000
001fffe000000007fff800000000000000
001fffe000000007fff800000000000000
003fffc00000000ffff000000000000000
003fffc00000000ffff000000000000000
003fffc00000000ffff000000000000000
007fff800000001fffe000000000000000
00001fffffffffff87fff8000000000000
00001fffffffffff87fff8000000000000
00003fffffffffff0ffff0000000000000
00003fffffffffff0ffff0000000000000
00003fffffffffff0ffff0000000000000
00007ffffffffffe1fffe0000000000000
00007ffffffffffe1fffe0000000000000
00007ffffffffffe1fffe0000000000000
0000fffffffffffc3fffc0000000000000
0000fffffffffffc3fffc0000000000000
0000000000000000000000000000000000
0000000000000000000000000000000000
0000000000000000000000000000000000
0000000000000000000000000000000000
0000000000000000000000000000000000
0000000000000000000000000000000000
0000000000000000000000000000000000
0000000000000000000000000000000000
0000000000000000000000000000000000
0000000000000000000000000000000000
0000000000000000000000000000000000
0000000000000000000000000000000000
0000000000000000000000000000000000
0000000000000000000000000000000000
0000000000000000000000000000000000
0000000000000000000000000000000000
0000000000000000000000000000000000
0000000000000000000000000000000000
0000000000000000000000000000000000
0000000000000000000000000000000000
ENDCHAR
STARTCHAR U+00F8
ENCODING 248
SWIDTH 1000 0
DWIDTH 100 0
BBX 133 100 -16 -20
BITMAP
0000000000000000000000000000000000
0000000000000000000000000000000000
0000000000000000000000000000000000
0000000000000000000000000000000000
0000000000000000000000000000000000
0000000000000000000000000000000000
0000000000000000000000000000000000
0000000000000000000000000000000000
0000000000000000000000000000000000
0000000000000000000000000000000000
0000000000000000000000000000000000
0000000000000000000000000000000000
0000000000000000000000000000000000
0000000000000000000000000000000000
0000000000000000000000000000000000
0000000000000000000000000000000000
0000000000000000000000000000000000
0000000000000000000000000000000000
0000000000000000000000000000000000
0000000000000000000000000000000000
0000000000000000000003fffc00000000
0000000000000000000007fff800000000
0000000000000000000007fff800000000
0000000000000000000007fff800000000
000000000000000000000ffff000000000
000000000000000000000ffff000000000
000000000000000000000ffff000000000
000000000000000000001fffe000000000
000000000000000000001fffe000000000
000000000000000000001fffe000000000
00000000ffffffffffffff000000000000
00000000ffffffffffffff000000000000
00000000ffffffffffffff000000000000
00000001fffffffffffffe000000000000
00000001fffffffffffffe000000000000
00000001fffffffffffffe000000000000
00000003fffffffffffffc000000000000
00000003fffffffffffffc000000000000
00000003fffffffffffffc000000000000
00000007fffffffffffff8000000000000
00001fffe000001fffe1fffe0000000000
00001fffe000001fffe1fffe0000000000
00003fffc000003fffc3fffc0000000000
00003fffc000003fffc3fffc0000000000
00003fffc000003fffc3fffc0000000000
00007fff8000007fff87fff80000000000
00007fff8000007fff87fff80000000000
00007fff8000007fff87fff80000000000
0000ffff000000ffff0ffff00000000000
0000ffff000000ffff0ffff00000000000
0000ffff0003fffc000ffff00000000000
0001fffe0007fff8001fffe00000000000
0001fffe0007fff8001fffe00000000000
0001fffe0007fff8001fffe00000000000
0003fffc000ffff0003fffc00000000000
0003fffc000ffff0003fffc00000000000
0003fffc000ffff0003fffc00000000000
0007fff8001fffe0007fff800000000000
0007fff8001fffe0007fff800000000000
0007fff8001fffe0007fff800000000000
000ffff0ffff000000ffff000000000000
000ffff0ffff000000ffff000000000000
000ffff0ffff000000ffff000000000000
001fffe1fffe000001fffe000000000000
001fffe1fffe000001fffe000000000000
001fffe1fffe000001fffe000000000000
003fffc3fffc000003fffc000000000000
003fffc3fffc000003fffc000000000000
003fffc3fffc000003fffc000000000000
007fff87fff8000007fff8000000000000
00001fffffffffffffe000000000000000
00001fffffffffffffe000000000000000
00003fffffffffffffc000000000000000
00003fffffffffffffc000000000000000
00003fffffffffffffc000000000000000
00007fffffffffffff8000000000000000
00007fffffffffffff8000000000000000
00007fffffffffffff8000000000000000
0000ffffffffffffff0000000000000000
0000ffffffffffffff0000000000000000
03fffc0000000000000000000000000000
07fff80000000000000000000000000000
07fff80000000000000000000000000000
07fff80000000000000000000000000000
0ffff00000000000000000000000000000
0ffff00000000000000000000000000000
0ffff00000000000000000000000000000
1fffe00000000000000000000000000000
1fffe00000000000000000000000000000
1fffe00000000000000000000000000000
0000000000000000000000000000000000
0000000000000000000000000000000000
0000000000000000000000000000000000
0000000000000000000000000000000000
0000000000000000000000000000000000
0000000000000000000000000000000000
0000000000000000000000000000000000
0000000000000000000000000000000000
0000000000000000000000000000000000
0000000000000000000000000000000000
ENDCHAR
STARTCHAR U+0153
ENCODING 339
SWIDTH 1000 0
DWIDTH 100 0
BBX 133 100 -16 -20
BITMAP
0000000000000000000000000000000000
0000000000000000000000000000000000
0000000000000000000000000000000000
0000000000000000000000000000000000
0000000000000000000000000000000000
0000000000000000000000000000000000
0000000000000000000000000000000000
0000000000000000000000000000000000
0000000000000000000000000000000000
0000000000000000000000000000000000
0000000000000000000000000000000000
0000000000000000000000000000000000
0000000000000000000000000000000000
0000000000000000000000000000000000
0000000000000000000000000000000000
0000000000000000000000000000000000
0000000000000000000000000000000000
0000000000000000000000000000000000
0000000000000000000000000000000000
0000000000000000000000000000000000
0000000000000000000000000000000000
0000000000000000000000000000000000
0000000000000000000000000000000000
0000000000000000000000000000000000
0000000000000000000000000000000000
0000000000000000000000000000000000
0000000000000000000000000000000000
0000000000000000000000000000000000
0000000000000000000000000000000000
0000000000000000000000000000000000
00000000ffffffc3ffffff000000000000
00000000ffffffc3ffffff000000000000
00000000ffffffc3ffffff000000000000
00000001ffffff87fffffe000000000000
00000001ffffff87fffffe000000000000
00000001ffffff87fffffe000000000000
00000003ffffff0ffffffc000000000000
00000003ffffff0ffffffc000000000000
00000003ffffff0ffffffc000000000000
00000007fffffe1ffffff8000000000000
00001fffe0007fff8001fffe0000000000
00001fffe0007fff8001fffe0000000000
00003fffc000ffff0003fffc0000000000
00003fffc000ffff0003fffc0000000000
00003fffc000ffff0003fffc0000000000
00007fff8001fffe0007fff80000000000
00007fff8001fffe0007fff80000000000
00007fff8001fffe0007fff80000000000
0000ffff0003fffc000ffff00000000000
0000ffff0003fffc000ffff00000000000
0000ffff0003fffffffffff00000000000
0001fffe0007ffffffffffe00000000000
0001fffe0007ffffffffffe00000000000
0001fffe0007ffffffffffe00000000000
0003fffc000fffffffffffc00000000000
0003fffc000fffffffffffc00000000000
0003fffc000fffffffffffc00000000000
0007fff8001fffffffffff800000000000
0007fff8001fffffffffff800000000000
0007fff8001fffffffffff800000000000
000ffff0003fffc0000000000000000000
000ffff0003fffc0000000000000000000
000ffff0003fffc0000000000000000000
001fffe0007fff80000000000000000000
001fffe0007fff80000000000000000000
001fffe0007fff80000000000000000000
003fffc000ffff00000000000000000000
003fffc000ffff00000000000000000000
003fffc000ffff00000000000000000000
007fff8001fffe00000000000000000000
00001ffffff87ffffffff8000000000000
00001ffffff87ffffffff8000000000000
00003ffffff0fffffffff0000000000000
00003ffffff0fffffffff0000000000000
00003ffffff0fffffffff0000000000000
00007fffffe1ffffffffe0000000000000
00007fffffe1ffffffffe0000000000000
00007fffffe1ffffffffe0000000000000
0000ffffffc3ffffffffc0000000000000
0000ffffffc3ffffffffc0000000000000
0000000000000000000000000000000000
0000000000000000000000000000000000
0000000000000000000000000000000000
0000000000000000000000000000000000
0000000000000000000000000000000000
0000000000000000000000000000000000
0000000000000000000000000000000000
0000000000000000000000000000000000
0000000000000000000000000000000000
0000000000000000000000000000000000
0000000000000000000000000000000000
0000000000000000000000000000000000
0000000000000000000000000000000000
0000000000000000000000000000000000
0000000000000000000000000000000000
0000000000000000000000000000000000
0000000000000000000000000000000000
0000000000000000000000000000000000
0000000000000000000000000000000000
0000000000000000000000000000000000
ENDCHAR
STARTCHAR U+00F6
ENCODING 246
SWIDTH 1000 0
DWIDTH 100 0
BBX 133 100 -16 -20
BITMAP
0000000000000000000000000000000000
0000000000000000000000000000000000
0000000000000000000000000000000000
0000000000000000000000000000000000
0000000000000000000000000000000000
0000000000000000000000000000000000
0000000000000000000000000000000000
0000000000000000000000000000000000
0000000000000000000000000000000000
0000000000000000000000000000000000
0000000001fffe000001fffe0000000000
0000000001fffe000001fffe0000000000
0000000003fffc000003fffc0000000000
0000000003fffc000003fffc0000000000
0000000003fffc000003fffc0000000000
0000000007fff8000007fff80000000000
0000000007fff8000007fff80000000000
0000000007fff8000007fff80000000000
000000000ffff000000ffff00000000000
000000000ffff000000ffff00000000000
0000000000000000000000000000000000
0000000000000000000000000000000000
0000000000000000000000000000000000
0000000000000000000000000000000000
0000000000000000000000000000000000
0000000000000000000000000000000000
0000000000000000000000000000000000
0000000000000000000000000000000000
0000000000000000000000000000000000
0000000000000000000000000000000000
00000000ffffffffffffff000000000000
00000000ffffffffffffff000000000000
00000000ffffffffffffff000000000000
00000001fffffffffffffe000000000000
00000001fffffffffffffe000000000000
00000001fffffffffffffe000000000000
00000003fffffffffffffc000000000000
00000003fffffffffffffc000000000000
00000003fffffffffffffc000000000000
00000007fffffffffffff8000000000000
00001fffe00000000001fffe0000000000
00001fffe00000000001fffe0000000000
00003fffc00000000003fffc0000000000
00003fffc00000000003fffc0000000000
00003fffc00000000003fffc0000000000
00007fff800000000007fff80000000000
00007fff800000000007fff80000000000
00007fff800000000007fff80000000000
0000ffff00000000000ffff00000000000
0000ffff00000000000ffff00000000000
0000ffff00000000000ffff00000000000
0001fffe00000000001fffe00000000000
0001fffe00000000001fffe00000000000
0001fffe00000000001fffe00000000000
0003fffc00000000003fffc00000000000
0003fffc00000000003fffc00000000000
0003fffc00000000003fffc00000000000
0007fff800000000007fff800000000000
0007fff800000000007fff800000000000
0007fff800000000007fff800000000000
000ffff00000000000ffff000000000000
000ffff00000000000ffff000000000000
000ffff00000000000ffff000000000000
001fffe00000000001fffe000000000000
001fffe00000000001fffe000000000000
001fffe00000000001fffe000000000000
003fffc00000000003fffc000000000000
003fffc00000000003fffc000000000000
003fffc00000000003fffc000000000000
007fff800000000007fff8000000000000
00001fffffffffffffe000000000000000
00001fffffffffffffe000000000000000
00003fffffffffffffc000000000000000
00003fffffffffffffc000000000000000
00003fffffffffffffc000000000000000
00007fffffffffffff8000000000000000
00007fffffffffffff8000000000000000
00007fffffffffffff8000000000000000
0000ffffffffffffff0000000000000000
0000ffffffffffffff0000000000000000
0000000000000000000000000000000000
0000000000000000000000000000000000
0000000000000000000000000000000000
0000000000000000000000000000000000
0000000000000000000000000000000000
0000000000000000000000000000000000
0000000000000000000000000000000000
0000000000000000000000000000000000
0000000000000000000000000000000000
0000000000000000000000000000000000
0000000000000000000000000000000000
0000000000000000000000000000000000
0000000000000000000000000000000000
0000000000000000000000000000000000
0000000000000000000000000000000000
0000000000000000000000000000000000
0000000000000000000000000000000000
0000000000000000000000000000000000
0000000000000000000000000000000000
0000000000000000000000000000000000
ENDCHAR
STARTCHAR U+00F5
ENCODING 245
SWIDTH 1000 0
DWIDTH 100 0
BBX 133 100 -16 -20
BITMAP
00000000003ffffff0003fffc000000000
00000000003ffffff0003fffc000000000
00000000003ffffff0003fffc000000000
00000000007fffffe0007fff8000000000
00000000007fffffe0007fff8000000000
00000000007fffffe0007fff8000000000
0000000000ffffffc000ffff0000000000
0000000000ffffffc000ffff0000000000
0000000000ffffffc000ffff0000000000
0000000001ffffff8001fffe0000000000
00000007fff8001ffffff8000000000000
00000007fff8001ffffff8000000000000
0000000ffff0003ffffff0000000000000
0000000ffff0003ffffff0000000000000
0000000ffff0003ffffff0000000000000
0000001fffe0007fffffe0000000000000
0000001fffe0007fffffe0000000000000
0000001fffe0007fffffe0000000000000
0000003fffc000ffffffc0000000000000
0000003fffc000ffffffc0000000000000
0000000000000000000000000000000000
0000000000000000000000000000000000
0000000000000000000000000000000000
0000000000000000000000000000000000
0000000000000000000000000000000000
0000000000000000000000000000000000
0000000000000000000000000000000000
0000000000000000000000000000000000
0000000000000000000000000000000000
0000000000000000000000000000000000
00000000ffffffffffffff000000000000
00000000ffffffffffffff000000000000
00000000ffffffffffffff000000000000
00000001fffffffffffffe000000000000
00000001fffffffffffffe000000000000
00000001fffffffffffffe000000000000
00000003fffffffffffffc000000000000
00000003fffffffffffffc000000000000
00000003fffffffffffffc000000000000
00000007fffffffffffff8000000000000
00001fffe00000000001fffe0000000000
00001fffe00000000001fffe0000000000
00003fffc00000000003fffc0000000000
00003fffc00000000003fffc0000000000
00003fffc00000000003fffc0000000000
00007fff800000000007fff80000000000
00007fff800000000007fff80000000000
00007fff800000000007fff80000000000
0000ffff00000000000ffff00000000000
0000ffff00000000000ffff00000000000
0000ffff00000000000ffff00000000000
0001fffe00000000001fffe00000000000
0001fffe00000000001fffe00000000000
0001fffe00000000001fffe00000000000
0003fffc00000000003fffc00000000000
0003fffc00000000003fffc00000000000
0003fffc00000000003fffc00000000000
0007fff800000000007fff800000000000
0007fff800000000007fff800000000000
0007fff800000000007fff800000000000
000ffff00000000000ffff000000000000
000ffff00000000000ffff000000000000
000ffff00000000000ffff000000000000
001fffe00000000001fffe000000000000
001fffe00000000001fffe000000000000
001fffe00000000001fffe000000000000
003fffc00000000003fffc000000000000
003fffc00000000003fffc000000000000
003fffc00000000003fffc000000000000
007fff800000000007fff8000000000000
00001fffffffffffffe000000000000000
00001fffffffffffffe000000000000000
00003fffffffffffffc000000000000000
00003fffffffffffffc000000000000000
00003fffffffffffffc000000000000000
00007fffffffffffff8000000000000000
00007fffffffffffff8000000000000000
00007fffffffffffff8000000000000000
0000ffffffffffffff0000000000000000
0000ffffffffffffff0000000000000000
0000000000000000000000000000000000
0000000000000000000000000000000000
0000000000000000000000000000000000
0000000000000000000000000000000000
0000000000000000000000000000000000
0000000000000000000000000000000000
0000000000000000000000000000000000
0000000000000000000000000000000000
0000000000000000000000000000000000
0000000000000000000000000000000000
0000000000000000000000000000000000
0000000000000000000000000000000000
0000000000000000000000000000000000
0000000000000000000000000000000000
0000000000000000000000000000000000
0000000000000000000000000000000000
0000000000000000000000000000000000
0000000000000000000000000000000000
0000000000000000000000000000000000
0000000000000000000000000000000000
ENDCHAR
STARTCHAR U+00F4
ENCODING 244
SWIDTH 1000 0
DWIDTH 100 0
BBX 133 100 -16 -20
BITMAP
0000000000000fffffffff000000000000
0000000000000fffffffff000000000000
0000000000000fffffffff000000000000
0000000000001ffffffffe000000000000
0000000000001ffffffffe000000000000
0000000000001ffffffffe000000000000
0000000000003ffffffffc000000000000
0000000000003ffffffffc000000000000
0000000000003ffffffffc000000000000
0000000000007ffffffff8000000000000
0000000001fffe000001fffe0000000000
0000000001fffe000001fffe0000000000
0000000003fffc000003fffc0000000000
0000000003fffc000003fffc0000000000
0000000003fffc000003fffc0000000000
0000000007fff8000007fff80000000000
0000000007fff8000007fff80000000000
0000000007fff8000007fff80000000000
000000000ffff000000ffff00000000000
000000000ffff000000ffff00000000000
0000000000000000000000000000000000
0000000000000000000000000000000000
0000000000000000000000000000000000
0000000000000000000000000000000000
0000000000000000000000000000000000
0000000000000000000000000000000000
0000000000000000000000000000000000
0000000000000000000000000000000000
0000000000000000000000000000000000
0000000000000000000000000000000000
00000000ffffffffffffff000000000000
00000000ffffffffffffff000000000000
00000000ffffffffffffff000000000000
00000001fffffffffffffe000000000000
00000001fffffffffffffe000000000000
00000001fffffffffffffe000000000000
00000003fffffffffffffc000000000000
00000003fffffffffffffc000000000000
00000003fffffffffffffc000000000000
00000007fffffffffffff8000000000000
00001fffe00000000001fffe0000000000
00001fffe00000000001fffe0000000000
00003fffc00000000003fffc0000000000
00003fffc00000000003fffc0000000000
00003fffc00000000003fffc0000000000
00007fff800000000007fff80000000000
00007fff800000000007fff80000000000
00007fff800000000007fff80000000000
0000ffff00000000000ffff00000000000
0000ffff00000000000ffff00000000000
0000ffff00000000000ffff00000000000
0001fffe00000000001fffe00000000000
0001fffe00000000001fffe00000000000
0001fffe00000000001fffe00000000000
0003fffc00000000003fffc00000000000
0003fffc00000000003fffc00000000000
0003fffc00000000003fffc00000000000
0007fff800000000007fff800000000000
0007fff800000000007fff800000000000
0007fff800000000007fff800000000000
000ffff00000000000ffff000000000000
000ffff00000000000ffff000000000000
000ffff00000000000ffff000000000000
001fffe00000000001fffe000000000000
001fffe00000000001fffe000000000000
001fffe00000000001fffe000000000000
003fffc00000000003fffc000000000000
003fffc00000000003fffc000000000000
003fffc00000000003fffc000000000000
007fff800000000007fff8000000000000
00001fffffffffffffe000000000000000
00001fffffffffffffe000000000000000
00003fffffffffffffc000000000000000
00003fffffffffffffc000000000000000
00003fffffffffffffc000000000000000
00007fffffffffffff8000000000000000
00007fffffffffffff8000000000000000
00007fffffffffffff8000000000000000
0000ffffffffffffff0000000000000000
0000ffffffffffffff0000000000000000
0000000000000000000000000000000000
0000000000000000000000000000000000
0000000000000000000000000000000000
0000000000000000000000000000000000
0000000000000000000000000000000000
0000000000000000000000000000000000
0000000000000000000000000000000000
0000000000000000000000000000000000
0000000000000000000000000000000000
0000000000000000000000000000000000
0000000000000000000000000000000000
0000000000000000000000000000000000
0000000000000000000000000000000000
0000000000000000000000000000000000
0000000000000000000000000000000000
0000000000000000000000000000000000
0000000000000000000000000000000000
0000000000000000000000000000000000
0000000000000000000000000000000000
0000000000000000000000000000000000
ENDCHAR
STARTCHAR U+00F3
ENCODING 243
SWIDTH 1000 0
DWIDTH 100 0
BBX 133 100 -16 -20
BITMAP
0000000000000000000000000000000000
0000000000000000000000000000000000
0000000000000000000000000000000000
0000000000000000000000000000000000
0000000000000000000000000000000000
0000000000000000000000000000000000
0000000000000000000000000000000000
0000000000000000000000000000000000
0000000000000000000000000000000000
0000000000000000000000000000000000
000000000000001ffffff8000000000000
000000000000001ffffff8000000000000
000000000000003ffffff0000000000000
000000000000003ffffff0000000000000
000000000000003ffffff0000000000000
000000000000007fffffe0000000000000
000000000000007fffffe0000000000000
000000000000007fffffe0000000000000
00000000000000ffffffc0000000000000
00000000000000ffffffc0000000000000
000000000ffffffc000000000000000000
000000001ffffff8000000000000000000
000000001ffffff8000000000000000000
000000001ffffff8000000000000000000
000000003ffffff0000000000000000000
000000003ffffff0000000000000000000
000000003ffffff0000000000000000000
000000007fffffe0000000000000000000
000000007fffffe0000000000000000000
000000007fffffe0000000000000000000
00000000ffffffffffffff000000000000
00000000ffffffffffffff000000000000
00000000ffffffffffffff000000000000
00000001fffffffffffffe000000000000
00000001fffffffffffffe000000000000
00000001fffffffffffffe000000000000
00000003fffffffffffffc000000000000
00000003fffffffffffffc000000000000
00000003fffffffffffffc000000000000
00000007fffffffffffff8000000000000
00001fffe00000000001fffe0000000000
00001fffe00000000001fffe0000000000
00003fffc00000000003fffc0000000000
00003fffc00000000003fffc0000000000
00003fffc00000000003fffc0000000000
00007fff800000000007fff80000000000
00007fff800000000007fff80000000000
00007fff800000000007fff80000000000
0000ffff00000000000ffff00000000000
0000ffff00000000000ffff00000000000
0000ffff00000000000ffff00000000000
0001fffe00000000001fffe00000000000
0001fffe00000000001fffe00000000000
0001fffe00000000001fffe00000000000
0003fffc00000000003fffc00000000000
0003fffc00000000003fffc00000000000
0003fffc00000000003fffc00000000000
0007fff800000000007fff800000000000
0007fff800000000007fff800000000000
0007fff800000000007fff800000000000
000ffff00000000000ffff000000000000
000ffff00000000000ffff000000000000
000ffff00000000000ffff000000000000
001fffe00000000001fffe000000000000
001fffe00000000001fffe000000000000
001fffe00000000001fffe000000000000
003fffc00000000003fffc000000000000
003fffc00000000003fffc000000000000
003fffc00000000003fffc000000000000
007fff800000000007fff8000000000000
00001fffffffffffffe000000000000000
00001fffffffffffffe000000000000000
00003fffffffffffffc000000000000000
00003fffffffffffffc000000000000000
00003fffffffffffffc000000000000000
00007fffffffffffff8000000000000000
00007fffffffffffff8000000000000000
00007fffffffffffff8000000000000000
0000ffffffffffffff0000000000000000
0000ffffffffffffff0000000000000000
0000000000000000000000000000000000
0000000000000000000000000000000000
0000000000000000000000000000000000
0000000000000000000000000000000000
0000000000000000000000000000000000
0000000000000000000000000000000000
0000000000000000000000000000000000
0000000000000000000000000000000000
0000000000000000000000000000000000
0000000000000000000000000000000000
0000000000000000000000000000000000
0000000000000000000000000000000000
0000000000000000000000000000000000
0000000000000000000000000000000000
0000000000000000000000000000000000
0000000000000000000000000000000000
0000000000000000000000000000000000
0000000000000000000000000000000000
0000000000000000000000000000000000
0000000000000000000000000000000000
ENDCHAR
STARTCHAR U+00F2
ENCODING 242
SWIDTH 1000 0
DWIDTH 100 0
BBX 133 100 -16 -20
BITMAP
0000000000000000000000000000000000
0000000000000000000000000000000000
0000000000000000000000000000000000
0000000000000000000000000000000000
0000000000000000000000000000000000
0000000000000000000000000000000000
0000000000000000000000000000000000
0000000000000000000000000000000000
0000000000000000000000000000000000
0000000000000000000000000000000000
0000000000007fffffe000000000000000
0000000000007fffffe000000000000000
000000000000ffffffc000000000000000
000000000000ffffffc000000000000000
000000000000ffffffc000000000000000
000000000001ffffff8000000000000000
000000000001ffffff8000000000000000
000000000001ffffff8000000000000000
000000000003ffffff0000000000000000
000000000003ffffff0000000000000000
00000000000000003ffffff00000000000
00000000000000007fffffe00000000000
00000000000000007fffffe00000000000
00000000000000007fffffe00000000000
0000000000000000ffffffc00000000000
0000000000000000ffffffc00000000000
0000000000000000ffffffc00000000000
0000000000000001ffffff800000000000
0000000000000001ffffff800000000000
0000000000000001ffffff800000000000
00000000ffffffffffffff000000000000
00000000ffffffffffffff000000000000
00000000ffffffffffffff000000000000
00000001fffffffffffffe000000000000
00000001fffffffffffffe000000000000
00000001fffffffffffffe000000000000
00000003fffffffffffffc000000000000
00000003fffffffffffffc000000000000
00000003fffffffffffffc000000000000
00000007fffffffffffff8000000000000
00001fffe00000000001fffe0000000000
00001fffe00000000001fffe0000000000
00003fffc00000000003fffc0000000000
00003fffc00000000003fffc0000000000
00003fffc00000000003fffc0000000000
00007fff800000000007fff80000000000
00007fff800000000007fff80000000000
00007fff800000000007fff80000000000
0000ffff00000000000ffff00000000000
0000ffff00000000000ffff00000000000
0000ffff00000000000ffff00000000000
0001fffe00000000001fffe00000000000
0001fffe00000000001fffe00000000000
0001fffe00000000001fffe00000000000
0003fffc00000000003fffc00000000000
0003fffc00000000003fffc00000000000
0003fffc00000000003fffc00000000000
0007fff800000000007fff800000000000
0007fff800000000007fff800000000000
0007fff800000000007fff800000000000
000ffff00000000000ffff000000000000
000ffff00000000000ffff000000000000
000ffff00000000000ffff000000000000
001fffe00000000001fffe000000000000
001fffe00000000001fffe000000000000
001fffe00000000001fffe000000000000
003fffc00000000003fffc000000000000
003fffc00000000003fffc000000000000
003fffc00000000003fffc000000000000
007fff800000000007fff8000000000000
00001fffffffffffffe000000000000000
00001fffffffffffffe000000000000000
00003fffffffffffffc000000000000000
00003fffffffffffffc000000000000000
00003fffffffffffffc000000000000000
00007fffffffffffff8000000000000000
00007fffffffffffff8000000000000000
00007fffffffffffff8000000000000000
0000ffffffffffffff0000000000000000
0000ffffffffffffff0000000000000000
0000000000000000000000000000000000
0000000000000000000000000000000000
0000000000000000000000000000000000
0000000000000000000000000000000000
0000000000000000000000000000000000
0000000000000000000000000000000000
0000000000000000000000000000000000
0000000000000000000000000000000000
0000000000000000000000000000000000
0000000000000000000000000000000000
0000000000000000000000000000000000
0000000000000000000000000000000000
0000000000000000000000000000000000
0000000000000000000000000000000000
0000000000000000000000000000000000
0000000000000000000000000000000000
0000000000000000000000000000000000
0000000000000000000000000000000000
0000000000000000000000000000000000
0000000000000000000000000000000000
ENDCHAR
STARTCHAR U+00F1
ENCODING 241
SWIDTH 1000 0
DWIDTH 100 0
BBX 133 100 -16 -20
BITMAP
00000000003ffffff0003fffc000000000
00000000003ffffff0003fffc000000000
00000000003ffffff0003fffc000000000
00000000007fffffe0007fff8000000000
00000000007fffffe0007fff8000000000
00000000007fffffe0007fff8000000000
0000000000ffffffc000ffff0000000000
0000000000ffffffc000ffff0000000000
0000000000ffffffc000ffff0000000000
0000000001ffffff8001fffe0000000000
00000007fff8001ffffff8000000000000
00000007fff8001ffffff8000000000000
0000000ffff0003ffffff0000000000000
0000000ffff0003ffffff0000000000000
0000000ffff0003ffffff0000000000000
0000001fffe0007fffffe0000000000000
0000001fffe0007fffffe0000000000000
0000001fffe0007fffffe0000000000000
0000003fffc000ffffffc0000000000000
0000003fffc000ffffffc0000000000000
0000000000000000000000000000000000
0000000000000000000000000000000000
0000000000000000000000000000000000
0000000000000000000000000000000000
0000000000000000000000000000000000
0000000000000000000000000000000000
0000000000000000000000000000000000
0000000000000000000000000000000000
0000000000000000000000000000000000
0000000000000000000000000000000000
000003fffc3fffffffffff000000000000
000003fffc3fffffffffff000000000000
000003fffc3fffffffffff000000000000
000007fff87ffffffffffe000000000000
000007fff87ffffffffffe000000000000
000007fff87ffffffffffe000000000000
00000ffff0fffffffffffc000000000000
00000ffff0fffffffffffc000000000000
00000ffff0fffffffffffc000000000000
00001fffe1fffffffffff8000000000000
00001ffffff800000001fffe0000000000
00001ffffff800000001fffe0000000000
00003ffffff000000003fffc0000000000
00003ffffff000000003fffc0000000000
00003ffffff000000003fffc0000000000
00007fffffe000000007fff80000000000
00007fffffe000000007fff80000000000
00007fffffe000000007fff80000000000
0000ffffffc00000000ffff00000000000
0000ffffffc00000000ffff00000000000
0000ffff00000000000ffff00000000000
0001fffe00000000001fffe00000000000
0001fffe00000000001fffe00000000000
0001fffe00000000001fffe00000000000
0003fffc00000000003fffc00000000000
0003fffc00000000003fffc00000000000
0003fffc00000000003fffc00000000000
0007fff800000000007fff800000000000
0007fff800000000007fff800000000000
0007fff800000000007fff800000000000
000ffff00000000000ffff000000000000
000ffff00000000000ffff000000000000
000ffff00000000000ffff000000000000
001fffe00000000001fffe000000000000
001fffe00000000001fffe000000000000
001fffe00000000001fffe000000000000
003fffc00000000003fffc000000000000
003fffc00000000003fffc000000000000
003fffc00000000003fffc000000000000
007fff800000000007fff8000000000000
007fff800000000007fff8000000000000
007fff800000000007fff8000000000000
00ffff00000000000ffff0000000000000
00ffff00000000000ffff0000000000000
00ffff00000000000ffff0000000000000
01fffe00000000001fffe0000000000000
01fffe00000000001fffe0000000000000
01fffe00000000001fffe0000000000000
03fffc00000000003fffc0000000000000
03fffc00000000003fffc0000000000000
0000000000000000000000000000000000
0000000000000000000000000000000000
0000000000000000000000000000000000
0000000000000000000000000000000000
0000000000000000000000000000000000
0000000000000000000000000000000000
0000000000000000000000000000000000
0000000000000000000000000000000000
0000000000000000000000000000000000
0000000000000000000000000000000000
0000000000000000000000000000000000
0000000000000000000000000000000000
0000000000000000000000000000000000
0000000000000000000000000000000000
0000000000000000000000000000000000
0000000000000000000000000000000000
0000000000000000000000000000000000
0000000000000000000000000000000000
0000000000000000000000000000000000
0000000000000000000000000000000000
ENDCHAR
STARTCHAR U+00F0
ENCODING 240
SWIDTH 1000 0
DWIDTH 100 0
BBX 133 100 -16 -20
BITMAP
0000000000000003fffc000ffff0000000
0000000000000003fffc000ffff0000000
0000000000000003fffc000ffff0000000
0000000000000007fff8001fffe0000000
0000000000000007fff8001fffe0000000
0000000000000007fff8001fffe0000000
000000000000000ffff0003fffc0000000
000000000000000ffff0003fffc0000000
000000000000000ffff0003fffc0000000
000000000000001fffe0007fff80000000
000000000000000007fffffe0000000000
000000000000000007fffffe0000000000
00000000000000000ffffffc0000000000
00000000000000000ffffffc0000000000
00000000000000000ffffffc0000000000
00000000000000001ffffff80000000000
00000000000000001ffffff80000000000
00000000000000001ffffff80000000000
00000000000000003ffffff00000000000
00000000000000003ffffff00000000000
00000000000000ffff0003fffc00000000
00000000000001fffe0007fff800000000
00000000000001fffe0007fff800000000
00000000000001fffe0007fff800000000
00000000000003fffc000ffff000000000
00000000000003fffc000ffff000000000
00000000000003fffc000ffff000000000
00000000000007fff8001fffe000000000
00000000000007fff8001fffe000000000
00000000000007fff8001fffe000000000
00000000fffffffffffc3fffc000000000
00000000fffffffffffc3fffc000000000
00000000fffffffffffc3fffc000000000
00000001fffffffffff87fff8000000000
00000001fffffffffff87fff8000000000
00000001fffffffffff87fff8000000000
00000003fffffffffff0ffff0000000000
00000003fffffffffff0ffff0000000000
00000003fffffffffff0ffff0000000000
00000007ffffffffffe1fffe0000000000
00001fffe000000007fffffe0000000000
00001fffe000000007fffffe0000000000
00003fffc00000000ffffffc0000000000
00003fffc00000000ffffffc0000000000
00003fffc00000000ffffffc0000000000
00007fff800000001ffffff80000000000
00007fff800000001ffffff80000000000
00007fff800000001ffffff80000000000
0000ffff000000003ffffff00000000000
0000ffff000000003ffffff00000000000
0000ffff00000000000ffff00000000000
0001fffe00000000001fffe00000000000
0001fffe00000000001fffe00000000000
0001fffe00000000001fffe00000000000
0003fffc00000000003fffc00000000000
0003fffc00000000003fffc00000000000
0003fffc00000000003fffc00000000000
0007fff800000000007fff800000000000
0007fff800000000007fff800000000000
0007fff800000000007fff800000000000
000ffff000000003fffc00000000000000
000ffff000000003fffc00000000000000
000ffff000000003fffc00000000000000
001fffe000000007fff800000000000000
001fffe000000007fff800000000000000
001fffe000000007fff800000000000000
003fffc00000000ffff000000000000000
003fffc00000000ffff000000000000000
003fffc00000000ffff000000000000000
007fff800000001fffe000000000000000
00001fffffffffff800000000000000000
00001fffffffffff800000000000000000
00003fffffffffff000000000000000000
00003fffffffffff000000000000000000
00003fffffffffff000000000000000000
00007ffffffffffe000000000000000000
00007ffffffffffe000000000000000000
00007ffffffffffe000000000000000000
0000fffffffffffc000000000000000000
0000fffffffffffc000000000000000000
0000000000000000000000000000000000
0000000000000000000000000000000000
0000000000000000000000000000000000
0000000000000000000000000000000000
0000000000000000000000000000000000
0000000000000000000000000000000000
0000000000000000000000000000000000
0000000000000000000000000000000000
0000000000000000000000000000000000
0000000000000000000000000000000000
0000000000000000000000000000000000
0000000000000000000000000000000000
0000000000000000000000000000000000
0000000000000000000000000000000000
0000000000000000000000000000000000
0000000000000000000000000000000000
0000000000000000000000000000000000
0000000000000000000000000000000000
0000000000000000000000000000000000
0000000000000000000000000000000000
ENDCHAR
STARTCHAR U+00EF
ENCODING 239
SWIDTH 1000 0
DWIDTH 100 0
BBX 133 100 -16 -20
BITMAP
0000000000000000000000000000000000
0000000000000000000000000000000000
0000000000000000000000000000000000
0000000000000000000000000000000000
0000000000000000000000000000000000
0000000000000000000000000000000000
0000000000000000000000000000000000
0000000000000000000000000000000000
0000000000000000000000000000000000
0000000000000000000000000000000000
0000000001fffe000001fffe0000000000
0000000001fffe000001fffe0000000000
0000000003fffc000003fffc0000000000
0000000003fffc000003fffc0000000000
0000000003fffc000003fffc0000000000
0000000007fff8000007fff80000000000
0000000007fff8000007fff80000000000
0000000007fff8000007fff80000000000
000000000ffff000000ffff00000000000
000000000ffff000000ffff00000000000
0000000000000000000000000000000000
0000000000000000000000000000000000
0000000000000000000000000000000000
0000000000000000000000000000000000
0000000000000000000000000000000000
0000000000000000000000000000000000
0000000000000000000000000000000000
0000000000000000000000000000000000
0000000000000000000000000000000000
0000000000000000000000000000000000
00000000003ffffff00000000000000000
00000000003ffffff00000000000000000
00000000003ffffff00000000000000000
00000000007fffffe00000000000000000
00000000007fffffe00000000000000000
00000000007fffffe00000000000000000
0000000000ffffffc00000000000000000
0000000000ffffffc00000000000000000
0000000000ffffffc00000000000000000
0000000001ffffff800000000000000000
0000000000007fff800000000000000000
0000000000007fff800000000000000000
000000000000ffff000000000000000000
000000000000ffff000000000000000000
000000000000ffff000000000000000000
000000000001fffe000000000000000000
000000000001fffe000000000000000000
000000000001fffe000000000000000000
000000000003fffc000000000000000000
000000000003fffc000000000000000000
000000000003fffc000000000000000000
000000000007fff8000000000000000000
000000000007fff8000000000000000000
000000000007fff8000000000000000000
00000000000ffff0000000000000000000
00000000000ffff0000000000000000000
00000000000ffff0000000000000000000
00000000001fffe0000000000000000000
00000000001fffe0000000000000000000
00000000001fffe0000000000000000000
00000000003fffc0000000000000000000
00000000003fffc0000000000000000000
00000000003fffc0000000000000000000
00000000007fff80000000000000000000
00000000007fff80000000000000000000
00000000007fff80000000000000000000
0000000000ffff00000000000000000000
0000000000ffff00000000000000000000
0000000000ffff00000000000000000000
0000000001fffe00000000000000000000
00001fffffffffffffe000000000000000
00001fffffffffffffe000000000000000
00003fffffffffffffc000000000000000
00003fffffffffffffc000000000000000
00003fffffffffffffc000000000000000
00007fffffffffffff8000000000000000
00007fffffffffffff8000000000000000
00007fffffffffffff8000000000000000
0000ffffffffffffff0000000000000000
0000ffffffffffffff0000000000000000
0000000000000000000000000000000000
0000000000000000000000000000000000
0000000000000000000000000000000000
0000000000000000000000000000000000
0000000000000000000000000000000000
0000000000000000000000000000000000
0000000000000000000000000000000000
0000000000000000000000000000000000
0000000000000000000000000000000000
0000000000000000000000000000000000
0000000000000000000000000000000000
0000000000000000000000000000000000
0000000000000000000000000000000000
0000000000000000000000000000000000
0000000000000000000000000000000000
0000000000000000000000000000000000
0000000000000000000000000000000000
0000000000000000000000000000000000
0000000000000000000000000000000000
0000000000000000000000000000000000
ENDCHAR
STARTCHAR U+00EE
ENCODING 238
SWIDTH 1000 0
DWIDTH 100 0
BBX 133 100 -16 -20
BITMAP
0000000000000fffffffff000000000000
0000000000000fffffffff000000000000
0000000000000fffffffff000000000000
0000000000001ffffffffe000000000000
0000000000001ffffffffe000000000000
0000000000001ffffffffe000000000000
0000000000003ffffffffc000000000000
0000000000003ffffffffc000000000000
0000000000003ffffffffc000000000000
0000000000007ffffffff8000000000000
0000000001fffe000001fffe0000000000
0000000001fffe000001fffe0000000000
0000000003fffc000003fffc0000000000
0000000003fffc000003fffc0000000000
0000000003fffc000003fffc0000000000
0000000007fff8000007fff80000000000
0000000007fff8000007fff80000000000
0000000007fff8000007fff80000000000
000000000ffff000000ffff00000000000
000000000ffff000000ffff00000000000
0000000000000000000000000000000000
0000000000000000000000000000000000
0000000000000000000000000000000000
0000000000000000000000000000000000
0000000000000000000000000000000000
0000000000000000000000000000000000
0000000000000000000000000000000000
0000000000000000000000000000000000
0000000000000000000000000000000000
0000000000000000000000000000000000
00000000003ffffff00000000000000000
00000000003ffffff00000000000000000
00000000003ffffff00000000000000000
00000000007fffffe00000000000000000
00000000007fffffe00000000000000000
00000000007fffffe00000000000000000
0000000000ffffffc00000000000000000
0000000000ffffffc00000000000000000
0000000000ffffffc00000000000000000
0000000001ffffff800000000000000000
0000000000007fff800000000000000000
0000000000007fff800000000000000000
000000000000ffff000000000000000000
000000000000ffff000000000000000000
000000000000ffff000000000000000000
000000000001fffe000000000000000000
000000000001fffe000000000000000000
000000000001fffe000000000000000000
000000000003fffc000000000000000000
000000000003fffc000000000000000000
000000000003fffc000000000000000000
000000000007fff8000000000000000000
000000000007fff8000000000000000000
000000000007fff8000000000000000000
00000000000ffff0000000000000000000
00000000000ffff0000000000000000000
00000000000ffff0000000000000000000
00000000001fffe0000000000000000000
00000000001fffe0000000000000000000
00000000001fffe0000000000000000000
00000000003fffc0000000000000000000
00000000003fffc0000000000000000000
00000000003fffc0000000000000000000
00000000007fff80000000000000000000
00000000007fff80000000000000000000
00000000007fff80000000000000000000
0000000000ffff00000000000000000000
0000000000ffff00000000000000000000
0000000000ffff00000000000000000000
0000000001fffe00000000000000000000
00001fffffffffffffe000000000000000
00001fffffffffffffe000000000000000
00003fffffffffffffc000000000000000
00003fffffffffffffc000000000000000
00003fffffffffffffc000000000000000
00007fffffffffffff8000000000000000
00007fffffffffffff8000000000000000
00007fffffffffffff8000000000000000
0000ffffffffffffff0000000000000000
0000ffffffffffffff0000000000000000
0000000000000000000000000000000000
0000000000000000000000000000000000
0000000000000000000000000000000000
0000000000000000000000000000000000
0000000000000000000000000000000000
0000000000000000000000000000000000
0000000000000000000000000000000000
0000000000000000000000000000000000
0000000000000000000000000000000000
0000000000000000000000000000000000
0000000000000000000000000000000000
0000000000000000000000000000000000
0000000000000000000000000000000000
0000000000000000000000000000000000
0000000000000000000000000000000000
0000000000000000000000000000000000
0000000000000000000000000000000000
0000000000000000000000000000000000
0000000000000000000000000000000000
0000000000000000000000000000000000
ENDCHAR
STARTCHAR U+00ED
ENCODING 237
SWIDTH 1000 0
DWIDTH 100 0
BBX 133 100 -16 -20
BITMAP
0000000000000000000000000000000000
0000000000000000000000000000000000
0000000000000000000000000000000000
0000000000000000000000000000000000
0000000000000000000000000000000000
0000000000000000000000000000000000
0000000000000000000000000000000000
0000000000000000000000000000000000
0000000000000000000000000000000000
0000000000000000000000000000000000
000000000000001ffffff8000000000000
000000000000001ffffff8000000000000
000000000000003ffffff0000000000000
000000000000003ffffff0000000000000
000000000000003ffffff0000000000000
000000000000007fffffe0000000000000
000000000000007fffffe0000000000000
000000000000007fffffe0000000000000
00000000000000ffffffc0000000000000
00000000000000ffffffc0000000000000
000000000ffffffc000000000000000000
000000001ffffff8000000000000000000
000000001ffffff8000000000000000000
000000001ffffff8000000000000000000
000000003ffffff0000000000000000000
000000003ffffff0000000000000000000
000000003ffffff0000000000000000000
000000007fffffe0000000000000000000
000000007fffffe0000000000000000000
000000007fffffe0000000000000000000
00000000003ffffff00000000000000000
00000000003ffffff00000000000000000
00000000003ffffff00000000000000000
00000000007fffffe00000000000000000
00000000007fffffe00000000000000000
00000000007fffffe00000000000000000
0000000000ffffffc00000000000000000
0000000000ffffffc00000000000000000
0000000000ffffffc00000000000000000
0000000001ffffff800000000000000000
0000000000007fff800000000000000000
0000000000007fff800000000000000000
000000000000ffff000000000000000000
000000000000ffff000000000000000000
000000000000ffff000000000000000000
000000000001fffe000000000000000000
000000000001fffe000000000000000000
000000000001fffe000000000000000000
000000000003fffc000000000000000000
000000000003fffc000000000000000000
000000000003fffc000000000000000000
000000000007fff8000000000000000000
000000000007fff8000000000000000000
000000000007fff8000000000000000000
00000000000ffff0000000000000000000
00000000000ffff0000000000000000000
00000000000ffff0000000000000000000
00000000001fffe0000000000000000000
00000000001fffe0000000000000000000
00000000001fffe0000000000000000000
00000000003fffc0000000000000000000
00000000003fffc0000000000000000000
00000000003fffc0000000000000000000
00000000007fff80000000000000000000
00000000007fff80000000000000000000
00000000007fff80000000000000000000
0000000000ffff00000000000000000000
0000000000ffff00000000000000000000
0000000000ffff00000000000000000000
0000000001fffe00000000000000000000
00001fffffffffffffe000000000000000
00001fffffffffffffe000000000000000
00003fffffffffffffc000000000000000
00003fffffffffffffc000000000000000
00003fffffffffffffc000000000000000
00007fffffffffffff8000000000000000
00007fffffffffffff8000000000000000
00007fffffffffffff8000000000000000
0000ffffffffffffff0000000000000000
0000ffffffffffffff0000000000000000
0000000000000000000000000000000000
0000000000000000000000000000000000
0000000000000000000000000000000000
0000000000000000000000000000000000
0000000000000000000000000000000000
0000000000000000000000000000000000
0000000000000000000000000000000000
0000000000000000000000000000000000
0000000000000000000000000000000000
0000000000000000000000000000000000
0000000000000000000000000000000000
0000000000000000000000000000000000
0000000000000000000000000000000000
0000000000000000000000000000000000
0000000000000000000000000000000000
0000000000000000000000000000000000
0000000000000000000000000000000000
0000000000000000000000000000000000
0000000000000000000000000000000000
0000000000000000000000000000000000
ENDCHAR
STARTCHAR U+00EC
ENCODING 236
SWIDTH 1000 0
DWIDTH 100 0
BBX 133 100 -16 -20
BITMAP
0000000000000000000000000000000000
0000000000000000000000000000000000
0000000000000000000000000000000000
0000000000000000000000000000000000
0000000000000000000000000000000000
0000000000000000000000000000000000
0000000000000000000000000000000000
0000000000000000000000000000000000
0000000000000000000000000000000000
0000000000000000000000000000000000
0000000001ffffff800000000000000000
0000000001ffffff800000000000000000
0000000003ffffff000000000000000000
0000000003ffffff000000000000000000
0000000003ffffff000000000000000000
0000000007fffffe000000000000000000
0000000007fffffe000000000000000000
0000000007fffffe000000000000000000
000000000ffffffc000000000000000000
000000000ffffffc000000000000000000
00000000000000ffffffc0000000000000
00000000000001ffffff80000000000000
00000000000001ffffff80000000000000
00000000000001ffffff80000000000000
00000000000003ffffff00000000000000
00000000000003ffffff00000000000000
00000000000003ffffff00000000000000
00000000000007fffffe00000000000000
00000000000007fffffe00000000000000
00000000000007fffffe00000000000000
00000000003ffffff00000000000000000
00000000003ffffff00000000000000000
00000000003ffffff00000000000000000
00000000007fffffe00000000000000000
00000000007fffffe00000000000000000
00000000007fffffe00000000000000000
0000000000ffffffc00000000000000000
0000000000ffffffc00000000000000000
0000000000ffffffc00000000000000000
0000000001ffffff800000000000000000
0000000000007fff800000000000000000
0000000000007fff800000000000000000
000000000000ffff000000000000000000
000000000000ffff000000000000000000
000000000000ffff000000000000000000
000000000001fffe000000000000000000
000000000001fffe000000000000000000
000000000001fffe000000000000000000
000000000003fffc000000000000000000
000000000003fffc000000000000000000
000000000003fffc000000000000000000
000000000007fff8000000000000000000
000000000007fff8000000000000000000
000000000007fff8000000000000000000
00000000000ffff0000000000000000000
00000000000ffff0000000000000000000
00000000000ffff0000000000000000000
00000000001fffe0000000000000000000
00000000001fffe0000000000000000000
00000000001fffe0000000000000000000
00000000003fffc0000000000000000000
00000000003fffc0000000000000000000
00000000003fffc0000000000000000000
00000000007fff80000000000000000000
00000000007fff80000000000000000000
00000000007fff80000000000000000000
0000000000ffff00000000000000000000
0000000000ffff00000000000000000000
0000000000ffff00000000000000000000
0000000001fffe00000000000000000000
00001fffffffffffffe000000000000000
00001fffffffffffffe000000000000000
00003fffffffffffffc000000000000000
00003fffffffffffffc000000000000000
00003fffffffffffffc000000000000000
00007fffffffffffff8000000000000000
00007fffffffffffff8000000000000000
00007fffffffffffff8000000000000000
0000ffffffffffffff0000000000000000
0000ffffffffffffff0000000000000000
0000000000000000000000000000000000
0000000000000000000000000000000000
0000000000000000000000000000000000
0000000000000000000000000000000000
0000000000000000000000000000000000
0000000000000000000000000000000000
0000000000000000000000000000000000
0000000000000000000000000000000000
0000000000000000000000000000000000
0000000000000000000000000000000000
0000000000000000000000000000000000
0000000000000000000000000000000000
0000000000000000000000000000000000
0000000000000000000000000000000000
0000000000000000000000000000000000
0000000000000000000000000000000000
0000000000000000000000000000000000
0000000000000000000000000000000000
0000000000000000000000000000000000
0000000000000000000000000000000000
ENDCHAR
STARTCHAR U+00EB
ENCODING 235
SWIDTH 1000 0
DWIDTH 100 0
BBX 133 100 -16 -20
BITMAP
0000000000000000000000000000000000
0000000000000000000000000000000000
0000000000000000000000000000000000
0000000000000000000000000000000000
0000000000000000000000000000000000
0000000000000000000000000000000000
0000000000000000000000000000000000
0000000000000000000000000000000000
0000000000000000000000000000000000
0000000000000000000000000000000000
0000000001fffe000001fffe0000000000
0000000001fffe000001fffe0000000000
0000000003fffc000003fffc0000000000
0000000003fffc000003fffc0000000000
0000000003fffc000003fffc0000000000
0000000007fff8000007fff80000000000
0000000007fff8000007fff80000000000
0000000007fff8000007fff80000000000
000000000ffff000000ffff00000000000
000000000ffff000000ffff00000000000
0000000000000000000000000000000000
0000000000000000000000000000000000
0000000000000000000000000000000000
0000000000000000000000000000000000
0000000000000000000000000000000000
0000000000000000000000000000000000
0000000000000000000000000000000000
0000000000000000000000000000000000
0000000000000000000000000000000000
0000000000000000000000000000000000
00000000ffffffffffffff000000000000
00000000ffffffffffffff000000000000
00000000ffffffffffffff000000000000
00000001fffffffffffffe000000000000
00000001fffffffffffffe000000000000
00000001fffffffffffffe000000000000
00000003fffffffffffffc000000000000
00000003fffffffffffffc000000000000
00000003fffffffffffffc000000000000
00000007fffffffffffff8000000000000
00001fffe00000000001fffe0000000000
00001fffe00000000001fffe0000000000
00003fffc00000000003fffc0000000000
00003fffc00000000003fffc0000000000
00003fffc00000000003fffc0000000000
00007fff800000000007fff80000000000
00007fff800000000007fff80000000000
00007fff800000000007fff80000000000
0000ffff00000000000ffff00000000000
0000ffff00000000000ffff00000000000
0000fffffffffffffffffff00000000000
0001ffffffffffffffffffe00000000000
0001ffffffffffffffffffe00000000000
0001ffffffffffffffffffe00000000000
0003ffffffffffffffffffc00000000000
0003ffffffffffffffffffc00000000000
0003ffffffffffffffffffc00000000000
0007ffffffffffffffffff800000000000
0007ffffffffffffffffff800000000000
0007ffffffffffffffffff800000000000
000ffff000000000000000000000000000
000ffff000000000000000000000000000
000ffff000000000000000000000000000
001fffe000000000000000000000000000
001fffe000000000000000000000000000
001fffe000000000000000000000000000
003fffc000000000000000000000000000
003fffc000000000000000000000000000
003fffc000000000000000000000000000
007fff8000000000000000000000000000
00001fffffffffffffe000000000000000
00001fffffffffffffe000000000000000
00003fffffffffffffc000000000000000
00003fffffffffffffc000000000000000
00003fffffffffffffc000000000000000
00007fffffffffffff8000000000000000
00007fffffffffffff8000000000000000
00007fffffffffffff8000000000000000
0000ffffffffffffff0000000000000000
0000ffffffffffffff0000000000000000
0000000000000000000000000000000000
0000000000000000000000000000000000
0000000000000000000000000000000000
0000000000000000000000000000000000
0000000000000000000000000000000000
0000000000000000000000000000000000
0000000000000000000000000000000000
0000000000000000000000000000000000
0000000000000000000000000000000000
0000000000000000000000000000000000
0000000000000000000000000000000000
0000000000000000000000000000000000
0000000000000000000000000000000000
0000000000000000000000000000000000
0000000000000000000000000000000000
0000000000000000000000000000000000
0000000000000000000000000000000000
0000000000000000000000000000000000
0000000000000000000000000000000000
0000000000000000000000000000000000
ENDCHAR
STARTCHAR U+00EA
ENCODING 234
SWIDTH 1000 0
DWIDTH 100 0
BBX 133 100 -16 -20
BITMAP
0000000000000fffffffff000000000000
0000000000000fffffffff000000000000
0000000000000fffffffff000000000000
0000000000001ffffffffe000000000000
0000000000001ffffffffe000000000000
0000000000001ffffffffe000000000000
0000000000003ffffffffc000000000000
0000000000003ffffffffc000000000000
0000000000003ffffffffc000000000000
0000000000007ffffffff8000000000000
0000000001fffe000001fffe0000000000
0000000001fffe000001fffe0000000000
0000000003fffc000003fffc0000000000
0000000003fffc000003fffc0000000000
0000000003fffc000003fffc0000000000
0000000007fff8000007fff80000000000
0000000007fff8000007fff80000000000
0000000007fff8000007fff80000000000
000000000ffff000000ffff00000000000
000000000ffff000000ffff00000000000
0000000000000000000000000000000000
0000000000000000000000000000000000
0000000000000000000000000000000000
0000000000000000000000000000000000
0000000000000000000000000000000000
0000000000000000000000000000000000
0000000000000000000000000000000000
0000000000000000000000000000000000
0000000000000000000000000000000000
0000000000000000000000000000000000
00000000ffffffffffffff000000000000
00000000ffffffffffffff000000000000
00000000ffffffffffffff000000000000
00000001fffffffffffffe000000000000
00000001fffffffffffffe000000000000
00000001fffffffffffffe000000000000
00000003fffffffffffffc000000000000
00000003fffffffffffffc000000000000
00000003fffffffffffffc000000000000
00000007fffffffffffff8000000000000
00001fffe00000000001fffe0000000000
00001fffe00000000001fffe0000000000
00003fffc00000000003fffc0000000000
00003fffc00000000003fffc0000000000
00003fffc00000000003fffc0000000000
00007fff800000000007fff80000000000
00007fff800000000007fff80000000000
00007fff800000000007fff80000000000
0000ffff00000000000ffff00000000000
0000ffff00000000000ffff00000000000
0000fffffffffffffffffff00000000000
0001ffffffffffffffffffe00000000000
0001ffffffffffffffffffe00000000000
0001ffffffffffffffffffe00000000000
0003ffffffffffffffffffc00000000000
0003ffffffffffffffffffc00000000000
0003ffffffffffffffffffc00000000000
0007ffffffffffffffffff800000000000
0007ffffffffffffffffff800000000000
0007ffffffffffffffffff800000000000
000ffff000000000000000000000000000
000ffff000000000000000000000000000
000ffff000000000000000000000000000
001fffe000000000000000000000000000
001fffe000000000000000000000000000
001fffe000000000000000000000000000
003fffc000000000000000000000000000
003fffc000000000000000000000000000
003fffc000000000000000000000000000
007fff8000000000000000000000000000
00001fffffffffffffe000000000000000
00001fffffffffffffe000000000000000
00003fffffffffffffc000000000000000
00003fffffffffffffc000000000000000
00003fffffffffffffc000000000000000
00007fffffffffffff8000000000000000
00007fffffffffffff8000000000000000
00007fffffffffffff8000000000000000
0000ffffffffffffff0000000000000000
0000ffffffffffffff0000000000000000
0000000000000000000000000000000000
0000000000000000000000000000000000
0000000000000000000000000000000000
0000000000000000000000000000000000
0000000000000000000000000000000000
0000000000000000000000000000000000
0000000000000000000000000000000000
0000000000000000000000000000000000
0000000000000000000000000000000000
0000000000000000000000000000000000
0000000000000000000000000000000000
0000000000000000000000000000000000
0000000000000000000000000000000000
0000000000000000000000000000000000
0000000000000000000000000000000000
0000000000000000000000000000000000
0000000000000000000000000000000000
0000000000000000000000000000000000
0000000000000000000000000000000000
0000000000000000000000000000000000
ENDCHAR
STARTCHAR U+00E9
ENCODING 233
SWIDTH 1000 0
DWIDTH 100 0
BBX 133 100 -16 -20
BITMAP
0000000000000000000000000000000000
0000000000000000000000000000000000
0000000000000000000000000000000000
0000000000000000000000000000000000
0000000000000000000000000000000000
0000000000000000000000000000000000
0000000000000000000000000000000000
0000000000000000000000000000000000
0000000000000000000000000000000000
0000000000000000000000000000000000
000000000000001ffffff8000000000000
000000000000001ffffff8000000000000
000000000000003ffffff0000000000000
000000000000003ffffff0000000000000
000000000000003ffffff0000000000000
000000000000007fffffe0000000000000
000000000000007fffffe0000000000000
000000000000007fffffe0000000000000
00000000000000ffffffc0000000000000
00000000000000ffffffc0000000000000
000000000ffffffc000000000000000000
000000001ffffff8000000000000000000
000000001ffffff8000000000000000000
000000001ffffff8000000000000000000
000000003ffffff0000000000000000000
000000003ffffff0000000000000000000
000000003ffffff0000000000000000000
000000007fffffe0000000000000000000
000000007fffffe0000000000000000000
000000007fffffe0000000000000000000
00000000ffffffffffffff000000000000
00000000ffffffffffffff000000000000
00000000ffffffffffffff000000000000
00000001fffffffffffffe000000000000
00000001fffffffffffffe000000000000
00000001fffffffffffffe000000000000
00000003fffffffffffffc000000000000
00000003fffffffffffffc000000000000
00000003fffffffffffffc000000000000
00000007fffffffffffff8000000000000
00001fffe00000000001fffe0000000000
00001fffe00000000001fffe0000000000
00003fffc00000000003fffc0000000000
00003fffc00000000003fffc0000000000
00003fffc00000000003fffc0000000000
00007fff800000000007fff80000000000
00007fff800000000007fff80000000000
00007fff800000000007fff80000000000
0000ffff00000000000ffff00000000000
0000ffff00000000000ffff00000000000
0000fffffffffffffffffff00000000000
0001ffffffffffffffffffe00000000000
0001ffffffffffffffffffe00000000000
0001ffffffffffffffffffe00000000000
0003ffffffffffffffffffc00000000000
0003ffffffffffffffffffc00000000000
0003ffffffffffffffffffc00000000000
0007ffffffffffffffffff800000000000
0007ffffffffffffffffff800000000000
0007ffffffffffffffffff800000000000
000ffff000000000000000000000000000
000ffff000000000000000000000000000
000ffff000000000000000000000000000
001fffe000000000000000000000000000
001fffe000000000000000000000000000
001fffe000000000000000000000000000
003fffc000000000000000000000000000
003fffc000000000000000000000000000
003fffc000000000000000000000000000
007fff8000000000000000000000000000
00001fffffffffffffe000000000000000
00001fffffffffffffe000000000000000
00003fffffffffffffc000000000000000
00003fffffffffffffc000000000000000
00003fffffffffffffc000000000000000
00007fffffffffffff8000000000000000
00007fffffffffffff8000000000000000
00007fffffffffffff8000000000000000
0000ffffffffffffff0000000000000000
0000ffffffffffffff0000000000000000
0000000000000000000000000000000000
0000000000000000000000000000000000
0000000000000000000000000000000000
0000000000000000000000000000000000
0000000000000000000000000000000000
0000000000000000000000000000000000
0000000000000000000000000000000000
0000000000000000000000000000000000
0000000000000000000000000000000000
0000000000000000000000000000000000
0000000000000000000000000000000000
0000000000000000000000000000000000
0000000000000000000000000000000000
0000000000000000000000000000000000
0000000000000000000000000000000000
0000000000000000000000000000000000
0000000000000000000000000000000000
0000000000000000000000000000000000
0000000000000000000000000000000000
0000000000000000000000000000000000
ENDCHAR
STARTCHAR U+00E8
ENCODING 232
SWIDTH 1000 0
DWIDTH 100 0
BBX 133 100 -16 -20
BITMAP
0000000000000000000000000000000000
0000000000000000000000000000000000
0000000000000000000000000000000000
0000000000000000000000000000000000
0000000000000000000000000000000000
0000000000000000000000000000000000
0000000000000000000000000000000000
0000000000000000000000000000000000
0000000000000000000000000000000000
0000000000000000000000000000000000
0000000000007fffffe000000000000000
0000000000007fffffe000000000000000
000000000000ffffffc000000000000000
000000000000ffffffc000000000000000
000000000000ffffffc000000000000000
000000000001ffffff8000000000000000
000000000001ffffff8000000000000000
000000000001ffffff8000000000000000
000000000003ffffff0000000000000000
000000000003ffffff0000000000000000
00000000000000003ffffff00000000000
00000000000000007fffffe00000000000
00000000000000007fffffe00000000000
00000000000000007fffffe00000000000
0000000000000000ffffffc00000000000
0000000000000000ffffffc00000000000
0000000000000000ffffffc00000000000
0000000000000001ffffff800000000000
0000000000000001ffffff800000000000
0000000000000001ffffff800000000000
00000000ffffffffffffff000000000000
00000000ffffffffffffff000000000000
00000000ffffffffffffff000000000000
00000001fffffffffffffe000000000000
00000001fffffffffffffe000000000000
00000001fffffffffffffe000000000000
00000003fffffffffffffc000000000000
00000003fffffffffffffc000000000000
00000003fffffffffffffc000000000000
00000007fffffffffffff8000000000000
00001fffe00000000001fffe0000000000
00001fffe00000000001fffe0000000000
00003fffc00000000003fffc0000000000
00003fffc00000000003fffc0000000000
00003fffc00000000003fffc0000000000
00007fff800000000007fff80000000000
00007fff800000000007fff80000000000
00007fff800000000007fff80000000000
0000ffff00000000000ffff00000000000
0000ffff00000000000ffff00000000000
0000fffffffffffffffffff00000000000
0001ffffffffffffffffffe00000000000
0001ffffffffffffffffffe00000000000
0001ffffffffffffffffffe00000000000
0003ffffffffffffffffffc00000000000
0003ffffffffffffffffffc00000000000
0003ffffffffffffffffffc00000000000
0007ffffffffffffffffff800000000000
0007ffffffffffffffffff800000000000
0007ffffffffffffffffff800000000000
000ffff000000000000000000000000000
000ffff000000000000000000000000000
000ffff000000000000000000000000000
001fffe000000000000000000000000000
001fffe000000000000000000000000000
001fffe000000000000000000000000000
003fffc000000000000000000000000000
003fffc000000000000000000000000000
003fffc000000000000000000000000000
007fff8000000000000000000000000000
00001fffffffffffffe000000000000000
00001fffffffffffffe000000000000000
00003fffffffffffffc000000000000000
00003fffffffffffffc000000000000000
00003fffffffffffffc000000000000000
00007fffffffffffff8000000000000000
00007fffffffffffff8000000000000000
00007fffffffffffff8000000000000000
0000ffffffffffffff0000000000000000
0000ffffffffffffff0000000000000000
0000000000000000000000000000000000
0000000000000000000000000000000000
0000000000000000000000000000000000
0000000000000000000000000000000000
0000000000000000000000000000000000
0000000000000000000000000000000000
0000000000000000000000000000000000
0000000000000000000000000000000000
0000000000000000000000000000000000
0000000000000000000000000000000000
0000000000000000000000000000000000
0000000000000000000000000000000000
0000000000000000000000000000000000
0000000000000000000000000000000000
0000000000000000000000000000000000
0000000000000000000000000000000000
0000000000000000000000000000000000
0000000000000000000000000000000000
0000000000000000000000000000000000
0000000000000000000000000000000000
ENDCHAR
STARTCHAR U+00E7
ENCODING 231
SWIDTH 1000 0
DWIDTH 100 0
BBX 133 100 -16 -20
BITMAP
0000000000000000000000000000000000
0000000000000000000000000000000000
0000000000000000000000000000000000
0000000000000000000000000000000000
0000000000000000000000000000000000
0000000000000000000000000000000000
0000000000000000000000000000000000
0000000000000000000000000000000000
0000000000000000000000000000000000
0000000000000000000000000000000000
0000000000000000000000000000000000
0000000000000000000000000000000000
0000000000000000000000000000000000
0000000000000000000000000000000000
0000000000000000000000000000000000
0000000000000000000000000000000000
0000000000000000000000000000000000
0000000000000000000000000000000000
0000000000000000000000000000000000
0000000000000000000000000000000000
0000000000000000000000000000000000
0000000000000000000000000000000000
0000000000000000000000000000000000
0000000000000000000000000000000000
0000000000000000000000000000000000
0000000000000000000000000000000000
0000000000000000000000000000000000
0000000000000000000000000000000000
0000000000000000000000000000000000
0000000000000000000000000000000000
00000000ffffffffffffff000000000000
00000000ffffffffffffff000000000000
00000000ffffffffffffff000000000000
00000001fffffffffffffe000000000000
00000001fffffffffffffe000000000000
00000001fffffffffffffe000000000000
00000003fffffffffffffc000000000000
00000003fffffffffffffc000000000000
00000003fffffffffffffc000000000000
00000007fffffffffffff8000000000000
00001fffe00000000001fffe0000000000
00001fffe00000000001fffe0000000000
00003fffc00000000003fffc0000000000
00003fffc00000000003fffc0000000000
00003fffc00000000003fffc0000000000
00007fff800000000007fff80000000000
00007fff800000000007fff80000000000
00007fff800000000007fff80000000000
0000ffff00000000000ffff00000000000
0000ffff00000000000ffff00000000000
0000ffff00000000000000000000000000
0001fffe00000000000000000000000000
0001fffe00000000000000000000000000
0001fffe00000000000000000000000000
0003fffc00000000000000000000000000
0003fffc00000000000000000000000000
0003fffc00000000000000000000000000
0007fff800000000000000000000000000
0007fff800000000000000000000000000
0007fff800000000000000000000000000
000ffff00000000000ffff000000000000
000ffff00000000000ffff000000000000
000ffff00000000000ffff000000000000
001fffe00000000001fffe000000000000
001fffe00000000001fffe000000000000
001fffe00000000001fffe000000000000
003fffc00000000003fffc000000000000
003fffc00000000003fffc000000000000
003fffc00000000003fffc000000000000
007fff800000000007fff8000000000000
00001fffffffffffffe000000000000000
00001fffffffffffffe000000000000000
00003fffffffffffffc000000000000000
00003fffffffffffffc000000000000000
00003fffffffffffffc000000000000000
00007fffffffffffff8000000000000000
00007fffffffffffff8000000000000000
00007fffffffffffff8000000000000000
0000ffffffffffffff0000000000000000
0000ffffffffffffff0000000000000000
000000000003fffc000000000000000000
000000000007fff8000000000000000000
000000000007fff8000000000000000000
000000000007fff8000000000000000000
00000000000ffff0000000000000000000
00000000000ffff0000000000000000000
00000000000ffff0000000000000000000
00000000001fffe0000000000000000000
00000000001fffe0000000000000000000
00000000001fffe0000000000000000000
000003ffffffffc0000000000000000000
000003ffffffffc0000000000000000000
000003ffffffffc0000000000000000000
000007ffffffff80000000000000000000
000007ffffffff80000000000000000000
000007ffffffff80000000000000000000
00000fffffffff00000000000000000000
00000fffffffff00000000000000000000
00000fffffffff00000000000000000000
00001ffffffffe00000000000000000000
ENDCHAR
STARTCHAR U+00E6
ENCODING 230
SWIDTH 1000 0
DWIDTH 100 0
BBX 133 100 -16 -20
BITMAP
0000000000000000000000000000000000
0000000000000000000000000000000000
0000000000000000000000000000000000
0000000000000000000000000000000000
0000000000000000000000000000000000
0000000000000000000000000000000000
0000000000000000000000000000000000
0000000000000000000000000000000000
0000000000000000000000000000000000
0000000000000000000000000000000000
0000000000000000000000000000000000
0000000000000000000000000000000000
0000000000000000000000000000000000
0000000000000000000000000000000000
0000000000000000000000000000000000
0000000000000000000000000000000000
0000000000000000000000000000000000
0000000000000000000000000000000000
0000000000000000000000000000000000
0000000000000000000000000000000000
0000000000000000000000000000000000
0000000000000000000000000000000000
0000000000000000000000000000000000
0000000000000000000000000000000000
0000000000000000000000000000000000
0000000000000000000000000000000000
0000000000000000000000000000000000
0000000000000000000000000000000000
0000000000000000000000000000000000
0000000000000000000000000000000000
00000000ffffffc3ffffff000000000000
00000000ffffffc3ffffff000000000000
00000000ffffffc3ffffff000000000000
00000001ffffff87fffffe000000000000
00000001ffffff87fffffe000000000000
00000001ffffff87fffffe000000000000
00000003ffffff0ffffffc000000000000
00000003ffffff0ffffffc000000000000
00000003ffffff0ffffffc000000000000
00000007fffffe1ffffff8000000000000
0000000000007fff8001fffe0000000000
0000000000007fff8001fffe0000000000
000000000000ffff0003fffc0000000000
000000000000ffff0003fffc0000000000
000000000000ffff0003fffc0000000000
000000000001fffe0007fff80000000000
000000000001fffe0007fff80000000000
000000000001fffe0007fff80000000000
000000000003fffc000ffff00000000000
000000000003fffc000ffff00000000000
0000003ffffffffffffffff00000000000
0000007fffffffffffffffe00000000000
0000007fffffffffffffffe00000000000
0000007fffffffffffffffe00000000000
000000ffffffffffffffffc00000000000
000000ffffffffffffffffc00000000000
000000ffffffffffffffffc00000000000
000001ffffffffffffffff800000000000
000001ffffffffffffffff800000000000
000001ffffffffffffffff800000000000
000ffff0003fffc0000000000000000000
000ffff0003fffc0000000000000000000
000ffff0003fffc0000000000000000000
001fffe0007fff80000000000000000000
001fffe0007fff80000000000000000000
001fffe0007fff80000000000000000000
003fffc000ffff00000000000000000000
003fffc000ffff00000000000000000000
003fffc000ffff00000000000000000000
007fff8001fffe00000000000000000000
00001ffffffffffffffff8000000000000
00001ffffffffffffffff8000000000000
00003ffffffffffffffff0000000000000
00003ffffffffffffffff0000000000000
00003ffffffffffffffff0000000000000
00007fffffffffffffffe0000000000000
00007fffffffffffffffe0000000000000
00007fffffffffffffffe0000000000000
0000ffffffffffffffffc0000000000000
0000ffffffffffffffffc0000000000000
0000000000000000000000000000000000
0000000000000000000000000000000000
0000000000000000000000000000000000
0000000000000000000000000000000000
0000000000000000000000000000000000
0000000000000000000000000000000000
0000000000000000000000000000000000
0000000000000000000000000000000000
0000000000000000000000000000000000
0000000000000000000000000000000000
0000000000000000000000000000000000
0000000000000000000000000000000000
0000000000000000000000000000000000
0000000000000000000000000000000000
0000000000000000000000000000000000
0000000000000000000000000000000000
0000000000000000000000000000000000
0000000000000000000000000000000000
0000000000000000000000000000000000
0000000000000000000000000000000000
ENDCHAR
STARTCHAR U+00E5
ENCODING 229
SWIDTH 1000 0
DWIDTH 100 0
BBX 133 100 -16 -20
BITMAP
0000000000000fffffffff000000000000
0000000000000fffffffff000000000000
0000000000000fffffffff000000000000
0000000000001ffffffffe000000000000
0000000000001ffffffffe000000000000
0000000000001ffffffffe000000000000
0000000000003ffffffffc000000000000
0000000000003ffffffffc000000000000
0000000000003ffffffffc000000000000
0000000000007ffffffff8000000000000
0000000001fffe000001fffe0000000000
0000000001fffe000001fffe0000000000
0000000003fffc000003fffc0000000000
0000000003fffc000003fffc0000000000
0000000003fffc000003fffc0000000000
0000000007fff8000007fff80000000000
0000000007fff8000007fff80000000000
0000000007fff8000007fff80000000000
000000000ffff000000ffff00000000000
000000000ffff000000ffff00000000000
000000000003ffffffffc0000000000000
000000000007ffffffff80000000000000
000000000007ffffffff80000000000000
000000000007ffffffff80000000000000
00000000000fffffffff00000000000000
00000000000fffffffff00000000000000
00000000000fffffffff00000000000000
00000000001ffffffffe00000000000000
00000000001ffffffffe00000000000000
00000000001ffffffffe00000000000000
00000000ffffffffffffff000000000000
00000000ffffffffffffff000000000000
00000000ffffffffffffff000000000000
00000001fffffffffffffe000000000000
00000001fffffffffffffe000000000000
00000001fffffffffffffe000000000000
00000003fffffffffffffc000000000000
00000003fffffffffffffc000000000000
00000003fffffffffffffc000000000000
00000007fffffffffffff8000000000000
00000000000000000001fffe0000000000
00000000000000000001fffe0000000000
00000000000000000003fffc0000000000
00000000000000000003fffc0000000000
00000000000000000003fffc0000000000
00000000000000000007fff80000000000
00000000000000000007fff80000000000
00000000000000000007fff80000000000
0000000000000000000ffff00000000000
0000000000000000000ffff00000000000
0000003ffffffffffffffff00000000000
0000007fffffffffffffffe00000000000
0000007fffffffffffffffe00000000000
0000007fffffffffffffffe00000000000
000000ffffffffffffffffc00000000000
000000ffffffffffffffffc00000000000
000000ffffffffffffffffc00000000000
000001ffffffffffffffff800000000000
000001ffffffffffffffff800000000000
000001ffffffffffffffff800000000000
000ffff000000003ffffff000000000000
000ffff000000003ffffff000000000000
000ffff000000003ffffff000000000000
001fffe000000007fffffe000000000000
001fffe000000007fffffe000000000000
001fffe000000007fffffe000000000000
003fffc00000000ffffffc000000000000
003fffc00000000ffffffc000000000000
003fffc00000000ffffffc000000000000
007fff800000001ffffff8000000000000
00001fffffffffff87fff8000000000000
00001fffffffffff87fff8000000000000
00003fffffffffff0ffff0000000000000
00003fffffffffff0ffff0000000000000
00003fffffffffff0ffff0000000000000
00007ffffffffffe1fffe0000000000000
00007ffffffffffe1fffe0000000000000
00007ffffffffffe1fffe0000000000000
0000fffffffffffc3fffc0000000000000
0000fffffffffffc3fffc0000000000000
0000000000000000000000000000000000
0000000000000000000000000000000000
0000000000000000000000000000000000
0000000000000000000000000000000000
0000000000000000000000000000000000
0000000000000000000000000000000000
0000000000000000000000000000000000
0000000000000000000000000000000000
0000000000000000000000000000000000
0000000000000000000000000000000000
0000000000000000000000000000000000
0000000000000000000000000000000000
0000000000000000000000000000000000
0000000000000000000000000000000000
0000000000000000000000000000000000
0000000000000000000000000000000000
0000000000000000000000000000000000
0000000000000000000000000000000000
0000000000000000000000000000000000
0000000000000000000000000000000000
ENDCHAR
STARTCHAR U+00E4
ENCODING 228
SWIDTH 1000 0
DWIDTH 100 0
BBX 133 100 -16 -20
BITMAP
0000000000000000000000000000000000
0000000000000000000000000000000000
0000000000000000000000000000000000
0000000000000000000000000000000000
0000000000000000000000000000000000
0000000000000000000000000000000000
0000000000000000000000000000000000
0000000000000000000000000000000000
0000000000000000000000000000000000
0000000000000000000000000000000000
0000000001fffe000001fffe0000000000
0000000001fffe000001fffe0000000000
0000000003fffc000003fffc0000000000
0000000003fffc000003fffc0000000000
0000000003fffc000003fffc0000000000
0000000007fff8000007fff80000000000
0000000007fff8000007fff80000000000
0000000007fff8000007fff80000000000
000000000ffff000000ffff00000000000
000000000ffff000000ffff00000000000
0000000000000000000000000000000000
0000000000000000000000000000000000
0000000000000000000000000000000000
0000000000000000000000000000000000
0000000000000000000000000000000000
0000000000000000000000000000000000
0000000000000000000000000000000000
0000000000000000000000000000000000
0000000000000000000000000000000000
0000000000000000000000000000000000
00000000ffffffffffffff000000000000
00000000ffffffffffffff000000000000
00000000ffffffffffffff000000000000
00000001fffffffffffffe000000000000
00000001fffffffffffffe000000000000
00000001fffffffffffffe000000000000
00000003fffffffffffffc000000000000
00000003fffffffffffffc000000000000
00000003fffffffffffffc000000000000
00000007fffffffffffff8000000000000
00000000000000000001fffe0000000000
00000000000000000001fffe0000000000
00000000000000000003fffc0000000000
00000000000000000003fffc0000000000
00000000000000000003fffc0000000000
00000000000000000007fff80000000000
00000000000000000007fff80000000000
00000000000000000007fff80000000000
0000000000000000000ffff00000000000
0000000000000000000ffff00000000000
0000003ffffffffffffffff00000000000
0000007fffffffffffffffe00000000000
0000007fffffffffffffffe00000000000
0000007fffffffffffffffe00000000000
000000ffffffffffffffffc00000000000
000000ffffffffffffffffc00000000000
000000ffffffffffffffffc00000000000
000001ffffffffffffffff800000000000
000001ffffffffffffffff800000000000
000001ffffffffffffffff800000000000
000ffff000000003ffffff000000000000
000ffff000000003ffffff000000000000
000ffff000000003ffffff000000000000
001fffe000000007fffffe000000000000
001fffe000000007fffffe000000000000
001fffe000000007fffffe000000000000
003fffc00000000ffffffc000000000000
003fffc00000000ffffffc000000000000
003fffc00000000ffffffc000000000000
007fff800000001ffffff8000000000000
00001fffffffffff87fff8000000000000
00001fffffffffff87fff8000000000000
00003fffffffffff0ffff0000000000000
00003fffffffffff0ffff0000000000000
00003fffffffffff0ffff0000000000000
00007ffffffffffe1fffe0000000000000
00007ffffffffffe1fffe0000000000000
00007ffffffffffe1fffe0000000000000
0000fffffffffffc3fffc0000000000000
0000fffffffffffc3fffc0000000000000
0000000000000000000000000000000000
0000000000000000000000000000000000
0000000000000000000000000000000000
0000000000000000000000000000000000
0000000000000000000000000000000000
0000000000000000000000000000000000
0000000000000000000000000000000000
0000000000000000000000000000000000
0000000000000000000000000000000000
0000000000000000000000000000000000
0000000000000000000000000000000000
0000000000000000000000000000000000
0000000000000000000000000000000000
0000000000000000000000000000000000
0000000000000000000000000000000000
0000000000000000000000000000000000
0000000000000000000000000000000000
0000000000000000000000000000000000
0000000000000000000000000000000000
0000000000000000000000000000000000
ENDCHAR
STARTCHAR U+00E3
ENCODING 227
SWIDTH 1000 0
DWIDTH 100 0
BBX 133 100 -16 -20
BITMAP
0000000000000ffffffc000ffff0000000
0000000000000ffffffc000ffff0000000
0000000000000ffffffc000ffff0000000
0000000000001ffffff8001fffe0000000
0000000000001ffffff8001fffe0000000
0000000000001ffffff8001fffe0000000
0000000000003ffffff0003fffc0000000
0000000000003ffffff0003fffc0000000
0000000000003ffffff0003fffc0000000
0000000000007fffffe0007fff80000000
0000000001fffe0007fffffe0000000000
0000000001fffe0007fffffe0000000000
0000000003fffc000ffffffc0000000000
0000000003fffc000ffffffc0000000000
0000000003fffc000ffffffc0000000000
0000000007fff8001ffffff80000000000
0000000007fff8001ffffff80000000000
0000000007fff8001ffffff80000000000
000000000ffff0003ffffff00000000000
000000000ffff0003ffffff00000000000
0000000000000000000000000000000000
0000000000000000000000000000000000
0000000000000000000000000000000000
0000000000000000000000000000000000
0000000000000000000000000000000000
0000000000000000000000000000000000
0000000000000000000000000000000000
0000000000000000000000000000000000
0000000000000000000000000000000000
0000000000000000000000000000000000
00000000ffffffffffffff000000000000
00000000ffffffffffffff000000000000
00000000ffffffffffffff000000000000
00000001fffffffffffffe000000000000
00000001fffffffffffffe000000000000
00000001fffffffffffffe000000000000
00000003fffffffffffffc000000000000
00000003fffffffffffffc000000000000
00000003fffffffffffffc000000000000
00000007fffffffffffff8000000000000
00000000000000000001fffe0000000000
00000000000000000001fffe0000000000
00000000000000000003fffc0000000000
00000000000000000003fffc0000000000
00000000000000000003fffc0000000000
00000000000000000007fff80000000000
00000000000000000007fff80000000000
00000000000000000007fff80000000000
0000000000000000000ffff00000000000
0000000000000000000ffff00000000000
0000003ffffffffffffffff00000000000
0000007fffffffffffffffe00000000000
0000007fffffffffffffffe00000000000
0000007fffffffffffffffe00000000000
000000ffffffffffffffffc00000000000
000000ffffffffffffffffc00000000000
000000ffffffffffffffffc00000000000
000001ffffffffffffffff800000000000
000001ffffffffffffffff800000000000
000001ffffffffffffffff800000000000
000ffff000000003ffffff000000000000
000ffff000000003ffffff000000000000
000ffff000000003ffffff000000000000
001fffe000000007fffffe000000000000
001fffe000000007fffffe000000000000
001fffe000000007fffffe000000000000
003fffc00000000ffffffc000000000000
003fffc00000000ffffffc000000000000
003fffc00000000ffffffc000000000000
007fff800000001ffffff8000000000000
00001fffffffffff87fff8000000000000
00001fffffffffff87fff8000000000000
00003fffffffffff0ffff0000000000000
00003fffffffffff0ffff0000000000000
00003fffffffffff0ffff0000000000000
00007ffffffffffe1fffe0000000000000
00007ffffffffffe1fffe0000000000000
00007ffffffffffe1fffe0000000000000
0000fffffffffffc3fffc0000000000000
0000fffffffffffc3fffc0000000000000
0000000000000000000000000000000000
0000000000000000000000000000000000
0000000000000000000000000000000000
0000000000000000000000000000000000
0000000000000000000000000000000000
0000000000000000000000000000000000
0000000000000000000000000000000000
0000000000000000000000000000000000
0000000000000000000000000000000000
0000000000000000000000000000000000
0000000000000000000000000000000000
0000000000000000000000000000000000
0000000000000000000000000000000000
0000000000000000000000000000000000
0000000000000000000000000000000000
0000000000000000000000000000000000
0000000000000000000000000000000000
0000000000000000000000000000000000
0000000000000000000000000000000000
0000000000000000000000000000000000
ENDCHAR
STARTCHAR U+00E2
ENCODING 226
SWIDTH 1000 0
DWIDTH 100 0
BBX 133 100 -16 -20
BITMAP
0000000000000fffffffff000000000000
0000000000000fffffffff000000000000
0000000000000fffffffff000000000000
0000000000001ffffffffe000000000000
0000000000001ffffffffe000000000000
0000000000001ffffffffe000000000000
0000000000003ffffffffc000000000000
0000000000003ffffffffc000000000000
0000000000003ffffffffc000000000000
0000000000007ffffffff8000000000000
0000000001fffe000001fffe0000000000
0000000001fffe000001fffe0000000000
0000000003fffc000003fffc0000000000
0000000003fffc000003fffc0000000000
0000000003fffc000003fffc0000000000
0000000007fff8000007fff80000000000
0000000007fff8000007fff80000000000
0000000007fff8000007fff80000000000
000000000ffff000000ffff00000000000
000000000ffff000000ffff00000000000
0000000000000000000000000000000000
0000000000000000000000000000000000
0000000000000000000000000000000000
0000000000000000000000000000000000
0000000000000000000000000000000000
0000000000000000000000000000000000
0000000000000000000000000000000000
0000000000000000000000000000000000
0000000000000000000000000000000000
0000000000000000000000000000000000
00000000ffffffffffffff000000000000
00000000ffffffffffffff000000000000
00000000ffffffffffffff000000000000
00000001fffffffffffffe000000000000
00000001fffffffffffffe000000000000
00000001fffffffffffffe000000000000
00000003fffffffffffffc000000000000
00000003fffffffffffffc000000000000
00000003fffffffffffffc000000000000
00000007fffffffffffff8000000000000
00000000000000000001fffe0000000000
00000000000000000001fffe0000000000
00000000000000000003fffc0000000000
00000000000000000003fffc0000000000
00000000000000000003fffc0000000000
00000000000000000007fff80000000000
00000000000000000007fff80000000000
00000000000000000007fff80000000000
0000000000000000000ffff00000000000
0000000000000000000ffff00000000000
0000003ffffffffffffffff00000000000
0000007fffffffffffffffe00000000000
0000007fffffffffffffffe00000000000
0000007fffffffffffffffe00000000000
000000ffffffffffffffffc00000000000
000000ffffffffffffffffc00000000000
000000ffffffffffffffffc00000000000
000001ffffffffffffffff800000000000
000001ffffffffffffffff800000000000
000001ffffffffffffffff800000000000
000ffff000000003ffffff000000000000
000ffff000000003ffffff000000000000
000ffff000000003ffffff000000000000
001fffe000000007fffffe000000000000
001fffe000000007fffffe000000000000
001fffe000000007fffffe000000000000
003fffc00000000ffffffc000000000000
003fffc00000000ffffffc000000000000
003fffc00000000ffffffc000000000000
007fff800000001ffffff8000000000000
00001fffffffffff87fff8000000000000
00001fffffffffff87fff8000000000000
00003fffffffffff0ffff0000000000000
00003fffffffffff0ffff0000000000000
00003fffffffffff0ffff0000000000000
00007ffffffffffe1fffe0000000000000
00007ffffffffffe1fffe0000000000000
00007ffffffffffe1fffe0000000000000
0000fffffffffffc3fffc0000000000000
0000fffffffffffc3fffc0000000000000
0000000000000000000000000000000000
0000000000000000000000000000000000
0000000000000000000000000000000000
0000000000000000000000000000000000
0000000000000000000000000000000000
0000000000000000000000000000000000
0000000000000000000000000000000000
0000000000000000000000000000000000
0000000000000000000000000000000000
0000000000000000000000000000000000
0000000000000000000000000000000000
0000000000000000000000000000000000
0000000000000000000000000000000000
0000000000000000000000000000000000
0000000000000000000000000000000000
0000000000000000000000000000000000
0000000000000000000000000000000000
0000000000000000000000000000000000
0000000000000000000000000000000000
0000000000000000000000000000000000
ENDCHAR
STARTCHAR U+00E1
ENCODING 225
SWIDTH 1000 0
DWIDTH 100 0
BBX 133 100 -16 -20
BITMAP
0000000000000000000000000000000000
0000000000000000000000000000000000
0000000000000000000000000000000000
0000000000000000000000000000000000
0000000000000000000000000000000000
0000000000000000000000000000000000
0000000000000000000000000000000000
0000000000000000000000000000000000
0000000000000000000000000000000000
0000000000000000000000000000000000
000000000000001ffffff8000000000000
000000000000001ffffff8000000000000
000000000000003ffffff0000000000000
000000000000003ffffff0000000000000
000000000000003ffffff0000000000000
000000000000007fffffe0000000000000
000000000000007fffffe0000000000000
000000000000007fffffe0000000000000
00000000000000ffffffc0000000000000
00000000000000ffffffc0000000000000
000000000ffffffc000000000000000000
000000001ffffff8000000000000000000
000000001ffffff8000000000000000000
000000001ffffff8000000000000000000
000000003ffffff0000000000000000000
000000003ffffff0000000000000000000
000000003ffffff0000000000000000000
000000007fffffe0000000000000000000
000000007fffffe0000000000000000000
000000007fffffe0000000000000000000
00000000ffffffffffffff000000000000
00000000ffffffffffffff000000000000
00000000ffffffffffffff000000000000
00000001fffffffffffffe000000000000
00000001fffffffffffffe000000000000
00000001fffffffffffffe000000000000
00000003fffffffffffffc000000000000
00000003fffffffffffffc000000000000
00000003fffffffffffffc000000000000
00000007fffffffffffff8000000000000
00000000000000000001fffe0000000000
00000000000000000001fffe0000000000
00000000000000000003fffc0000000000
00000000000000000003fffc0000000000
00000000000000000003fffc0000000000
00000000000000000007fff80000000000
00000000000000000007fff80000000000
00000000000000000007fff80000000000
0000000000000000000ffff00000000000
0000000000000000000ffff00000000000
0000003ffffffffffffffff00000000000
0000007fffffffffffffffe00000000000
0000007fffffffffffffffe00000000000
0000007fffffffffffffffe00000000000
000000ffffffffffffffffc00000000000
000000ffffffffffffffffc00000000000
000000ffffffffffffffffc00000000000
000001ffffffffffffffff800000000000
000001ffffffffffffffff800000000000
000001ffffffffffffffff800000000000
000ffff000000003ffffff000000000000
000ffff000000003ffffff000000000000
000ffff000000003ffffff000000000000
001fffe000000007fffffe000000000000
001fffe000000007fffffe000000000000
001fffe000000007fffffe000000000000
003fffc00000000ffffffc000000000000
003fffc00000000ffffffc000000000000
003fffc00000000ffffffc000000000000
007fff800000001ffffff8000000000000
00001fffffffffff87fff8000000000000
00001fffffffffff87fff8000000000000
00003fffffffffff0ffff0000000000000
00003fffffffffff0ffff0000000000000
00003fffffffffff0ffff0000000000000
00007ffffffffffe1fffe0000000000000
00007ffffffffffe1fffe0000000000000
00007ffffffffffe1fffe0000000000000
0000fffffffffffc3fffc0000000000000
0000fffffffffffc3fffc0000000000000
0000000000000000000000000000000000
0000000000000000000000000000000000
0000000000000000000000000000000000
0000000000000000000000000000000000
0000000000000000000000000000000000
0000000000000000000000000000000000
0000000000000000000000000000000000
0000000000000000000000000000000000
0000000000000000000000000000000000
0000000000000000000000000000000000
0000000000000000000000000000000000
0000000000000000000000000000000000
0000000000000000000000000000000000
0000000000000000000000000000000000
0000000000000000000000000000000000
0000000000000000000000000000000000
0000000000000000000000000000000000
0000000000000000000000000000000000
0000000000000000000000000000000000
0000000000000000000000000000000000
ENDCHAR
STARTCHAR U+00E0
ENCODING 224
SWIDTH 1000 0
DWIDTH 100 0
BBX 133 100 -16 -20
BITMAP
0000000000000000000000000000000000
0000000000000000000000000000000000
0000000000000000000000000000000000
0000000000000000000000000000000000
0000000000000000000000000000000000
0000000000000000000000000000000000
0000000000000000000000000000000000
0000000000000000000000000000000000
0000000000000000000000000000000000
0000000000000000000000000000000000
0000000000007fffffe000000000000000
0000000000007fffffe000000000000000
000000000000ffffffc000000000000000
000000000000ffffffc000000000000000
000000000000ffffffc000000000000000
000000000001ffffff8000000000000000
000000000001ffffff8000000000000000
000000000001ffffff8000000000000000
000000000003ffffff0000000000000000
000000000003ffffff0000000000000000
00000000000000003ffffff00000000000
00000000000000007fffffe00000000000
00000000000000007fffffe00000000000
00000000000000007fffffe00000000000
0000000000000000ffffffc00000000000
0000000000000000ffffffc00000000000
0000000000000000ffffffc00000000000
0000000000000001ffffff800000000000
0000000000000001ffffff800000000000
0000000000000001ffffff800000000000
00000000ffffffffffffff000000000000
00000000ffffffffffffff000000000000
00000000ffffffffffffff000000000000
00000001fffffffffffffe000000000000
00000001fffffffffffffe000000000000
00000001fffffffffffffe000000000000
00000003fffffffffffffc000000000000
00000003fffffffffffffc000000000000
00000003fffffffffffffc000000000000
00000007fffffffffffff8000000000000
00000000000000000001fffe0000000000
00000000000000000001fffe0000000000
00000000000000000003fffc0000000000
00000000000000000003fffc0000000000
00000000000000000003fffc0000000000
00000000000000000007fff80000000000
00000000000000000007fff80000000000
00000000000000000007fff80000000000
0000000000000000000ffff00000000000
0000000000000000000ffff00000000000
0000003ffffffffffffffff00000000000
0000007fffffffffffffffe00000000000
0000007fffffffffffffffe00000000000
0000007fffffffffffffffe00000000000
000000ffffffffffffffffc00000000000
000000ffffffffffffffffc00000000000
000000ffffffffffffffffc00000000000
000001ffffffffffffffff800000000000
000001ffffffffffffffff800000000000
000001ffffffffffffffff800000000000
000ffff000000003ffffff000000000000
000ffff000000003ffffff000000000000
000ffff000000003ffffff000000000000
001fffe000000007fffffe000000000000
001fffe000000007fffffe000000000000
001fffe000000007fffffe000000000000
003fffc00000000ffffffc000000000000
003fffc00000000ffffffc000000000000
003fffc00000000ffffffc000000000000
007fff800000001ffffff8000000000000
00001fffffffffff87fff8000000000000
00001fffffffffff87fff8000000000000
00003fffffffffff0ffff0000000000000
00003fffffffffff0ffff0000000000000
00003fffffffffff0ffff0000000000000
00007ffffffffffe1fffe0000000000000
00007ffffffffffe1fffe0000000000000
00007ffffffffffe1fffe0000000000000
0000fffffffffffc3fffc0000000000000
0000fffffffffffc3fffc0000000000000
0000000000000000000000000000000000
0000000000000000000000000000000000
0000000000000000000000000000000000
0000000000000000000000000000000000
0000000000000000000000000000000000
0000000000000000000000000000000000
0000000000000000000000000000000000
0000000000000000000000000000000000
0000000000000000000000000000000000
0000000000000000000000000000000000
0000000000000000000000000000000000
0000000000000000000000000000000000
0000000000000000000000000000000000
0000000000000000000000000000000000
0000000000000000000000000000000000
0000000000000000000000000000000000
0000000000000000000000000000000000
0000000000000000000000000000000000
0000000000000000000000000000000000
0000000000000000000000000000000000
ENDCHAR
STARTCHAR U+00DF
ENCODING 223
SWIDTH 1000 0
DWIDTH 100 0
BBX 133 100 -16 -20
BITMAP
0000000000000000000000000000000000
0000000000000000000000000000000000
0000000000000000000000000000000000
0000000000000000000000000000000000
0000000000000000000000000000000000
0000000000000000000000000000000000
0000000000000000000000000000000000
0000000000000000000000000000000000
0000000000000000000000000000000000
0000000000000000000000000000000000
0000000000007ffffffff8000000000000
0000000000007ffffffff8000000000000
000000000000fffffffff0000000000000
000000000000fffffffff0000000000000
000000000000fffffffff0000000000000
000000000001ffffffffe0000000000000
000000000001ffffffffe0000000000000
000000000001ffffffffe0000000000000
000000000003ffffffffc0000000000000
000000000003ffffffffc0000000000000
000000000ffff000000ffff00000000000
000000001fffe000001fffe00000000000
000000001fffe000001fffe00000000000
000000001fffe000001fffe00000000000
000000003fffc000003fffc00000000000
000000003fffc000003fffc00000000000
000000003fffc000003fffc00000000000
000000007fff8000007fff800000000000
000000007fff8000007fff800000000000
000000007fff8000007fff800000000000
000003fffc00000000ffff000000000000
000003fffc00000000ffff000000000000
000003fffc00000000ffff000000000000
000007fff800000001fffe000000000000
000007fff800000001fffe000000000000
000007fff800000001fffe000000000000
00000ffff000000003fffc000000000000
00000ffff000000003fffc000000000000
00000ffff000000003fffc000000000000
00001fffe000000007fff8000000000000
00001fffe1ffffffffe000000000000000
00001fffe1ffffffffe000000000000000
00003fffc3ffffffffc000000000000000
00003fffc3ffffffffc000000000000000
00003fffc3ffffffffc000000000000000
00007fff87ffffffff8000000000000000
00007fff87ffffffff8000000000000000
00007fff87ffffffff8000000000000000
0000ffff0fffffffff0000000000000000
0000ffff0fffffffff0000000000000000
0000ffff000000003fffc0000000000000
0001fffe000000007fff80000000000000
0001fffe000000007fff80000000000000
0001fffe000000007fff80000000000000
0003fffc00000000ffff00000000000000
0003fffc00000000ffff00000000000000
0003fffc00000000ffff00000000000000
0007fff800000001fffe00000000000000
0007fff800000001fffe00000000000000
0007fff800000001fffe00000000000000
000ffff0ffff000000ffff000000000000
000ffff0ffff000000ffff000000000000
000ffff0ffff000000ffff000000000000
001fffe1fffe000001fffe000000000000
001fffe1fffe000001fffe000000000000
001fffe1fffe000001fffe000000000000
003fffc3fffc000003fffc000000000000
003fffc3fffc000003fffc000000000000
003fffc3fffc000003fffc000000000000
007fff87fff8000007fff8000000000000
007fff8001ffffffffe000000000000000
007fff8001ffffffffe000000000000000
00ffff0003ffffffffc000000000000000
00ffff0003ffffffffc000000000000000
00ffff0003ffffffffc000000000000000
01fffe0007ffffffff8000000000000000
01fffe0007ffffffff8000000000000000
01fffe0007ffffffff8000000000000000
03fffc000fffffffff0000000000000000
03fffc000fffffffff0000000000000000
03fffc0000000000000000000000000000
07fff80000000000000000000000000000
07fff80000000000000000000000000000
07fff80000000000000000000000000000
0ffff00000000000000000000000000000
0ffff00000000000000000000000000000
0ffff00000000000000000000000000000
1fffe00000000000000000000000000000
1fffe00000000000000000000000000000
1fffe00000000000000000000000000000
0000000000000000000000000000000000
0000000000000000000000000000000000
0000000000000000000000000000000000
0000000000000000000000000000000000
0000000000000000000000000000000000
0000000000000000000000000000000000
0000000000000000000000000000000000
0000000000000000000000000000000000
0000000000000000000000000000000000
0000000000000000000000000000000000
ENDCHAR
STARTCHAR U+00DE
ENCODING 222
SWIDTH 1000 0
DWIDTH 100 0
BBX 133 100 -16 -20
BITMAP
0000000000000000000000000000000000
0000000000000000000000000000000000
0000000000000000000000000000000000
0000000000000000000000000000000000
0000000000000000000000000000000000
0000000000000000000000000000000000
0000000000000000000000000000000000
0000000000000000000000000000000000
0000000000000000000000000000000000
0000000000000000000000000000000000
00000007fffffe00000000000000000000
00000007fffffe00000000000000000000
0000000ffffffc00000000000000000000
0000000ffffffc00000000000000000000
0000000ffffffc00000000000000000000
0000001ffffff800000000000000000000
0000001ffffff800000000000000000000
0000001ffffff800000000000000000000
0000003ffffff000000000000000000000
0000003ffffff000000000000000000000
000000000ffffffffffffff00000000000
000000001fffffffffffffe00000000000
000000001fffffffffffffe00000000000
000000001fffffffffffffe00000000000
000000003fffffffffffffc00000000000
000000003fffffffffffffc00000000000
000000003fffffffffffffc00000000000
000000007fffffffffffff800000000000
000000007fffffffffffff800000000000
000000007fffffffffffff800000000000
00000000ffff000000003fffc000000000
00000000ffff000000003fffc000000000
00000000ffff000000003fffc000000000
00000001fffe000000007fff8000000000
00000001fffe000000007fff8000000000
00000001fffe000000007fff8000000000
00000003fffc00000000ffff0000000000
00000003fffc00000000ffff0000000000
00000003fffc00000000ffff0000000000
00000007fff800000001fffe0000000000
00000007fff800000001fffe0000000000
00000007fff800000001fffe0000000000
0000000ffff000000003fffc0000000000
0000000ffff000000003fffc0000000000
0000000ffff000000003fffc0000000000
0000001fffe000000007fff80000000000
0000001fffe000000007fff80000000000
0000001fffe000000007fff80000000000
0000003fffc00000000ffff00000000000
0000003fffc00000000ffff00000000000
0000003fffc00000000ffff00000000000
0000007fff800000001fffe00000000000
0000007fff800000001fffe00000000000
0000007fff800000001fffe00000000000
000000ffff000000003fffc00000000000
000000ffff000000003fffc00000000000
000000ffff000000003fffc00000000000
000001fffe000000007fff800000000000
000001fffe000000007fff800000000000
000001fffe000000007fff800000000000
000003fffffffffffffc00000000000000
000003fffffffffffffc00000000000000
000003fffffffffffffc00000000000000
000007fffffffffffff800000000000000
000007fffffffffffff800000000000000
000007fffffffffffff800000000000000
00000ffffffffffffff000000000000000
00000ffffffffffffff000000000000000
00000ffffffffffffff000000000000000
00001fffffffffffffe000000000000000
007fffffe0000000000000000000000000
007fffffe0000000000000000000000000
00ffffffc0000000000000000000000000
00ffffffc0000000000000000000000000
00ffffffc0000000000000000000000000
01ffffff80000000000000000000000000
01ffffff80000000000000000000000000
01ffffff80000000000000000000000000
03ffffff00000000000000000000000000
03ffffff00000000000000000000000000
0000000000000000000000000000000000
0000000000000000000000000000000000
0000000000000000000000000000000000
0000000000000000000000000000000000
0000000000000000000000000000000000
0000000000000000000000000000000000
0000000000000000000000000000000000
0000000000000000000000000000000000
0000000000000000000000000000000000
0000000000000000000000000000000000
0000000000000000000000000000000000
0000000000000000000000000000000000
0000000000000000000000000000000000
0000000000000000000000000000000000
0000000000000000000000000000000000
0000000000000000000000000000000000
0000000000000000000000000000000000
0000000000000000000000000000000000
0000000000000000000000000000000000
0000000000000000000000000000000000
ENDCHAR
STARTCHAR U+0178
ENCODING 376
SWIDTH 1000 0
DWIDTH 100 0
BBX 133 100 -16 -20
BITMAP
00000000003fffc000003fffc000000000
00000000003fffc000003fffc000000000
00000000003fffc000003fffc000000000
00000000007fff8000007fff8000000000
00000000007fff8000007fff8000000000
00000000007fff8000007fff8000000000
0000000000ffff000000ffff0000000000
0000000000ffff000000ffff0000000000
0000000000ffff000000ffff0000000000
0000000001fffe000001fffe0000000000
0000000000000000000000000000000000
0000000000000000000000000000000000
0000000000000000000000000000000000
0000000000000000000000000000000000
0000000000000000000000000000000000
0000000000000000000000000000000000
0000000000000000000000000000000000
0000000000000000000000000000000000
0000000000000000000000000000000000
0000000000000000000000000000000000
0000003fffc00000000003fffc00000000
0000007fff800000000007fff800000000
0000007fff800000000007fff800000000
0000007fff800000000007fff800000000
000000ffff00000000000ffff000000000
000000ffff00000000000ffff000000000
000000ffff00000000000ffff000000000
000001fffe00000000001fffe000000000
000001fffe00000000001fffe000000000
000001fffe00000000001fffe000000000
00000000ffff000000ffff000000000000
00000000ffff000000ffff000000000000
00000000ffff000000ffff000000000000
00000001fffe000001fffe000000000000
00000001fffe000001fffe000000000000
00000001fffe000001fffe000000000000
00000003fffc000003fffc000000000000
00000003fffc000003fffc000000000000
00000003fffc000003fffc000000000000
00000007fff8000007fff8000000000000
0000000001fffe1fffe000000000000000
0000000001fffe1fffe000000000000000
0000000003fffc3fffc000000000000000
0000000003fffc3fffc000000000000000
0000000003fffc3fffc000000000000000
0000000007fff87fff8000000000000000
0000000007fff87fff8000000000000000
0000000007fff87fff8000000000000000
000000000ffff0ffff0000000000000000
000000000ffff0ffff0000000000000000
000000000003fffc000000000000000000
000000000007fff8000000000000000000
000000000007fff8000000000000000000
000000000007fff8000000000000000000
00000000000ffff0000000000000000000
00000000000ffff0000000000000000000
00000000000ffff0000000000000000000
00000000001fffe0000000000000000000
00000000001fffe0000000000000000000
00000000001fffe0000000000000000000
00000000003fffc0000000000000000000
00000000003fffc0000000000000000000
00000000003fffc0000000000000000000
00000000007fff80000000000000000000
00000000007fff80000000000000000000
00000000007fff80000000000000000000
0000000000ffff00000000000000000000
0000000000ffff00000000000000000000
0000000000ffff00000000000000000000
0000000001fffe00000000000000000000
0000000001fffe00000000000000000000
0000000001fffe00000000000000000000
0000000003fffc00000000000000000000
0000000003fffc00000000000000000000
0000000003fffc00000000000000000000
0000000007fff800000000000000000000
0000000007fff800000000000000000000
0000000007fff800000000000000000000
000000000ffff000000000000000000000
000000000ffff000000000000000000000
0000000000000000000000000000000000
0000000000000000000000000000000000
0000000000000000000000000000000000
0000000000000000000000000000000000
0000000000000000000000000000000000
0000000000000000000000000000000000
0000000000000000000000000000000000
0000000000000000000000000000000000
0000000000000000000000000000000000
0000000000000000000000000000000000
0000000000000000000000000000000000
0000000000000000000000000000000000
0000000000000000000000000000000000
0000000000000000000000000000000000
0000000000000000000000000000000000
0000000000000000000000000000000000
0000000000000000000000000000000000
0000000000000000000000000000000000
0000000000000000000000000000000000
0000000000000000000000000000000000
ENDCHAR
STARTCHAR U+00DC
ENCODING 220
SWIDTH 1000 0
DWIDTH 100 0
BBX 133 100 -16 -20
BITMAP
00000000003fffc000003fffc000000000
00000000003fffc000003fffc000000000
00000000003fffc000003fffc000000000
00000000007fff8000007fff8000000000
00000000007fff8000007fff8000000000
00000000007fff8000007fff8000000000
0000000000ffff000000ffff0000000000
0000000000ffff000000ffff0000000000
0000000000ffff000000ffff0000000000
0000000001fffe000001fffe0000000000
0000000000000000000000000000000000
0000000000000000000000000000000000
0000000000000000000000000000000000
0000000000000000000000000000000000
0000000000000000000000000000000000
0000000000000000000000000000000000
0000000000000000000000000000000000
0000000000000000000000000000000000
0000000000000000000000000000000000
0000000000000000000000000000000000
0000003fffc00000000003fffc00000000
0000007fff800000000007fff800000000
0000007fff800000000007fff800000000
0000007fff800000000007fff800000000
000000ffff00000000000ffff000000000
000000ffff00000000000ffff000000000
000000ffff00000000000ffff000000000
000001fffe00000000001fffe000000000
000001fffe00000000001fffe000000000
000001fffe00000000001fffe000000000
000003fffc00000000003fffc000000000
000003fffc00000000003fffc000000000
000003fffc00000000003fffc000000000
000007fff800000000007fff8000000000
000007fff800000000007fff8000000000
000007fff800000000007fff8000000000
00000ffff00000000000ffff0000000000
00000ffff00000000000ffff0000000000
00000ffff00000000000ffff0000000000
00001fffe00000000001fffe0000000000
00001fffe00000000001fffe0000000000
00001fffe00000000001fffe0000000000
00003fffc00000000003fffc0000000000
00003fffc00000000003fffc0000000000
00003fffc00000000003fffc0000000000
00007fff800000000007fff80000000000
00007fff800000000007fff80000000000
00007fff800000000007fff80000000000
0000ffff00000000000ffff00000000000
0000ffff00000000000ffff00000000000
0000ffff00000000000ffff00000000000
0001fffe00000000001fffe00000000000
0001fffe00000000001fffe00000000000
0001fffe00000000001fffe00000000000
0003fffc00000000003fffc00000000000
0003fffc00000000003fffc00000000000
0003fffc00000000003fffc00000000000
0007fff800000000007fff800000000000
0007fff800000000007fff800000000000
0007fff800000000007fff800000000000
000ffff00000000000ffff000000000000
000ffff00000000000ffff000000000000
000ffff00000000000ffff000000000000
001fffe00000000001fffe000000000000
001fffe00000000001fffe000000000000
001fffe00000000001fffe000000000000
003fffc00000000003fffc000000000000
003fffc00000000003fffc000000000000
003fffc00000000003fffc000000000000
007fff800000000007fff8000000000000
00001fffffffffffffe000000000000000
00001fffffffffffffe000000000000000
00003fffffffffffffc000000000000000
00003fffffffffffffc000000000000000
00003fffffffffffffc000000000000000
00007fffffffffffff8000000000000000
00007fffffffffffff8000000000000000
00007fffffffffffff8000000000000000
0000ffffffffffffff0000000000000000
0000ffffffffffffff0000000000000000
0000000000000000000000000000000000
0000000000000000000000000000000000
0000000000000000000000000000000000
0000000000000000000000000000000000
0000000000000000000000000000000000
0000000000000000000000000000000000
0000000000000000000000000000000000
0000000000000000000000000000000000
0000000000000000000000000000000000
0000000000000000000000000000000000
0000000000000000000000000000000000
0000000000000000000000000000000000
0000000000000000000000000000000000
0000000000000000000000000000000000
0000000000000000000000000000000000
0000000000000000000000000000000000
0000000000000000000000000000000000
0000000000000000000000000000000000
0000000000000000000000000000000000
0000000000000000000000000000000000
ENDCHAR
STARTCHAR U+00DB
ENCODING 219
SWIDTH 1000 0
DWIDTH 100 0
BBX 133 100 -16 -20
BITMAP
0000000000000003fffc00000000000000
0000000000000003fffc00000000000000
0000000000000003fffc00000000000000
0000000000000007fff800000000000000
0000000000000007fff800000000000000
0000000000000007fff800000000000000
000000000000000ffff000000000000000
000000000000000ffff000000000000000
000000000000000ffff000000000000000
000000000000001fffe000000000000000
0000000000007fff87fff8000000000000
0000000000007fff87fff8000000000000
000000000000ffff0ffff0000000000000
000000000000ffff0ffff0000000000000
000000000000ffff0ffff0000000000000
000000000001fffe1fffe0000000000000
000000000001fffe1fffe0000000000000
000000000001fffe1fffe0000000000000
000000000003fffc3fffc0000000000000
000000000003fffc3fffc0000000000000
0000003fffc00000000003fffc00000000
0000007fff800000000007fff800000000
0000007fff800000000007fff800000000
0000007fff800000000007fff800000000
000000ffff00000000000ffff000000000
000000ffff00000000000ffff000000000
000000ffff00000000000ffff000000000
000001fffe00000000001fffe000000000
000001fffe00000000001fffe000000000
000001fffe00000000001fffe000000000
000003fffc00000000003fffc000000000
000003fffc00000000003fffc000000000
000003fffc00000000003fffc000000000
000007fff800000000007fff8000000000
000007fff800000000007fff8000000000
000007fff800000000007fff8000000000
00000ffff00000000000ffff0000000000
00000ffff00000000000ffff0000000000
00000ffff00000000000ffff0000000000
00001fffe00000000001fffe0000000000
00001fffe00000000001fffe0000000000
00001fffe00000000001fffe0000000000
00003fffc00000000003fffc0000000000
00003fffc00000000003fffc0000000000
00003fffc00000000003fffc0000000000
00007fff800000000007fff80000000000
00007fff800000000007fff80000000000
00007fff800000000007fff80000000000
0000ffff00000000000ffff00000000000
0000ffff00000000000ffff00000000000
0000ffff00000000000ffff00000000000
0001fffe00000000001fffe00000000000
0001fffe00000000001fffe00000000000
0001fffe00000000001fffe00000000000
0003fffc00000000003fffc00000000000
0003fffc00000000003fffc00000000000
0003fffc00000000003fffc00000000000
0007fff800000000007fff800000000000
0007fff800000000007fff800000000000
0007fff800000000007fff800000000000
000ffff00000000000ffff000000000000
000ffff00000000000ffff000000000000
000ffff00000000000ffff000000000000
001fffe00000000001fffe000000000000
001fffe00000000001fffe000000000000
001fffe00000000001fffe000000000000
003fffc00000000003fffc000000000000
003fffc00000000003fffc000000000000
003fffc00000000003fffc000000000000
007fff800000000007fff8000000000000
00001fffffffffffffe000000000000000
00001fffffffffffffe000000000000000
00003fffffffffffffc000000000000000
00003fffffffffffffc000000000000000
00003fffffffffffffc000000000000000
00007fffffffffffff8000000000000000
00007fffffffffffff8000000000000000
00007fffffffffffff8000000000000000
0000ffffffffffffff0000000000000000
0000ffffffffffffff0000000000000000
0000000000000000000000000000000000
0000000000000000000000000000000000
0000000000000000000000000000000000
0000000000000000000000000000000000
0000000000000000000000000000000000
0000000000000000000000000000000000
0000000000000000000000000000000000
0000000000000000000000000000000000
0000000000000000000000000000000000
0000000000000000000000000000000000
0000000000000000000000000000000000
0000000000000000000000000000000000
0000000000000000000000000000000000
0000000000000000000000000000000000
0000000000000000000000000000000000
0000000000000000000000000000000000
0000000000000000000000000000000000
0000000000000000000000000000000000
0000000000000000000000000000000000
0000000000000000000000000000000000
ENDCHAR
STARTCHAR U+00DA
ENCODING 218
SWIDTH 1000 0
DWIDTH 100 0
BBX 133 100 -16 -20
BITMAP
000000000000000000ffffffc000000000
000000000000000000ffffffc000000000
000000000000000000ffffffc000000000
000000000000000001ffffff8000000000
000000000000000001ffffff8000000000
000000000000000001ffffff8000000000
000000000000000003ffffff0000000000
000000000000000003ffffff0000000000
000000000000000003ffffff0000000000
000000000000000007fffffe0000000000
0000000000007fffffe000000000000000
0000000000007fffffe000000000000000
000000000000ffffffc000000000000000
000000000000ffffffc000000000000000
000000000000ffffffc000000000000000
000000000001ffffff8000000000000000
000000000001ffffff8000000000000000
000000000001ffffff8000000000000000
000000000003ffffff0000000000000000
000000000003ffffff0000000000000000
0000003fffc00000000003fffc00000000
0000007fff800000000007fff800000000
0000007fff800000000007fff800000000
0000007fff800000000007fff800000000
000000ffff00000000000ffff000000000
000000ffff00000000000ffff000000000
000000ffff00000000000ffff000000000
000001fffe00000000001fffe000000000
000001fffe00000000001fffe000000000
000001fffe00000000001fffe000000000
000003fffc00000000003fffc000000000
000003fffc00000000003fffc000000000
000003fffc00000000003fffc000000000
000007fff800000000007fff8000000000
000007fff800000000007fff8000000000
000007fff800000000007fff8000000000
00000ffff00000000000ffff0000000000
00000ffff00000000000ffff0000000000
00000ffff00000000000ffff0000000000
00001fffe00000000001fffe0000000000
00001fffe00000000001fffe0000000000
00001fffe00000000001fffe0000000000
00003fffc00000000003fffc0000000000
00003fffc00000000003fffc0000000000
00003fffc00000000003fffc0000000000
00007fff800000000007fff80000000000
00007fff800000000007fff80000000000
00007fff800000000007fff80000000000
0000ffff00000000000ffff00000000000
0000ffff00000000000ffff00000000000
0000ffff00000000000ffff00000000000
0001fffe00000000001fffe00000000000
0001fffe00000000001fffe00000000000
0001fffe00000000001fffe00000000000
0003fffc00000000003fffc00000000000
0003fffc00000000003fffc00000000000
0003fffc00000000003fffc00000000000
0007fff800000000007fff800000000000
0007fff800000000007fff800000000000
0007fff800000000007fff800000000000
000ffff00000000000ffff000000000000
000ffff00000000000ffff000000000000
000ffff00000000000ffff000000000000
001fffe00000000001fffe000000000000
001fffe00000000001fffe000000000000
001fffe00000000001fffe000000000000
003fffc00000000003fffc000000000000
003fffc00000000003fffc000000000000
003fffc00000000003fffc000000000000
007fff800000000007fff8000000000000
00001fffffffffffffe000000000000000
00001fffffffffffffe000000000000000
00003fffffffffffffc000000000000000
00003fffffffffffffc000000000000000
00003fffffffffffffc000000000000000
00007fffffffffffff8000000000000000
00007fffffffffffff8000000000000000
00007fffffffffffff8000000000000000
0000ffffffffffffff0000000000000000
0000ffffffffffffff0000000000000000
0000000000000000000000000000000000
0000000000000000000000000000000000
0000000000000000000000000000000000
0000000000000000000000000000000000
0000000000000000000000000000000000
0000000000000000000000000000000000
0000000000000000000000000000000000
0000000000000000000000000000000000
0000000000000000000000000000000000
0000000000000000000000000000000000
0000000000000000000000000000000000
0000000000000000000000000000000000
0000000000000000000000000000000000
0000000000000000000000000000000000
0000000000000000000000000000000000
0000000000000000000000000000000000
0000000000000000000000000000000000
0000000000000000000000000000000000
0000000000000000000000000000000000
0000000000000000000000000000000000
ENDCHAR
STARTCHAR U+00D9
ENCODING 217
SWIDTH 1000 0
DWIDTH 100 0
BBX 133 100 -16 -20
BITMAP
00000000003ffffff00000000000000000
00000000003ffffff00000000000000000
00000000003ffffff00000000000000000
00000000007fffffe00000000000000000
00000000007fffffe00000000000000000
00000000007fffffe00000000000000000
0000000000ffffffc00000000000000000
0000000000ffffffc00000000000000000
0000000000ffffffc00000000000000000
0000000001ffffff800000000000000000
000000000000001ffffff8000000000000
000000000000001ffffff8000000000000
000000000000003ffffff0000000000000
000000000000003ffffff0000000000000
000000000000003ffffff0000000000000
000000000000007fffffe0000000000000
000000000000007fffffe0000000000000
000000000000007fffffe0000000000000
00000000000000ffffffc0000000000000
00000000000000ffffffc0000000000000
0000003fffc00000000003fffc00000000
0000007fff800000000007fff800000000
0000007fff800000000007fff800000000
0000007fff800000000007fff800000000
000000ffff00000000000ffff000000000
000000ffff00000000000ffff000000000
000000ffff00000000000ffff000000000
000001fffe00000000001fffe000000000
000001fffe00000000001fffe000000000
000001fffe00000000001fffe000000000
000003fffc00000000003fffc000000000
000003fffc00000000003fffc000000000
000003fffc00000000003fffc000000000
000007fff800000000007fff8000000000
000007fff800000000007fff8000000000
000007fff800000000007fff8000000000
00000ffff00000000000ffff0000000000
00000ffff00000000000ffff0000000000
00000ffff00000000000ffff0000000000
00001fffe00000000001fffe0000000000
00001fffe00000000001fffe0000000000
00001fffe00000000001fffe0000000000
00003fffc00000000003fffc0000000000
00003fffc00000000003fffc0000000000
00003fffc00000000003fffc0000000000
00007fff800000000007fff80000000000
00007fff800000000007fff80000000000
00007fff800000000007fff80000000000
0000ffff00000000000ffff00000000000
0000ffff00000000000ffff00000000000
0000ffff00000000000ffff00000000000
0001fffe00000000001fffe00000000000
0001fffe00000000001fffe00000000000
0001fffe00000000001fffe00000000000
0003fffc00000000003fffc00000000000
0003fffc00000000003fffc00000000000
0003fffc00000000003fffc00000000000
0007fff800000000007fff800000000000
0007fff800000000007fff800000000000
0007fff800000000007fff800000000000
000ffff00000000000ffff000000000000
000ffff00000000000ffff000000000000
000ffff00000000000ffff000000000000
001fffe00000000001fffe000000000000
001fffe00000000001fffe000000000000
001fffe00000000001fffe000000000000
003fffc00000000003fffc000000000000
003fffc00000000003fffc000000000000
003fffc00000000003fffc000000000000
007fff800000000007fff8000000000000
00001fffffffffffffe000000000000000
00001fffffffffffffe000000000000000
00003fffffffffffffc000000000000000
00003fffffffffffffc000000000000000
00003fffffffffffffc000000000000000
00007fffffffffffff8000000000000000
00007fffffffffffff8000000000000000
00007fffffffffffff8000000000000000
0000ffffffffffffff0000000000000000
0000ffffffffffffff0000000000000000
0000000000000000000000000000000000
0000000000000000000000000000000000
0000000000000000000000000000000000
0000000000000000000000000000000000
0000000000000000000000000000000000
0000000000000000000000000000000000
0000000000000000000000000000000000
0000000000000000000000000000000000
0000000000000000000000000000000000
0000000000000000000000000000000000
0000000000000000000000000000000000
0000000000000000000000000000000000
0000000000000000000000000000000000
0000000000000000000000000000000000
0000000000000000000000000000000000
0000000000000000000000000000000000
0000000000000000000000000000000000
0000000000000000000000000000000000
0000000000000000000000000000000000
0000000000000000000000000000000000
ENDCHAR
STARTCHAR U+00D8
ENCODING 216
SWIDTH 1000 0
DWIDTH 100 0
BBX 133 100 -16 -20
BITMAP
00000000000000000000000ffff0000000
00000000000000000000000ffff0000000
00000000000000000000000ffff0000000
00000000000000000000001fffe0000000
00000000000000000000001fffe0000000
00000000000000000000001fffe0000000
00000000000000000000003fffc0000000
00000000000000000000003fffc0000000
00000000000000000000003fffc0000000
00000000000000000000007fff80000000
0000000001fffffffffffffe0000000000
0000000001fffffffffffffe0000000000
0000000003fffffffffffffc0000000000
0000000003fffffffffffffc0000000000
0000000003fffffffffffffc0000000000
0000000007fffffffffffff80000000000
0000000007fffffffffffff80000000000
0000000007fffffffffffff80000000000
000000000ffffffffffffff00000000000
000000000ffffffffffffff00000000000
0000003fffc00000000ffffffc00000000
0000007fff800000001ffffff800000000
0000007fff800000001ffffff800000000
0000007fff800000001ffffff800000000
000000ffff000000003ffffff000000000
000000ffff000000003ffffff000000000
000000ffff000000003ffffff000000000
000001fffe000000007fffffe000000000
000001fffe000000007fffffe000000000
000001fffe000000007fffffe000000000
000003fffc000003fffc3fffc000000000
000003fffc000003fffc3fffc000000000
000003fffc000003fffc3fffc000000000
000007fff8000007fff87fff8000000000
000007fff8000007fff87fff8000000000
000007fff8000007fff87fff8000000000
00000ffff000000ffff0ffff0000000000
00000ffff000000ffff0ffff0000000000
00000ffff000000ffff0ffff0000000000
00001fffe000001fffe1fffe0000000000
00001fffe0007fff8001fffe0000000000
00001fffe0007fff8001fffe0000000000
00003fffc000ffff0003fffc0000000000
00003fffc000ffff0003fffc0000000000
00003fffc000ffff0003fffc0000000000
00007fff8001fffe0007fff80000000000
00007fff8001fffe0007fff80000000000
00007fff8001fffe0007fff80000000000
0000ffff0003fffc000ffff00000000000
0000ffff0003fffc000ffff00000000000
0000ffff0ffff000000ffff00000000000
0001fffe1fffe000001fffe00000000000
0001fffe1fffe000001fffe00000000000
0001fffe1fffe000001fffe00000000000
0003fffc3fffc000003fffc00000000000
0003fffc3fffc000003fffc00000000000
0003fffc3fffc000003fffc00000000000
0007fff87fff8000007fff800000000000
0007fff87fff8000007fff800000000000
0007fff87fff8000007fff800000000000
000ffffffc00000000ffff000000000000
000ffffffc00000000ffff000000000000
000ffffffc00000000ffff000000000000
001ffffff800000001fffe000000000000
001ffffff800000001fffe000000000000
001ffffff800000001fffe000000000000
003ffffff000000003fffc000000000000
003ffffff000000003fffc000000000000
003ffffff000000003fffc000000000000
007fffffe000000007fff8000000000000
00001fffffffffffffe000000000000000
00001fffffffffffffe000000000000000
00003fffffffffffffc000000000000000
00003fffffffffffffc000000000000000
00003fffffffffffffc000000000000000
00007fffffffffffff8000000000000000
00007fffffffffffff8000000000000000
00007fffffffffffff8000000000000000
0000ffffffffffffff0000000000000000
0000ffffffffffffff0000000000000000
03fffc0000000000000000000000000000
07fff80000000000000000000000000000
07fff80000000000000000000000000000
07fff80000000000000000000000000000
0ffff00000000000000000000000000000
0ffff00000000000000000000000000000
0ffff00000000000000000000000000000
1fffe00000000000000000000000000000
1fffe00000000000000000000000000000
1fffe00000000000000000000000000000
0000000000000000000000000000000000
0000000000000000000000000000000000
0000000000000000000000000000000000
0000000000000000000000000000000000
0000000000000000000000000000000000
0000000000000000000000000000000000
0000000000000000000000000000000000
0000000000000000000000000000000000
0000000000000000000000000000000000
0000000000000000000000000000000000
ENDCHAR
STARTCHAR U+0152
ENCODING 338
SWIDTH 1000 0
DWIDTH 100 0
BBX 133 100 -16 -20
BITMAP
0000000000000000000000000000000000
0000000000000000000000000000000000
0000000000000000000000000000000000
0000000000000000000000000000000000
0000000000000000000000000000000000
0000000000000000000000000000000000
0000000000000000000000000000000000
0000000000000000000000000000000000
0000000000000000000000000000000000
0000000000000000000000000000000000
0000000001ffffff87ffffffff80000000
0000000001ffffff87ffffffff80000000
0000000003ffffff0fffffffff00000000
0000000003ffffff0fffffffff00000000
0000000003ffffff0fffffffff00000000
0000000007fffffe1ffffffffe00000000
0000000007fffffe1ffffffffe00000000
0000000007fffffe1ffffffffe00000000
000000000ffffffc3ffffffffc00000000
000000000ffffffc3ffffffffc00000000
0000003fffc000ffff0000000000000000
0000007fff8001fffe0000000000000000
0000007fff8001fffe0000000000000000
0000007fff8001fffe0000000000000000
000000ffff0003fffc0000000000000000
000000ffff0003fffc0000000000000000
000000ffff0003fffc0000000000000000
000001fffe0007fff80000000000000000
000001fffe0007fff80000000000000000
000001fffe0007fff80000000000000000
000003fffc000ffff00000000000000000
000003fffc000ffff00000000000000000
000003fffc000ffff00000000000000000
000007fff8001fffe00000000000000000
000007fff8001fffe00000000000000000
000007fff8001fffe00000000000000000
00000ffff0003fffc00000000000000000
00000ffff0003fffc00000000000000000
00000ffff0003fffc00000000000000000
00001fffe0007fff800000000000000000
00001fffe0007ffffffff8000000000000
00001fffe0007ffffffff8000000000000
00003fffc000fffffffff0000000000000
00003fffc000fffffffff0000000000000
00003fffc000fffffffff0000000000000
00007fff8001ffffffffe0000000000000
00007fff8001ffffffffe0000000000000
00007fff8001ffffffffe0000000000000
0000ffff0003ffffffffc0000000000000
0000ffff0003ffffffffc0000000000000
0000ffff0003fffc000000000000000000
0001fffe0007fff8000000000000000000
0001fffe0007fff8000000000000000000
0001fffe0007fff8000000000000000000
0003fffc000ffff0000000000000000000
0003fffc000ffff0000000000000000000
0003fffc000ffff0000000000000000000
0007fff8001fffe0000000000000000000
0007fff8001fffe0000000000000000000
0007fff8001fffe0000000000000000000
000ffff0003fffc0000000000000000000
000ffff0003fffc0000000000000000000
000ffff0003fffc0000000000000000000
001fffe0007fff80000000000000000000
001fffe0007fff80000000000000000000
001fffe0007fff80000000000000000000
003fffc000ffff00000000000000000000
003fffc000ffff00000000000000000000
003fffc000ffff00000000000000000000
007fff8001fffe00000000000000000000
00001ffffff87ffffffff8000000000000
00001ffffff87ffffffff8000000000000
00003ffffff0fffffffff0000000000000
00003ffffff0fffffffff0000000000000
00003ffffff0fffffffff0000000000000
00007fffffe1ffffffffe0000000000000
00007fffffe1ffffffffe0000000000000
00007fffffe1ffffffffe0000000000000
0000ffffffc3ffffffffc0000000000000
0000ffffffc3ffffffffc0000000000000
0000000000000000000000000000000000
0000000000000000000000000000000000
0000000000000000000000000000000000
0000000000000000000000000000000000
0000000000000000000000000000000000
0000000000000000000000000000000000
0000000000000000000000000000000000
0000000000000000000000000000000000
0000000000000000000000000000000000
0000000000000000000000000000000000
0000000000000000000000000000000000
0000000000000000000000000000000000
0000000000000000000000000000000000
0000000000000000000000000000000000
0000000000000000000000000000000000
0000000000000000000000000000000000
0000000000000000000000000000000000
0000000000000000000000000000000000
0000000000000000000000000000000000
0000000000000000000000000000000000
ENDCHAR
STARTCHAR U+00D6
ENCODING 214
SWIDTH 1000 0
DWIDTH 100 0
BBX 133 100 -16 -20
BITMAP
00000000003fffc000003fffc000000000
00000000003fffc000003fffc000000000
00000000003fffc000003fffc000000000
00000000007fff8000007fff8000000000
00000000007fff8000007fff8000000000
00000000007fff8000007fff8000000000
0000000000ffff000000ffff0000000000
0000000000ffff000000ffff0000000000
0000000000ffff000000ffff0000000000
0000000001fffe000001fffe0000000000
0000000000000000000000000000000000
0000000000000000000000000000000000
0000000000000000000000000000000000
0000000000000000000000000000000000
0000000000000000000000000000000000
0000000000000000000000000000000000
0000000000000000000000000000000000
0000000000000000000000000000000000
0000000000000000000000000000000000
0000000000000000000000000000000000
000000000ffffffffffffff00000000000
000000001fffffffffffffe00000000000
000000001fffffffffffffe00000000000
000000001fffffffffffffe00000000000
000000003fffffffffffffc00000000000
000000003fffffffffffffc00000000000
000000003fffffffffffffc00000000000
000000007fffffffffffff800000000000
000000007fffffffffffff800000000000
000000007fffffffffffff800000000000
000003fffc00000000003fffc000000000
000003fffc00000000003fffc000000000
000003fffc00000000003fffc000000000
000007fff800000000007fff8000000000
000007fff800000000007fff8000000000
000007fff800000000007fff8000000000
00000ffff00000000000ffff0000000000
00000ffff00000000000ffff0000000000
00000ffff00000000000ffff0000000000
00001fffe00000000001fffe0000000000
00001fffe00000000001fffe0000000000
00001fffe00000000001fffe0000000000
00003fffc00000000003fffc0000000000
00003fffc00000000003fffc0000000000
00003fffc00000000003fffc0000000000
00007fff800000000007fff80000000000
00007fff800000000007fff80000000000
00007fff800000000007fff80000000000
0000ffff00000000000ffff00000000000
0000ffff00000000000ffff00000000000
0000ffff00000000000ffff00000000000
0001fffe00000000001fffe00000000000
0001fffe00000000001fffe00000000000
0001fffe00000000001fffe00000000000
0003fffc00000000003fffc00000000000
0003fffc00000000003fffc00000000000
0003fffc00000000003fffc00000000000
0007fff800000000007fff800000000000
0007fff800000000007fff800000000000
0007fff800000000007fff800000000000
000ffff00000000000ffff000000000000
000ffff00000000000ffff000000000000
000ffff00000000000ffff000000000000
001fffe00000000001fffe000000000000
001fffe00000000001fffe000000000000
001fffe00000000001fffe000000000000
003fffc00000000003fffc000000000000
003fffc00000000003fffc000000000000
003fffc00000000003fffc000000000000
007fff800000000007fff8000000000000
00001fffffffffffffe000000000000000
00001fffffffffffffe000000000000000
00003fffffffffffffc000000000000000
00003fffffffffffffc000000000000000
00003fffffffffffffc000000000000000
00007fffffffffffff8000000000000000
00007fffffffffffff8000000000000000
00007fffffffffffff8000000000000000
0000ffffffffffffff0000000000000000
0000ffffffffffffff0000000000000000
0000000000000000000000000000000000
0000000000000000000000000000000000
0000000000000000000000000000000000
0000000000000000000000000000000000
0000000000000000000000000000000000
0000000000000000000000000000000000
0000000000000000000000000000000000
0000000000000000000000000000000000
0000000000000000000000000000000000
0000000000000000000000000000000000
0000000000000000000000000000000000
0000000000000000000000000000000000
0000000000000000000000000000000000
0000000000000000000000000000000000
0000000000000000000000000000000000
0000000000000000000000000000000000
0000000000000000000000000000000000
0000000000000000000000000000000000
0000000000000000000000000000000000
0000000000000000000000000000000000
ENDCHAR
STARTCHAR U+00D5
ENCODING 213
SWIDTH 1000 0
DWIDTH 100 0
BBX 133 100 -16 -20
BITMAP
00000000003ffffff0003fffc000000000
00000000003ffffff0003fffc000000000
00000000003ffffff0003fffc000000000
00000000007fffffe0007fff8000000000
00000000007fffffe0007fff8000000000
00000000007fffffe0007fff8000000000
0000000000ffffffc000ffff0000000000
0000000000ffffffc000ffff0000000000
0000000000ffffffc000ffff0000000000
0000000001ffffff8001fffe0000000000
00000007fff8001ffffff8000000000000
00000007fff8001ffffff8000000000000
0000000ffff0003ffffff0000000000000
0000000ffff0003ffffff0000000000000
0000000ffff0003ffffff0000000000000
0000001fffe0007fffffe0000000000000
0000001fffe0007fffffe0000000000000
0000001fffe0007fffffe0000000000000
0000003fffc000ffffffc0000000000000
0000003fffc000ffffffc0000000000000
000000000ffffffffffffff00000000000
000000001fffffffffffffe00000000000
000000001fffffffffffffe00000000000
000000001fffffffffffffe00000000000
000000003fffffffffffffc00000000000
000000003fffffffffffffc00000000000
000000003fffffffffffffc00000000000
000000007fffffffffffff800000000000
000000007fffffffffffff800000000000
000000007fffffffffffff800000000000
000003fffc00000000003fffc000000000
000003fffc00000000003fffc000000000
000003fffc00000000003fffc000000000
000007fff800000000007fff8000000000
000007fff800000000007fff8000000000
000007fff800000000007fff8000000000
00000ffff00000000000ffff0000000000
00000ffff00000000000ffff0000000000
00000ffff00000000000ffff0000000000
00001fffe00000000001fffe0000000000
00001fffe00000000001fffe0000000000
00001fffe00000000001fffe0000000000
00003fffc00000000003fffc0000000000
00003fffc00000000003fffc0000000000
00003fffc00000000003fffc0000000000
00007fff800000000007fff80000000000
00007fff800000000007fff80000000000
00007fff800000000007fff80000000000
0000ffff00000000000ffff00000000000
0000ffff00000000000ffff00000000000
0000ffff00000000000ffff00000000000
0001fffe00000000001fffe00000000000
0001fffe00000000001fffe00000000000
0001fffe00000000001fffe00000000000
0003fffc00000000003fffc00000000000
0003fffc00000000003fffc00000000000
0003fffc00000000003fffc00000000000
0007fff800000000007fff800000000000
0007fff800000000007fff800000000000
0007fff800000000007fff800000000000
000ffff00000000000ffff000000000000
000ffff00000000000ffff000000000000
000ffff00000000000ffff000000000000
001fffe00000000001fffe000000000000
001fffe00000000001fffe000000000000
001fffe00000000001fffe000000000000
003fffc00000000003fffc000000000000
003fffc00000000003fffc000000000000
003fffc00000000003fffc000000000000
007fff800000000007fff8000000000000
00001fffffffffffffe000000000000000
00001fffffffffffffe000000000000000
00003fffffffffffffc000000000000000
00003fffffffffffffc000000000000000
00003fffffffffffffc000000000000000
00007fffffffffffff8000000000000000
00007fffffffffffff8000000000000000
00007fffffffffffff8000000000000000
0000ffffffffffffff0000000000000000
0000ffffffffffffff0000000000000000
0000000000000000000000000000000000
0000000000000000000000000000000000
0000000000000000000000000000000000
0000000000000000000000000000000000
0000000000000000000000000000000000
0000000000000000000000000000000000
0000000000000000000000000000000000
0000000000000000000000000000000000
0000000000000000000000000000000000
0000000000000000000000000000000000
0000000000000000000000000000000000
0000000000000000000000000000000000
0000000000000000000000000000000000
0000000000000000000000000000000000
0000000000000000000000000000000000
0000000000000000000000000000000000
0000000000000000000000000000000000
0000000000000000000000000000000000
0000000000000000000000000000000000
0000000000000000000000000000000000
ENDCHAR
STARTCHAR U+00D4
ENCODING 212
SWIDTH 1000 0
DWIDTH 100 0
BBX 133 100 -16 -20
BITMAP
0000000000000fffffffff000000000000
0000000000000fffffffff000000000000
0000000000000fffffffff000000000000
0000000000001ffffffffe000000000000
0000000000001ffffffffe000000000000
0000000000001ffffffffe000000000000
0000000000003ffffffffc000000000000
0000000000003ffffffffc000000000000
0000000000003ffffffffc000000000000
0000000000007ffffffff8000000000000
0000000001fffe000001fffe0000000000
0000000001fffe000001fffe0000000000
0000000003fffc000003fffc0000000000
0000000003fffc000003fffc0000000000
0000000003fffc000003fffc0000000000
0000000007fff8000007fff80000000000
0000000007fff8000007fff80000000000
0000000007fff8000007fff80000000000
000000000ffff000000ffff00000000000
000000000ffff000000ffff00000000000
000000000ffffffffffffff00000000000
000000001fffffffffffffe00000000000
000000001fffffffffffffe00000000000
000000001fffffffffffffe00000000000
000000003fffffffffffffc00000000000
000000003fffffffffffffc00000000000
000000003fffffffffffffc00000000000
000000007fffffffffffff800000000000
000000007fffffffffffff800000000000
000000007fffffffffffff800000000000
000003fffc00000000003fffc000000000
000003fffc00000000003fffc000000000
000003fffc00000000003fffc000000000
000007fff800000000007fff8000000000
000007fff800000000007fff8000000000
000007fff800000000007fff8000000000
00000ffff00000000000ffff0000000000
00000ffff00000000000ffff0000000000
00000ffff00000000000ffff0000000000
00001fffe00000000001fffe0000000000
00001fffe00000000001fffe0000000000
00001fffe00000000001fffe0000000000
00003fffc00000000003fffc0000000000
00003fffc00000000003fffc0000000000
00003fffc00000000003fffc0000000000
00007fff800000000007fff80000000000
00007fff800000000007fff80000000000
00007fff800000000007fff80000000000
0000ffff00000000000ffff00000000000
0000ffff00000000000ffff00000000000
0000ffff00000000000ffff00000000000
0001fffe00000000001fffe00000000000
0001fffe00000000001fffe00000000000
0001fffe00000000001fffe00000000000
0003fffc00000000003fffc00000000000
0003fffc00000000003fffc00000000000
0003fffc00000000003fffc00000000000
0007fff800000000007fff800000000000
0007fff800000000007fff800000000000
0007fff800000000007fff800000000000
000ffff00000000000ffff000000000000
000ffff00000000000ffff000000000000
000ffff00000000000ffff000000000000
001fffe00000000001fffe000000000000
001fffe00000000001fffe000000000000
001fffe00000000001fffe000000000000
003fffc00000000003fffc000000000000
003fffc00000000003fffc000000000000
003fffc00000000003fffc000000000000
007fff800000000007fff8000000000000
00001fffffffffffffe000000000000000
00001fffffffffffffe000000000000000
00003fffffffffffffc000000000000000
00003fffffffffffffc000000000000000
00003fffffffffffffc000000000000000
00007fffffffffffff8000000000000000
00007fffffffffffff8000000000000000
00007fffffffffffff8000000000000000
0000ffffffffffffff0000000000000000
0000ffffffffffffff0000000000000000
0000000000000000000000000000000000
0000000000000000000000000000000000
0000000000000000000000000000000000
0000000000000000000000000000000000
0000000000000000000000000000000000
0000000000000000000000000000000000
0000000000000000000000000000000000
0000000000000000000000000000000000
0000000000000000000000000000000000
0000000000000000000000000000000000
0000000000000000000000000000000000
0000000000000000000000000000000000
0000000000000000000000000000000000
0000000000000000000000000000000000
0000000000000000000000000000000000
0000000000000000000000000000000000
0000000000000000000000000000000000
0000000000000000000000000000000000
0000000000000000000000000000000000
0000000000000000000000000000000000
ENDCHAR
STARTCHAR U+00D3
ENCODING 211
SWIDTH 1000 0
DWIDTH 100 0
BBX 133 100 -16 -20
BITMAP
0000000000000003ffffff000000000000
0000000000000003ffffff000000000000
0000000000000003ffffff000000000000
0000000000000007fffffe000000000000
0000000000000007fffffe000000000000
0000000000000007fffffe000000000000
000000000000000ffffffc000000000000
000000000000000ffffffc000000000000
000000000000000ffffffc000000000000
000000000000001ffffff8000000000000
0000000001ffffff800000000000000000
0000000001ffffff800000000000000000
0000000003ffffff000000000000000000
0000000003ffffff000000000000000000
0000000003ffffff000000000000000000
0000000007fffffe000000000000000000
0000000007fffffe000000000000000000
0000000007fffffe000000000000000000
000000000ffffffc000000000000000000
000000000ffffffc000000000000000000
000000000ffffffffffffff00000000000
000000001fffffffffffffe00000000000
000000001fffffffffffffe00000000000
000000001fffffffffffffe00000000000
000000003fffffffffffffc00000000000
000000003fffffffffffffc00000000000
000000003fffffffffffffc00000000000
000000007fffffffffffff800000000000
000000007fffffffffffff800000000000
000000007fffffffffffff800000000000
000003fffc00000000003fffc000000000
000003fffc00000000003fffc000000000
000003fffc00000000003fffc000000000
000007fff800000000007fff8000000000
000007fff800000000007fff8000000000
000007fff800000000007fff8000000000
00000ffff00000000000ffff0000000000
00000ffff00000000000ffff0000000000
00000ffff00000000000ffff0000000000
00001fffe00000000001fffe0000000000
00001fffe00000000001fffe0000000000
00001fffe00000000001fffe0000000000
00003fffc00000000003fffc0000000000
00003fffc00000000003fffc0000000000
00003fffc00000000003fffc0000000000
00007fff800000000007fff80000000000
00007fff800000000007fff80000000000
00007fff800000000007fff80000000000
0000ffff00000000000ffff00000000000
0000ffff00000000000ffff00000000000
0000ffff00000000000ffff00000000000
0001fffe00000000001fffe00000000000
0001fffe00000000001fffe00000000000
0001fffe00000000001fffe00000000000
0003fffc00000000003fffc00000000000
0003fffc00000000003fffc00000000000
0003fffc00000000003fffc00000000000
0007fff800000000007fff800000000000
0007fff800000000007fff800000000000
0007fff800000000007fff800000000000
000ffff00000000000ffff000000000000
000ffff00000000000ffff000000000000
000ffff00000000000ffff000000000000
001fffe00000000001fffe000000000000
001fffe00000000001fffe000000000000
001fffe00000000001fffe000000000000
003fffc00000000003fffc000000000000
003fffc00000000003fffc000000000000
003fffc00000000003fffc000000000000
007fff800000000007fff8000000000000
00001fffffffffffffe000000000000000
00001fffffffffffffe000000000000000
00003fffffffffffffc000000000000000
00003fffffffffffffc000000000000000
00003fffffffffffffc000000000000000
00007fffffffffffff8000000000000000
00007fffffffffffff8000000000000000
00007fffffffffffff8000000000000000
0000ffffffffffffff0000000000000000
0000ffffffffffffff0000000000000000
0000000000000000000000000000000000
0000000000000000000000000000000000
0000000000000000000000000000000000
0000000000000000000000000000000000
0000000000000000000000000000000000
0000000000000000000000000000000000
0000000000000000000000000000000000
0000000000000000000000000000000000
0000000000000000000000000000000000
0000000000000000000000000000000000
0000000000000000000000000000000000
0000000000000000000000000000000000
0000000000000000000000000000000000
0000000000000000000000000000000000
0000000000000000000000000000000000
0000000000000000000000000000000000
0000000000000000000000000000000000
0000000000000000000000000000000000
0000000000000000000000000000000000
0000000000000000000000000000000000
ENDCHAR
STARTCHAR U+00D2
ENCODING 210
SWIDTH 1000 0
DWIDTH 100 0
BBX 133 100 -16 -20
BITMAP
0000000000000ffffffc00000000000000
0000000000000ffffffc00000000000000
0000000000000ffffffc00000000000000
0000000000001ffffff800000000000000
0000000000001ffffff800000000000000
0000000000001ffffff800000000000000
0000000000003ffffff000000000000000
0000000000003ffffff000000000000000
0000000000003ffffff000000000000000
0000000000007fffffe000000000000000
000000000000000007fffffe0000000000
000000000000000007fffffe0000000000
00000000000000000ffffffc0000000000
00000000000000000ffffffc0000000000
00000000000000000ffffffc0000000000
00000000000000001ffffff80000000000
00000000000000001ffffff80000000000
00000000000000001ffffff80000000000
00000000000000003ffffff00000000000
00000000000000003ffffff00000000000
000000000ffffffffffffff00000000000
000000001fffffffffffffe00000000000
000000001fffffffffffffe00000000000
000000001fffffffffffffe00000000000
000000003fffffffffffffc00000000000
000000003fffffffffffffc00000000000
000000003fffffffffffffc00000000000
000000007fffffffffffff800000000000
000000007fffffffffffff800000000000
000000007fffffffffffff800000000000
000003fffc00000000003fffc000000000
000003fffc00000000003fffc000000000
000003fffc00000000003fffc000000000
000007fff800000000007fff8000000000
000007fff800000000007fff8000000000
000007fff800000000007fff8000000000
00000ffff00000000000ffff0000000000
00000ffff00000000000ffff0000000000
00000ffff00000000000ffff0000000000
00001fffe00000000001fffe0000000000
00001fffe00000000001fffe0000000000
00001fffe00000000001fffe0000000000
00003fffc00000000003fffc0000000000
00003fffc00000000003fffc0000000000
00003fffc00000000003fffc0000000000
00007fff800000000007fff80000000000
00007fff800000000007fff80000000000
00007fff800000000007fff80000000000
0000ffff00000000000ffff00000000000
0000ffff00000000000ffff00000000000
0000ffff00000000000ffff00000000000
0001fffe00000000001fffe00000000000
0001fffe00000000001fffe00000000000
0001fffe00000000001fffe00000000000
0003fffc00000000003fffc00000000000
0003fffc00000000003fffc00000000000
0003fffc00000000003fffc00000000000
0007fff800000000007fff800000000000
0007fff800000000007fff800000000000
0007fff800000000007fff800000000000
000ffff00000000000ffff000000000000
000ffff00000000000ffff000000000000
000ffff00000000000ffff000000000000
001fffe00000000001fffe000000000000
001fffe00000000001fffe000000000000
001fffe00000000001fffe000000000000
003fffc00000000003fffc000000000000
003fffc00000000003fffc000000000000
003fffc00000000003fffc000000000000
007fff800000000007fff8000000000000
00001fffffffffffffe000000000000000
00001fffffffffffffe000000000000000
00003fffffffffffffc000000000000000
00003fffffffffffffc000000000000000
00003fffffffffffffc000000000000000
00007fffffffffffff8000000000000000
00007fffffffffffff8000000000000000
00007fffffffffffff8000000000000000
0000ffffffffffffff0000000000000000
0000ffffffffffffff0000000000000000
0000000000000000000000000000000000
0000000000000000000000000000000000
0000000000000000000000000000000000
0000000000000000000000000000000000
0000000000000000000000000000000000
0000000000000000000000000000000000
0000000000000000000000000000000000
0000000000000000000000000000000000
0000000000000000000000000000000000
0000000000000000000000000000000000
0000000000000000000000000000000000
0000000000000000000000000000000000
0000000000000000000000000000000000
0000000000000000000000000000000000
0000000000000000000000000000000000
0000000000000000000000000000000000
0000000000000000000000000000000000
0000000000000000000000000000000000
0000000000000000000000000000000000
0000000000000000000000000000000000
ENDCHAR
STARTCHAR U+00D1
ENCODING 209
SWIDTH 1000 0
DWIDTH 100 0
BBX 133 100 -16 -20
BITMAP
0000000000000ffffffc000ffff0000000
0000000000000ffffffc000ffff0000000
0000000000000ffffffc000ffff0000000
0000000000001ffffff8001fffe0000000
0000000000001ffffff8001fffe0000000
0000000000001ffffff8001fffe0000000
0000000000003ffffff0003fffc0000000
0000000000003ffffff0003fffc0000000
0000000000003ffffff0003fffc0000000
0000000000007fffffe0007fff80000000
0000000001fffe0007fffffe0000000000
0000000001fffe0007fffffe0000000000
0000000003fffc000ffffffc0000000000
0000000003fffc000ffffffc0000000000
0000000003fffc000ffffffc0000000000
0000000007fff8001ffffff80000000000
0000000007fff8001ffffff80000000000
0000000007fff8001ffffff80000000000
000000000ffff0003ffffff00000000000
000000000ffff0003ffffff00000000000
0000003ffffff000000003fffc00000000
0000007fffffe000000007fff800000000
0000007fffffe000000007fff800000000
0000007fffffe000000007fff800000000
000000ffffffc00000000ffff000000000
000000ffffffc00000000ffff000000000
000000ffffffc00000000ffff000000000
000001ffffff800000001fffe000000000
000001ffffff800000001fffe000000000
000001ffffff800000001fffe000000000
000003fffc3fffc000003fffc000000000
000003fffc3fffc000003fffc000000000
000003fffc3fffc000003fffc000000000
000007fff87fff8000007fff8000000000
000007fff87fff8000007fff8000000000
000007fff87fff8000007fff8000000000
00000ffff0ffff000000ffff0000000000
00000ffff0ffff000000ffff0000000000
00000ffff0ffff000000ffff0000000000
00001fffe1fffe000001fffe0000000000
00001fffe0007fff8001fffe0000000000
00001fffe0007fff8001fffe0000000000
00003fffc000ffff0003fffc0000000000
00003fffc000ffff0003fffc0000000000
00003fffc000ffff0003fffc0000000000
00007fff8001fffe0007fff80000000000
00007fff8001fffe0007fff80000000000
00007fff8001fffe0007fff80000000000
0000ffff0003fffc000ffff00000000000
0000ffff0003fffc000ffff00000000000
0000ffff000000ffff0ffff00000000000
0001fffe000001fffe1fffe00000000000
0001fffe000001fffe1fffe00000000000
0001fffe000001fffe1fffe00000000000
0003fffc000003fffc3fffc00000000000
0003fffc000003fffc3fffc00000000000
0003fffc000003fffc3fffc00000000000
0007fff8000007fff87fff800000000000
0007fff8000007fff87fff800000000000
0007fff8000007fff87fff800000000000
000ffff000000003ffffff000000000000
000ffff000000003ffffff000000000000
000ffff000000003ffffff000000000000
001fffe000000007fffffe000000000000
001fffe000000007fffffe000000000000
001fffe000000007fffffe000000000000
003fffc00000000ffffffc000000000000
003fffc00000000ffffffc000000000000
003fffc00000000ffffffc000000000000
007fff800000001ffffff8000000000000
007fff800000000007fff8000000000000
007fff800000000007fff8000000000000
00ffff00000000000ffff0000000000000
00ffff00000000000ffff0000000000000
00ffff00000000000ffff0000000000000
01fffe00000000001fffe0000000000000
01fffe00000000001fffe0000000000000
01fffe00000000001fffe0000000000000
03fffc00000000003fffc0000000000000
03fffc00000000003fffc0000000000000
0000000000000000000000000000000000
0000000000000000000000000000000000
0000000000000000000000000000000000
0000000000000000000000000000000000
0000000000000000000000000000000000
0000000000000000000000000000000000
0000000000000000000000000000000000
0000000000000000000000000000000000
0000000000000000000000000000000000
0000000000000000000000000000000000
0000000000000000000000000000000000
0000000000000000000000000000000000
0000000000000000000000000000000000
0000000000000000000000000000000000
0000000000000000000000000000000000
0000000000000000000000000000000000
0000000000000000000000000000000000
0000000000000000000000000000000000
0000000000000000000000000000000000
0000000000000000000000000000000000
ENDCHAR
STARTCHAR U+00D0
ENCODING 208
SWIDTH 1000 0
DWIDTH 100 0
BBX 133 100 -16 -20
BITMAP
0000000000000000000000000000000000
0000000000000000000000000000000000
0000000000000000000000000000000000
0000000000000000000000000000000000
0000000000000000000000000000000000
0000000000000000000000000000000000
0000000000000000000000000000000000
0000000000000000000000000000000000
0000000000000000000000000000000000
0000000000000000000000000000000000
00000007fffffffffffff8000000000000
00000007fffffffffffff8000000000000
0000000ffffffffffffff0000000000000
0000000ffffffffffffff0000000000000
0000000ffffffffffffff0000000000000
0000001fffffffffffffe0000000000000
0000001fffffffffffffe0000000000000
0000001fffffffffffffe0000000000000
0000003fffffffffffffc0000000000000
0000003fffffffffffffc0000000000000
000000000ffff000000ffff00000000000
000000001fffe000001fffe00000000000
000000001fffe000001fffe00000000000
000000001fffe000001fffe00000000000
000000003fffc000003fffc00000000000
000000003fffc000003fffc00000000000
000000003fffc000003fffc00000000000
000000007fff8000007fff800000000000
000000007fff8000007fff800000000000
000000007fff8000007fff800000000000
00000000ffff000000003fffc000000000
00000000ffff000000003fffc000000000
00000000ffff000000003fffc000000000
00000001fffe000000007fff8000000000
00000001fffe000000007fff8000000000
00000001fffe000000007fff8000000000
00000003fffc00000000ffff0000000000
00000003fffc00000000ffff0000000000
00000003fffc00000000ffff0000000000
00000007fff800000001fffe0000000000
00001fffffffffff8001fffe0000000000
00001fffffffffff8001fffe0000000000
00003fffffffffff0003fffc0000000000
00003fffffffffff0003fffc0000000000
00003fffffffffff0003fffc0000000000
00007ffffffffffe0007fff80000000000
00007ffffffffffe0007fff80000000000
00007ffffffffffe0007fff80000000000
0000fffffffffffc000ffff00000000000
0000fffffffffffc000ffff00000000000
0000003fffc00000000ffff00000000000
0000007fff800000001fffe00000000000
0000007fff800000001fffe00000000000
0000007fff800000001fffe00000000000
000000ffff000000003fffc00000000000
000000ffff000000003fffc00000000000
000000ffff000000003fffc00000000000
000001fffe000000007fff800000000000
000001fffe000000007fff800000000000
000001fffe000000007fff800000000000
000003fffc000003fffc00000000000000
000003fffc000003fffc00000000000000
000003fffc000003fffc00000000000000
000007fff8000007fff800000000000000
000007fff8000007fff800000000000000
000007fff8000007fff800000000000000
00000ffff000000ffff000000000000000
00000ffff000000ffff000000000000000
00000ffff000000ffff000000000000000
00001fffe000001fffe000000000000000
007fffffffffffff800000000000000000
007fffffffffffff800000000000000000
00ffffffffffffff000000000000000000
00ffffffffffffff000000000000000000
00ffffffffffffff000000000000000000
01fffffffffffffe000000000000000000
01fffffffffffffe000000000000000000
01fffffffffffffe000000000000000000
03fffffffffffffc000000000000000000
03fffffffffffffc000000000000000000
0000000000000000000000000000000000
0000000000000000000000000000000000
0000000000000000000000000000000000
0000000000000000000000000000000000
0000000000000000000000000000000000
0000000000000000000000000000000000
0000000000000000000000000000000000
0000000000000000000000000000000000
0000000000000000000000000000000000
0000000000000000000000000000000000
0000000000000000000000000000000000
0000000000000000000000000000000000
0000000000000000000000000000000000
0000000000000000000000000000000000
0000000000000000000000000000000000
0000000000000000000000000000000000
0000000000000000000000000000000000
0000000000000000000000000000000000
0000000000000000000000000000000000
0000000000000000000000000000000000
ENDCHAR
STARTCHAR U+00CF
ENCODING 207
SWIDTH 1000 0
DWIDTH 100 0
BBX 133 100 -16 -20
BITMAP
00000000003fffc000003fffc000000000
00000000003fffc000003fffc000000000
00000000003fffc000003fffc000000000
00000000007fff8000007fff8000000000
00000000007fff8000007fff8000000000
00000000007fff8000007fff8000000000
0000000000ffff000000ffff0000000000
0000000000ffff000000ffff0000000000
0000000000ffff000000ffff0000000000
0000000001fffe000001fffe0000000000
0000000000000000000000000000000000
0000000000000000000000000000000000
0000000000000000000000000000000000
0000000000000000000000000000000000
0000000000000000000000000000000000
0000000000000000000000000000000000
0000000000000000000000000000000000
0000000000000000000000000000000000
0000000000000000000000000000000000
0000000000000000000000000000000000
000000000ffffffffffffff00000000000
000000001fffffffffffffe00000000000
000000001fffffffffffffe00000000000
000000001fffffffffffffe00000000000
000000003fffffffffffffc00000000000
000000003fffffffffffffc00000000000
000000003fffffffffffffc00000000000
000000007fffffffffffff800000000000
000000007fffffffffffff800000000000
000000007fffffffffffff800000000000
0000000000000ffff00000000000000000
0000000000000ffff00000000000000000
0000000000000ffff00000000000000000
0000000000001fffe00000000000000000
0000000000001fffe00000000000000000
0000000000001fffe00000000000000000
0000000000003fffc00000000000000000
0000000000003fffc00000000000000000
0000000000003fffc00000000000000000
0000000000007fff800000000000000000
0000000000007fff800000000000000000
0000000000007fff800000000000000000
000000000000ffff000000000000000000
000000000000ffff000000000000000000
000000000000ffff000000000000000000
000000000001fffe000000000000000000
000000000001fffe000000000000000000
000000000001fffe000000000000000000
000000000003fffc000000000000000000
000000000003fffc000000000000000000
000000000003fffc000000000000000000
000000000007fff8000000000000000000
000000000007fff8000000000000000000
000000000007fff8000000000000000000
00000000000ffff0000000000000000000
00000000000ffff0000000000000000000
00000000000ffff0000000000000000000
00000000001fffe0000000000000000000
00000000001fffe0000000000000000000
00000000001fffe0000000000000000000
00000000003fffc0000000000000000000
00000000003fffc0000000000000000000
00000000003fffc0000000000000000000
00000000007fff80000000000000000000
00000000007fff80000000000000000000
00000000007fff80000000000000000000
0000000000ffff00000000000000000000
0000000000ffff00000000000000000000
0000000000ffff00000000000000000000
0000000001fffe00000000000000000000
00001fffffffffffffe000000000000000
00001fffffffffffffe000000000000000
00003fffffffffffffc000000000000000
00003fffffffffffffc000000000000000
00003fffffffffffffc000000000000000
00007fffffffffffff8000000000000000
00007fffffffffffff8000000000000000
00007fffffffffffff8000000000000000
0000ffffffffffffff0000000000000000
0000ffffffffffffff0000000000000000
0000000000000000000000000000000000
0000000000000000000000000000000000
0000000000000000000000000000000000
0000000000000000000000000000000000
0000000000000000000000000000000000
0000000000000000000000000000000000
0000000000000000000000000000000000
0000000000000000000000000000000000
0000000000000000000000000000000000
0000000000000000000000000000000000
0000000000000000000000000000000000
0000000000000000000000000000000000
0000000000000000000000000000000000
0000000000000000000000000000000000
0000000000000000000000000000000000
0000000000000000000000000000000000
0000000000000000000000000000000000
0000000000000000000000000000000000
0000000000000000000000000000000000
0000000000000000000000000000000000
ENDCHAR
STARTCHAR U+00CE
ENCODING 206
SWIDTH 1000 0
DWIDTH 100 0
BBX 133 100 -16 -20
BITMAP
0000000000000fffffffff000000000000
0000000000000fffffffff000000000000
0000000000000fffffffff000000000000
0000000000001ffffffffe000000000000
0000000000001ffffffffe000000000000
0000000000001ffffffffe000000000000
0000000000003ffffffffc000000000000
0000000000003ffffffffc000000000000
0000000000003ffffffffc000000000000
0000000000007ffffffff8000000000000
0000000001fffe000001fffe0000000000
0000000001fffe000001fffe0000000000
0000000003fffc000003fffc0000000000
0000000003fffc000003fffc0000000000
0000000003fffc000003fffc0000000000
0000000007fff8000007fff80000000000
0000000007fff8000007fff80000000000
0000000007fff8000007fff80000000000
000000000ffff000000ffff00000000000
000000000ffff000000ffff00000000000
000000000ffffffffffffff00000000000
000000001fffffffffffffe00000000000
000000001fffffffffffffe00000000000
000000001fffffffffffffe00000000000
000000003fffffffffffffc00000000000
000000003fffffffffffffc00000000000
000000003fffffffffffffc00000000000
000000007fffffffffffff800000000000
000000007fffffffffffff800000000000
000000007fffffffffffff800000000000
0000000000000ffff00000000000000000
0000000000000ffff00000000000000000
0000000000000ffff00000000000000000
0000000000001fffe00000000000000000
0000000000001fffe00000000000000000
0000000000001fffe00000000000000000
0000000000003fffc00000000000000000
0000000000003fffc00000000000000000
0000000000003fffc00000000000000000
0000000000007fff800000000000000000
0000000000007fff800000000000000000
0000000000007fff800000000000000000
000000000000ffff000000000000000000
000000000000ffff000000000000000000
000000000000ffff000000000000000000
000000000001fffe000000000000000000
000000000001fffe000000000000000000
000000000001fffe000000000000000000
000000000003fffc000000000000000000
000000000003fffc000000000000000000
000000000003fffc000000000000000000
000000000007fff8000000000000000000
000000000007fff8000000000000000000
000000000007fff8000000000000000000
00000000000ffff0000000000000000000
00000000000ffff0000000000000000000
00000000000ffff0000000000000000000
00000000001fffe0000000000000000000
00000000001fffe0000000000000000000
00000000001fffe0000000000000000000
00000000003fffc0000000000000000000
00000000003fffc0000000000000000000
00000000003fffc0000000000000000000
00000000007fff80000000000000000000
00000000007fff80000000000000000000
00000000007fff80000000000000000000
0000000000ffff00000000000000000000
0000000000ffff00000000000000000000
0000000000ffff00000000000000000000
0000000001fffe00000000000000000000
00001fffffffffffffe000000000000000
00001fffffffffffffe000000000000000
00003fffffffffffffc000000000000000
00003fffffffffffffc000000000000000
00003fffffffffffffc000000000000000
00007fffffffffffff8000000000000000
00007fffffffffffff8000000000000000
00007fffffffffffff8000000000000000
0000ffffffffffffff0000000000000000
0000ffffffffffffff0000000000000000
0000000000000000000000000000000000
0000000000000000000000000000000000
0000000000000000000000000000000000
0000000000000000000000000000000000
0000000000000000000000000000000000
0000000000000000000000000000000000
0000000000000000000000000000000000
0000000000000000000000000000000000
0000000000000000000000000000000000
0000000000000000000000000000000000
0000000000000000000000000000000000
0000000000000000000000000000000000
0000000000000000000000000000000000
0000000000000000000000000000000000
0000000000000000000000000000000000
0000000000000000000000000000000000
0000000000000000000000000000000000
0000000000000000000000000000000000
0000000000000000000000000000000000
0000000000000000000000000000000000
ENDCHAR
STARTCHAR U+00CD
ENCODING 205
SWIDTH 1000 0
DWIDTH 100 0
BBX 133 100 -16 -20
BITMAP
0000000000000003ffffff000000000000
0000000000000003ffffff000000000000
0000000000000003ffffff000000000000
0000000000000007fffffe000000000000
0000000000000007fffffe000000000000
0000000000000007fffffe000000000000
000000000000000ffffffc000000000000
000000000000000ffffffc000000000000
000000000000000ffffffc000000000000
000000000000001ffffff8000000000000
0000000001ffffff800000000000000000
0000000001ffffff800000000000000000
0000000003ffffff000000000000000000
0000000003ffffff000000000000000000
0000000003ffffff000000000000000000
0000000007fffffe000000000000000000
0000000007fffffe000000000000000000
0000000007fffffe000000000000000000
000000000ffffffc000000000000000000
000000000ffffffc000000000000000000
000000000ffffffffffffff00000000000
000000001fffffffffffffe00000000000
000000001fffffffffffffe00000000000
000000001fffffffffffffe00000000000
000000003fffffffffffffc00000000000
000000003fffffffffffffc00000000000
000000003fffffffffffffc00000000000
000000007fffffffffffff800000000000
000000007fffffffffffff800000000000
000000007fffffffffffff800000000000
0000000000000ffff00000000000000000
0000000000000ffff00000000000000000
0000000000000ffff00000000000000000
0000000000001fffe00000000000000000
0000000000001fffe00000000000000000
0000000000001fffe00000000000000000
0000000000003fffc00000000000000000
0000000000003fffc00000000000000000
0000000000003fffc00000000000000000
0000000000007fff800000000000000000
0000000000007fff800000000000000000
0000000000007fff800000000000000000
000000000000ffff000000000000000000
000000000000ffff000000000000000000
000000000000ffff000000000000000000
000000000001fffe000000000000000000
000000000001fffe000000000000000000
000000000001fffe000000000000000000
000000000003fffc000000000000000000
000000000003fffc000000000000000000
000000000003fffc000000000000000000
000000000007fff8000000000000000000
000000000007fff8000000000000000000
000000000007fff8000000000000000000
00000000000ffff0000000000000000000
00000000000ffff0000000000000000000
00000000000ffff0000000000000000000
00000000001fffe0000000000000000000
00000000001fffe0000000000000000000
00000000001fffe0000000000000000000
00000000003fffc0000000000000000000
00000000003fffc0000000000000000000
00000000003fffc0000000000000000000
00000000007fff80000000000000000000
00000000007fff80000000000000000000
00000000007fff80000000000000000000
0000000000ffff00000000000000000000
0000000000ffff00000000000000000000
0000000000ffff00000000000000000000
0000000001fffe00000000000000000000
00001fffffffffffffe000000000000000
00001fffffffffffffe000000000000000
00003fffffffffffffc000000000000000
00003fffffffffffffc000000000000000
00003fffffffffffffc000000000000000
00007fffffffffffff8000000000000000
00007fffffffffffff8000000000000000
00007fffffffffffff8000000000000000
0000ffffffffffffff0000000000000000
0000ffffffffffffff0000000000000000
0000000000000000000000000000000000
0000000000000000000000000000000000
0000000000000000000000000000000000
0000000000000000000000000000000000
0000000000000000000000000000000000
0000000000000000000000000000000000
0000000000000000000000000000000000
0000000000000000000000000000000000
0000000000000000000000000000000000
0000000000000000000000000000000000
0000000000000000000000000000000000
0000000000000000000000000000000000
0000000000000000000000000000000000
0000000000000000000000000000000000
0000000000000000000000000000000000
0000000000000000000000000000000000
0000000000000000000000000000000000
0000000000000000000000000000000000
0000000000000000000000000000000000
0000000000000000000000000000000000
ENDCHAR
STARTCHAR U+00CC
ENCODING 204
SWIDTH 1000 0
DWIDTH 100 0
BBX 133 100 -16 -20
BITMAP
0000000000000ffffffc00000000000000
0000000000000ffffffc00000000000000
0000000000000ffffffc00000000000000
0000000000001ffffff800000000000000
0000000000001ffffff800000000000000
0000000000001ffffff800000000000000
0000000000003ffffff000000000000000
0000000000003ffffff000000000000000
0000000000003ffffff000000000000000
0000000000007fffffe000000000000000
000000000000000007fffffe0000000000
000000000000000007fffffe0000000000
00000000000000000ffffffc0000000000
00000000000000000ffffffc0000000000
00000000000000000ffffffc0000000000
00000000000000001ffffff80000000000
00000000000000001ffffff80000000000
00000000000000001ffffff80000000000
00000000000000003ffffff00000000000
00000000000000003ffffff00000000000
000000000ffffffffffffff00000000000
000000001fffffffffffffe00000000000
000000001fffffffffffffe00000000000
000000001fffffffffffffe00000000000
000000003fffffffffffffc00000000000
000000003fffffffffffffc00000000000
000000003fffffffffffffc00000000000
000000007fffffffffffff800000000000
000000007fffffffffffff800000000000
000000007fffffffffffff800000000000
0000000000000ffff00000000000000000
0000000000000ffff00000000000000000
0000000000000ffff00000000000000000
0000000000001fffe00000000000000000
0000000000001fffe00000000000000000
0000000000001fffe00000000000000000
0000000000003fffc00000000000000000
0000000000003fffc00000000000000000
0000000000003fffc00000000000000000
0000000000007fff800000000000000000
0000000000007fff800000000000000000
0000000000007fff800000000000000000
000000000000ffff000000000000000000
000000000000ffff000000000000000000
000000000000ffff000000000000000000
000000000001fffe000000000000000000
000000000001fffe000000000000000000
000000000001fffe000000000000000000
000000000003fffc000000000000000000
000000000003fffc000000000000000000
000000000003fffc000000000000000000
000000000007fff8000000000000000000
000000000007fff8000000000000000000
000000000007fff8000000000000000000
00000000000ffff0000000000000000000
00000000000ffff0000000000000000000
00000000000ffff0000000000000000000
00000000001fffe0000000000000000000
00000000001fffe0000000000000000000
00000000001fffe0000000000000000000
00000000003fffc0000000000000000000
00000000003fffc0000000000000000000
00000000003fffc0000000000000000000
00000000007fff80000000000000000000
00000000007fff80000000000000000000
00000000007fff80000000000000000000
0000000000ffff00000000000000000000
0000000000ffff00000000000000000000
0000000000ffff00000000000000000000
0000000001fffe00000000000000000000
00001fffffffffffffe000000000000000
00001fffffffffffffe000000000000000
00003fffffffffffffc000000000000000
00003fffffffffffffc000000000000000
00003fffffffffffffc000000000000000
00007fffffffffffff8000000000000000
00007fffffffffffff8000000000000000
00007fffffffffffff8000000000000000
0000ffffffffffffff0000000000000000
0000ffffffffffffff0000000000000000
0000000000000000000000000000000000
0000000000000000000000000000000000
0000000000000000000000000000000000
0000000000000000000000000000000000
0000000000000000000000000000000000
0000000000000000000000000000000000
0000000000000000000000000000000000
0000000000000000000000000000000000
0000000000000000000000000000000000
0000000000000000000000000000000000
0000000000000000000000000000000000
0000000000000000000000000000000000
0000000000000000000000000000000000
0000000000000000000000000000000000
0000000000000000000000000000000000
0000000000000000000000000000000000
0000000000000000000000000000000000
0000000000000000000000000000000000
0000000000000000000000000000000000
0000000000000000000000000000000000
ENDCHAR
STARTCHAR U+00CB
ENCODING 203
SWIDTH 1000 0
DWIDTH 100 0
BBX 133 100 -16 -20
BITMAP
00000000003fffc000003fffc000000000
00000000003fffc000003fffc000000000
00000000003fffc000003fffc000000000
00000000007fff8000007fff8000000000
00000000007fff8000007fff8000000000
00000000007fff8000007fff8000000000
0000000000ffff000000ffff0000000000
0000000000ffff000000ffff0000000000
0000000000ffff000000ffff0000000000
0000000001fffe000001fffe0000000000
0000000000000000000000000000000000
0000000000000000000000000000000000
0000000000000000000000000000000000
0000000000000000000000000000000000
0000000000000000000000000000000000
0000000000000000000000000000000000
0000000000000000000000000000000000
0000000000000000000000000000000000
0000000000000000000000000000000000
0000000000000000000000000000000000
0000003ffffffffffffffffffc00000000
0000007ffffffffffffffffff800000000
0000007ffffffffffffffffff800000000
0000007ffffffffffffffffff800000000
000000fffffffffffffffffff000000000
000000fffffffffffffffffff000000000
000000fffffffffffffffffff000000000
000001ffffffffffffffffffe000000000
000001ffffffffffffffffffe000000000
000001ffffffffffffffffffe000000000
000003fffc000000000000000000000000
000003fffc000000000000000000000000
000003fffc000000000000000000000000
000007fff8000000000000000000000000
000007fff8000000000000000000000000
000007fff8000000000000000000000000
00000ffff0000000000000000000000000
00000ffff0000000000000000000000000
00000ffff0000000000000000000000000
00001fffe0000000000000000000000000
00001fffffffffffffe000000000000000
00001fffffffffffffe000000000000000
00003fffffffffffffc000000000000000
00003fffffffffffffc000000000000000
00003fffffffffffffc000000000000000
00007fffffffffffff8000000000000000
00007fffffffffffff8000000000000000
00007fffffffffffff8000000000000000
0000ffffffffffffff0000000000000000
0000ffffffffffffff0000000000000000
0000ffff00000000000000000000000000
0001fffe00000000000000000000000000
0001fffe00000000000000000000000000
0001fffe00000000000000000000000000
0003fffc00000000000000000000000000
0003fffc00000000000000000000000000
0003fffc00000000000000000000000000
0007fff800000000000000000000000000
0007fff800000000000000000000000000
0007fff800000000000000000000000000
000ffff000000000000000000000000000
000ffff000000000000000000000000000
000ffff000000000000000000000000000
001fffe000000000000000000000000000
001fffe000000000000000000000000000
001fffe000000000000000000000000000
003fffc000000000000000000000000000
003fffc000000000000000000000000000
003fffc000000000000000000000000000
007fff8000000000000000000000000000
007ffffffffffffffffff8000000000000
007ffffffffffffffffff8000000000000
00fffffffffffffffffff0000000000000
00fffffffffffffffffff0000000000000
00fffffffffffffffffff0000000000000
01ffffffffffffffffffe0000000000000
01ffffffffffffffffffe0000000000000
01ffffffffffffffffffe0000000000000
03ffffffffffffffffffc0000000000000
03ffffffffffffffffffc0000000000000
0000000000000000000000000000000000
0000000000000000000000000000000000
0000000000000000000000000000000000
0000000000000000000000000000000000
0000000000000000000000000000000000
0000000000000000000000000000000000
0000000000000000000000000000000000
0000000000000000000000000000000000
0000000000000000000000000000000000
0000000000000000000000000000000000
0000000000000000000000000000000000
0000000000000000000000000000000000
0000000000000000000000000000000000
0000000000000000000000000000000000
0000000000000000000000000000000000
0000000000000000000000000000000000
0000000000000000000000000000000000
0000000000000000000000000000000000
0000000000000000000000000000000000
0000000000000000000000000000000000
ENDCHAR
STARTCHAR U+00CA
ENCODING 202
SWIDTH 1000 0
DWIDTH 100 0
BBX 133 100 -16 -20
BITMAP
0000000000000fffffffff000000000000
0000000000000fffffffff000000000000
0000000000000fffffffff000000000000
0000000000001ffffffffe000000000000
0000000000001ffffffffe000000000000
0000000000001ffffffffe000000000000
0000000000003ffffffffc000000000000
0000000000003ffffffffc000000000000
0000000000003ffffffffc000000000000
0000000000007ffffffff8000000000000
0000000001fffe000001fffe0000000000
0000000001fffe000001fffe0000000000
0000000003fffc000003fffc0000000000
0000000003fffc000003fffc0000000000
0000000003fffc000003fffc0000000000
0000000007fff8000007fff80000000000
0000000007fff8000007fff80000000000
0000000007fff8000007fff80000000000
000000000ffff000000ffff00000000000
000000000ffff000000ffff00000000000
0000003ffffffffffffffffffc00000000
0000007ffffffffffffffffff800000000
0000007ffffffffffffffffff800000000
0000007ffffffffffffffffff800000000
000000fffffffffffffffffff000000000
000000fffffffffffffffffff000000000
000000fffffffffffffffffff000000000
000001ffffffffffffffffffe000000000
000001ffffffffffffffffffe000000000
000001ffffffffffffffffffe000000000
000003fffc000000000000000000000000
000003fffc000000000000000000000000
000003fffc000000000000000000000000
000007fff8000000000000000000000000
000007fff8000000000000000000000000
000007fff8000000000000000000000000
00000ffff0000000000000000000000000
00000ffff0000000000000000000000000
00000ffff0000000000000000000000000
00001fffe0000000000000000000000000
00001fffffffffff800000000000000000
00001fffffffffff800000000000000000
00003fffffffffff000000000000000000
00003fffffffffff000000000000000000
00003fffffffffff000000000000000000
00007ffffffffffe000000000000000000
00007ffffffffffe000000000000000000
00007ffffffffffe000000000000000000
0000fffffffffffc000000000000000000
0000fffffffffffc000000000000000000
0000ffff00000000000000000000000000
0001fffe00000000000000000000000000
0001fffe00000000000000000000000000
0001fffe00000000000000000000000000
0003fffc00000000000000000000000000
0003fffc00000000000000000000000000
0003fffc00000000000000000000000000
0007fff800000000000000000000000000
0007fff800000000000000000000000000
0007fff800000000000000000000000000
000ffff000000000000000000000000000
000ffff000000000000000000000000000
000ffff000000000000000000000000000
001fffe000000000000000000000000000
001fffe000000000000000000000000000
001fffe000000000000000000000000000
003fffc000000000000000000000000000
003fffc000000000000000000000000000
003fffc000000000000000000000000000
007fff8000000000000000000000000000
007ffffffffffffffffff8000000000000
007ffffffffffffffffff8000000000000
00fffffffffffffffffff0000000000000
00fffffffffffffffffff0000000000000
00fffffffffffffffffff0000000000000
01ffffffffffffffffffe0000000000000
01ffffffffffffffffffe0000000000000
01ffffffffffffffffffe0000000000000
03ffffffffffffffffffc0000000000000
03ffffffffffffffffffc0000000000000
0000000000000000000000000000000000
0000000000000000000000000000000000
0000000000000000000000000000000000
0000000000000000000000000000000000
0000000000000000000000000000000000
0000000000000000000000000000000000
0000000000000000000000000000000000
0000000000000000000000000000000000
0000000000000000000000000000000000
0000000000000000000000000000000000
0000000000000000000000000000000000
0000000000000000000000000000000000
0000000000000000000000000000000000
0000000000000000000000000000000000
0000000000000000000000000000000000
0000000000000000000000000000000000
0000000000000000000000000000000000
0000000000000000000000000000000000
0000000000000000000000000000000000
0000000000000000000000000000000000
ENDCHAR
ENDFONT
